{"glyphs":{"0":{"ha":1332,"x_min":0,"x_max":0,"o":"m 464 0 b 53 258 190 0 53 86 l 53 749 b 464 1007 53 922 190 1007 l 868 1007 b 1279 749 1142 1007 1279 922 l 1279 258 b 868 0 1279 86 1142 0 m 863 150 b 1096 258 1025 150 1096 199 l 1096 749 b 863 857 1096 810 1025 857 l 469 857 b 236 749 307 857 236 810 l 236 258 b 469 150 236 199 307 150 l 863 150 "},"1":{"ha":315,"x_min":0,"x_max":0,"o":"m 250 60 b 157 -6 250 7 218 -6 b 65 60 97 -6 65 7 l 65 947 b 157 1013 65 1000 97 1013 b 250 947 218 1013 250 1000 "},"2":{"ha":1414,"x_min":0,"x_max":0,"o":"m 465 422 b 242 314 303 422 242 374 l 242 150 l 1300 150 b 1354 75 1344 150 1354 125 b 1300 0 1354 25 1344 0 l 124 0 b 58 68 78 0 58 22 l 58 314 b 469 572 58 486 196 572 l 947 572 b 1171 681 1110 572 1171 621 l 1171 749 b 947 857 1171 810 1110 857 l 732 857 b 678 932 688 857 678 882 b 732 1007 678 982 688 1007 l 943 1007 b 1354 749 1217 1007 1354 922 l 1354 681 b 943 422 1354 508 1217 422 "},"3":{"ha":1388,"x_min":0,"x_max":0,"o":"m 1165 282 b 936 431 1165 389 1131 431 l 111 431 b 57 506 67 431 57 456 b 111 581 57 556 67 581 l 946 581 b 1164 719 1113 581 1164 603 b 953 857 1164 817 1128 857 l 743 857 b 689 932 699 857 689 882 b 743 1007 689 982 699 1007 l 933 1007 b 1342 718 1175 1007 1342 950 b 1214 500 1342 621 1313 549 b 1354 288 1299 468 1354 411 b 944 0 1354 50 1150 0 l 110 0 b 56 75 65 0 56 25 b 110 150 56 125 65 150 l 956 150 b 1165 282 1139 150 1165 189 "},"4":{"ha":1496,"x_min":0,"x_max":0,"o":"m 243 417 l 1246 417 l 1246 947 b 1339 1013 1246 1000 1278 1013 b 1431 947 1399 1013 1431 1000 l 1431 60 b 1339 -6 1431 7 1399 -6 b 1246 60 1278 -6 1246 7 l 1246 267 l 126 267 b 58 324 88 267 58 283 l 58 947 b 150 1013 58 1000 90 1013 b 243 947 211 1013 243 1000 "},"5":{"ha":1418,"x_min":0,"x_max":0,"o":"m 969 664 b 1381 406 1243 664 1381 578 l 1381 258 b 969 0 1381 85 1243 0 l 114 0 b 60 75 69 0 60 25 b 114 150 60 125 69 150 l 974 150 b 1197 258 1136 150 1197 197 l 1197 406 b 974 514 1197 465 1136 514 l 128 514 b 64 574 89 514 64 536 l 64 939 b 129 1007 64 985 83 1007 l 742 1007 b 796 932 786 1007 796 982 b 742 857 796 882 786 857 l 247 857 l 247 664 "},"6":{"ha":1438,"x_min":0,"x_max":0,"o":"m 464 0 b 53 258 190 0 53 86 l 53 749 b 464 1007 53 922 190 1007 l 714 1007 b 768 932 758 1007 768 982 b 714 857 768 882 758 857 l 469 857 b 236 749 307 857 236 810 l 236 667 l 986 667 b 1397 408 1260 667 1397 582 l 1397 258 b 986 0 1397 86 1260 0 m 981 150 b 1214 258 1143 150 1214 199 l 1214 408 b 981 517 1214 469 1143 517 l 236 517 l 236 258 b 469 150 236 199 307 150 l 981 150 "},"7":{"ha":1343,"x_min":0,"x_max":0,"o":"m 1165 1007 b 1318 911 1264 1007 1318 986 b 1290 844 1318 888 1313 869 l 592 32 b 497 -6 567 3 539 -6 b 410 51 436 -6 410 13 b 443 119 410 67 414 86 l 1081 857 l 79 857 b 25 932 35 857 25 882 b 79 1007 25 982 35 1007 "},"8":{"ha":1324,"x_min":0,"x_max":0,"o":"m 443 0 b 33 288 238 0 33 50 b 174 500 33 411 89 468 b 46 718 75 549 46 621 b 454 1007 46 950 213 1007 l 869 1007 b 1278 718 1111 1007 1278 950 b 1150 500 1278 621 1249 549 b 1290 288 1235 468 1290 411 b 881 0 1290 50 1086 0 m 222 282 b 432 150 222 189 249 150 l 892 150 b 1101 282 1075 150 1101 189 b 872 431 1101 389 1067 431 l 451 431 b 222 282 257 431 222 389 m 435 857 b 224 719 260 857 224 817 b 442 581 224 603 275 581 l 882 581 b 1100 719 1049 581 1100 603 b 889 857 1100 817 1064 857 "},"9":{"ha":1356,"x_min":0,"x_max":0,"o":"m 892 1007 b 1303 749 1165 1007 1303 921 l 1303 258 b 892 0 1303 85 1165 0 l 694 0 b 640 75 650 0 640 25 b 694 150 640 125 650 150 l 886 150 b 1119 258 1049 150 1119 197 l 1119 340 l 451 340 b 40 599 178 340 40 425 l 40 749 b 451 1007 40 921 178 1007 m 457 857 b 224 749 294 857 224 808 l 224 599 b 457 490 224 538 294 490 l 1119 490 l 1119 749 b 886 857 1119 808 1049 857 "},"\u0017":{"ha":485,"x_min":0,"x_max":0,"o":""}," ":{"ha":485,"x_min":0,"x_max":0,"o":""},"!":{"ha":350,"x_min":0,"x_max":0,"o":"m 65 81 b 175 167 65 140 97 167 b 285 81 253 167 285 140 b 175 -6 285 21 253 -6 b 65 81 97 -6 65 21 m 268 286 b 175 221 268 233 236 221 b 83 286 115 221 83 233 l 83 947 b 175 1013 83 1000 115 1013 b 268 947 236 1013 268 1000 "},"\"":{"ha":542,"x_min":0,"x_max":0,"o":"m 221 717 b 135 654 221 667 192 654 b 50 717 79 654 50 667 l 50 967 b 135 1029 50 1017 79 1029 b 221 967 192 1029 221 1017 m 492 717 b 406 654 492 667 463 654 b 321 717 350 654 321 667 l 321 967 b 406 1029 321 1017 350 1029 b 492 967 463 1029 492 1017 "},"#":{"ha":1213,"x_min":0,"x_max":0,"o":"m 294 439 l 340 564 l 183 564 b 133 633 142 564 133 588 b 183 704 133 679 142 704 l 392 704 l 493 981 b 565 1013 501 1003 529 1013 b 667 960 604 1013 667 1000 b 661 936 667 954 665 947 l 576 704 l 785 704 l 886 981 b 958 1013 894 1003 922 1013 b 1060 960 997 1013 1060 1000 b 1054 936 1060 954 1058 947 l 969 704 l 1124 704 b 1174 633 1165 704 1174 679 b 1124 564 1174 588 1165 564 l 918 564 l 872 439 l 1028 439 b 1078 368 1069 439 1078 414 b 1028 299 1078 322 1069 299 l 821 299 l 721 26 b 649 -6 713 4 685 -6 b 547 47 610 -6 547 7 b 553 71 547 53 549 60 l 636 299 l 428 299 l 328 26 b 256 -6 319 4 292 -6 b 154 47 217 -6 154 7 b 160 71 154 53 156 60 l 243 299 l 88 299 b 38 368 46 299 38 322 b 88 439 38 414 46 439 m 479 439 l 688 439 l 733 564 l 525 564 "},"$":{"ha":1236,"x_min":0,"x_max":0,"o":"m 713 586 l 779 586 b 1190 328 1053 586 1190 500 l 1190 286 b 779 28 1190 113 1053 28 l 713 28 l 713 -10 b 624 -75 713 -62 683 -75 b 536 -10 565 -75 536 -62 l 536 28 l 99 28 b 44 103 54 28 44 53 b 99 178 44 153 54 178 l 536 178 l 536 436 l 456 436 b 44 694 182 436 44 522 l 44 721 b 456 979 44 894 182 979 l 536 979 l 536 1017 b 624 1082 536 1069 565 1082 b 713 1017 683 1082 713 1069 m 713 436 l 713 178 l 783 178 b 1007 286 946 178 1007 225 l 1007 328 b 783 436 1007 388 946 436 m 228 694 b 451 586 228 635 289 586 l 536 586 l 536 829 l 451 829 b 228 721 289 829 228 782 l 228 694 "},"%":{"ha":1751,"x_min":0,"x_max":0,"o":"m 290 431 b 53 583 132 431 53 482 l 53 853 b 290 1007 53 956 132 1007 l 513 1007 b 750 853 669 1007 750 956 l 750 583 b 513 431 750 482 669 431 m 510 535 b 626 583 590 535 626 557 l 626 853 b 510 901 626 881 590 901 l 293 901 b 176 853 213 901 176 881 l 176 583 b 293 535 176 557 213 535 l 510 535 m 586 21 b 522 -6 571 1 551 -6 b 461 38 481 -6 461 8 b 481 79 461 43 464 56 l 1168 988 b 1232 1013 1183 1007 1203 1013 b 1293 969 1274 1013 1293 1000 b 1274 929 1293 961 1289 949 m 1239 0 b 1001 153 1081 0 1001 51 l 1001 422 b 1239 576 1001 525 1081 576 l 1461 576 b 1699 422 1618 576 1699 525 l 1699 153 b 1461 0 1699 51 1618 0 m 1458 104 b 1575 153 1539 104 1575 126 l 1575 422 b 1458 471 1575 450 1539 471 l 1242 471 b 1125 422 1161 471 1125 450 l 1125 153 b 1242 104 1125 126 1161 104 l 1458 104 "},"&":{"ha":1433,"x_min":0,"x_max":0,"o":"m 1161 42 b 963 0 1101 13 1029 0 l 444 0 b 51 242 183 0 51 81 l 51 293 b 188 486 51 374 76 453 l 340 531 l 258 581 b 164 725 192 621 164 668 l 164 797 b 486 1007 164 928 269 1007 l 719 1007 b 1064 796 969 1007 1064 928 l 1064 753 b 911 568 1064 653 1014 601 l 686 496 l 1119 249 l 1119 465 b 1208 531 1119 518 1149 531 b 1296 465 1267 531 1296 518 l 1296 242 b 1279 157 1296 210 1289 182 l 1365 108 b 1406 50 1392 93 1406 76 b 1310 -6 1406 10 1374 -6 b 1201 18 1249 -6 1217 8 m 919 140 b 989 144 944 140 968 142 l 499 436 l 289 369 b 228 293 246 356 228 324 l 228 242 b 450 140 228 186 294 140 l 919 140 m 340 728 b 407 656 340 700 360 683 l 528 586 l 832 676 b 888 754 869 688 888 708 l 888 796 b 717 867 888 842 840 867 l 504 867 b 340 772 407 867 340 853 l 340 728 "},"'":{"ha":271,"x_min":0,"x_max":0,"o":"m 221 717 b 135 654 221 667 192 654 b 50 717 79 654 50 667 l 50 967 b 135 1029 50 1017 79 1029 b 221 967 192 1029 221 1017 "},"(":{"ha":493,"x_min":0,"x_max":0,"o":"m 272 1 b 429 -172 272 -121 343 -144 b 475 -229 456 -181 475 -189 b 393 -292 475 -275 450 -292 b 113 1 238 -292 113 -164 l 113 960 b 393 1253 113 1125 238 1253 b 475 1190 450 1253 475 1236 b 429 1133 475 1150 456 1142 b 272 960 343 1106 272 1082 l 272 1 "},")":{"ha":493,"x_min":0,"x_max":0,"o":"m 221 960 b 64 1133 221 1082 150 1106 b 18 1190 38 1142 18 1150 b 100 1253 18 1236 43 1253 b 381 960 256 1253 381 1125 l 381 1 b 100 -292 381 -164 256 -292 b 18 -229 43 -292 18 -275 b 64 -172 18 -189 38 -181 b 221 1 150 -144 221 -121 "},"*":{"ha":814,"x_min":0,"x_max":0,"o":"m 500 588 b 407 536 500 544 479 536 b 314 588 335 536 314 544 b 338 704 314 606 317 625 l 192 624 b 158 614 178 615 169 614 b 65 724 119 614 65 682 b 117 775 65 749 83 769 l 226 794 l 117 815 b 65 867 83 821 65 842 b 158 976 65 908 119 976 b 192 967 169 976 178 975 l 338 886 b 314 1003 317 965 314 985 b 407 1054 314 1046 335 1054 b 500 1003 479 1054 500 1046 b 476 886 500 985 497 965 l 622 967 b 656 976 636 975 644 976 b 749 867 694 976 749 908 b 697 815 749 842 731 821 l 588 794 l 697 775 b 749 724 731 769 749 749 b 656 614 749 682 694 614 b 622 624 644 614 636 615 l 476 704 b 500 588 497 625 500 606 "},"+":{"ha":846,"x_min":0,"x_max":0,"o":"m 503 422 l 503 192 b 422 133 503 144 476 133 b 343 192 369 133 343 144 l 343 422 l 111 422 b 53 503 64 422 53 449 b 111 582 53 556 64 582 l 343 582 l 343 815 b 422 874 343 863 369 874 b 503 815 476 874 503 863 l 503 582 l 735 582 b 793 503 782 582 793 556 b 735 422 793 449 782 422 "},",":{"ha":350,"x_min":0,"x_max":0,"o":"m 244 -75 b 149 -131 238 -118 213 -131 b 58 -81 86 -131 58 -118 b 64 -36 58 -69 61 -53 l 100 188 b 196 243 107 231 132 243 b 285 189 260 243 285 231 b 282 157 285 179 283 167 "},"-":{"ha":656,"x_min":0,"x_max":0,"o":"m 589 567 b 639 496 631 567 639 542 b 589 426 639 450 631 426 l 67 426 b 17 496 25 426 17 450 b 67 567 17 542 25 567 "},".":{"ha":350,"x_min":0,"x_max":0,"o":"m 65 81 b 175 167 65 140 97 167 b 285 81 253 167 285 140 b 175 -6 285 21 253 -6 b 65 81 97 -6 65 21 "},"/":{"ha":1157,"x_min":0,"x_max":0,"o":"m 171 -193 b 85 -228 150 -219 125 -228 b 0 -169 28 -228 0 -210 b 26 -112 0 -157 6 -140 l 986 1163 b 1072 1197 1007 1189 1032 1197 b 1157 1139 1129 1197 1157 1179 b 1131 1082 1157 1126 1151 1110 "},":":{"ha":392,"x_min":0,"x_max":0,"o":"m 88 81 b 197 167 88 140 119 167 b 307 81 275 167 307 140 b 197 -6 307 21 275 -6 b 88 81 119 -6 88 21 m 88 479 b 197 565 88 539 119 565 b 307 479 275 565 307 539 b 197 393 307 419 275 393 b 88 479 119 393 88 419 "},";":{"ha":392,"x_min":0,"x_max":0,"o":"m 88 479 b 197 565 88 539 119 565 b 307 479 275 565 307 539 b 197 393 307 419 275 393 b 88 479 119 393 88 419 m 239 -75 b 143 -131 232 -118 207 -131 b 53 -81 81 -131 53 -118 b 58 -36 53 -69 56 -53 l 94 188 b 190 243 101 231 126 243 b 279 189 254 243 279 231 b 276 157 279 179 278 167 "},"<":{"ha":846,"x_min":0,"x_max":0,"o":"m 51 507 b 90 582 51 556 67 572 l 600 803 b 703 821 625 814 663 821 b 790 761 761 821 790 806 b 749 701 790 732 779 714 l 265 507 l 749 313 b 790 253 779 300 790 282 b 703 193 790 208 761 193 b 600 211 663 193 625 200 l 90 432 b 51 507 67 442 51 457 "},"=":{"ha":846,"x_min":0,"x_max":0,"o":"m 111 228 b 53 308 64 228 53 254 b 111 388 53 361 64 388 l 735 388 b 793 308 782 388 793 361 b 735 228 793 254 782 228 m 111 617 b 53 697 64 617 53 643 b 111 776 53 750 64 776 l 735 776 b 793 697 782 776 793 750 b 735 617 793 643 782 617 "},">":{"ha":846,"x_min":0,"x_max":0,"o":"m 790 507 b 751 432 790 457 775 442 l 242 211 b 139 193 217 200 179 193 b 51 253 81 193 51 208 b 93 313 51 282 63 300 l 576 507 l 93 701 b 51 761 63 714 51 732 b 139 821 51 806 81 821 b 242 803 179 821 217 814 l 751 582 b 790 507 775 572 790 556 "},"?":{"ha":932,"x_min":0,"x_max":0,"o":"m 290 400 b 240 344 244 400 240 385 l 240 285 b 150 221 240 233 210 221 b 60 285 90 221 60 233 l 60 363 b 292 546 60 500 176 546 l 485 546 b 714 654 647 546 714 594 l 714 749 b 485 857 714 810 647 857 l 426 857 b 372 932 382 857 372 882 b 426 1007 372 982 382 1007 l 481 1007 b 892 749 754 1007 892 922 l 892 654 b 481 400 892 482 754 400 m 40 81 b 150 167 40 140 72 167 b 260 81 228 167 260 140 b 150 -6 260 21 228 -6 b 40 81 72 -6 40 21 "},"@":{"ha":1106,"x_min":0,"x_max":0,"o":"m 617 56 b 335 242 443 56 335 118 l 335 368 b 656 554 335 493 443 554 l 908 554 l 908 661 b 711 743 908 706 844 743 l 394 743 b 204 661 261 743 204 708 l 204 -32 b 394 -114 204 -78 261 -114 l 990 -114 b 1032 -171 1025 -114 1032 -133 b 990 -228 1032 -207 1025 -228 l 390 -228 b 53 -32 167 -228 53 -162 l 53 661 b 390 857 53 793 167 857 l 715 857 b 1053 661 939 857 1053 786 l 1053 242 b 761 56 1053 118 944 56 m 661 446 b 479 368 533 446 479 411 l 479 242 b 617 164 479 199 533 164 l 761 164 b 908 242 854 164 908 199 l 908 446 "},"A":{"ha":1446,"x_min":0,"x_max":0,"o":"m 706 1011 b 814 963 760 1011 792 993 l 1419 99 b 1429 67 1426 88 1429 76 b 1328 -7 1429 25 1375 -7 b 1267 21 1303 -7 1281 1 l 1103 260 l 331 260 l 176 21 b 117 -7 164 1 140 -7 b 17 68 71 -7 17 25 b 26 99 17 79 21 89 l 596 963 b 706 1011 617 993 650 1011 m 426 410 l 1000 410 l 706 842 "},"B":{"ha":1357,"x_min":0,"x_max":0,"o":"m 1324 288 b 914 0 1324 50 1119 0 l 129 0 b 65 65 86 0 65 22 l 65 943 b 129 1007 65 986 86 1007 l 903 1007 b 1311 718 1144 1007 1311 950 b 1183 500 1311 621 1282 549 b 1324 288 1268 468 1324 411 m 254 581 l 915 581 b 1133 719 1082 581 1133 603 b 922 857 1133 817 1097 857 l 254 857 m 1135 282 b 906 429 1135 389 1100 429 l 250 429 l 250 150 l 925 150 b 1135 282 1108 150 1135 189 "},"C":{"ha":1244,"x_min":0,"x_max":0,"o":"m 464 0 b 53 258 190 0 53 86 l 53 749 b 464 1007 53 922 190 1007 l 1144 1007 b 1199 932 1189 1007 1199 982 b 1144 857 1199 882 1189 857 l 469 857 b 236 749 307 857 236 810 l 236 258 b 469 150 236 199 307 150 l 1146 150 b 1199 75 1190 150 1199 125 b 1146 0 1199 26 1190 0 "},"D":{"ha":1381,"x_min":0,"x_max":0,"o":"m 1328 258 b 917 0 1328 86 1192 0 l 129 0 b 65 65 86 0 65 22 l 65 943 b 129 1007 65 986 86 1007 l 917 1007 b 1328 749 1192 1007 1328 922 m 250 150 l 911 150 b 1146 258 1074 150 1146 199 l 1146 749 b 911 857 1146 810 1074 857 l 250 857 "},"E":{"ha":1239,"x_min":0,"x_max":0,"o":"m 236 421 l 236 258 b 469 150 236 199 307 150 l 1133 150 b 1188 75 1178 150 1188 125 b 1133 0 1188 26 1178 0 l 464 0 b 53 258 190 0 53 86 l 53 749 b 464 1007 53 922 190 1007 l 671 1007 b 724 932 714 1007 724 982 b 671 857 724 882 714 857 l 469 857 b 236 749 307 857 236 810 l 236 571 l 1138 571 b 1192 496 1182 571 1192 546 b 1138 421 1192 446 1182 421 "},"F":{"ha":1215,"x_min":0,"x_max":0,"o":"m 622 1007 b 675 932 667 1007 675 982 b 622 857 675 882 667 857 l 476 857 b 244 749 314 857 244 810 l 244 571 l 1144 571 b 1199 496 1189 571 1199 546 b 1144 421 1199 446 1189 421 l 244 421 l 244 60 b 151 -6 244 7 213 -6 b 60 60 92 -6 60 7 l 60 749 b 471 1007 60 922 197 1007 "},"G":{"ha":1347,"x_min":0,"x_max":0,"o":"m 1297 258 b 885 0 1297 82 1153 0 l 464 0 b 53 258 190 0 53 86 l 53 749 b 464 1007 53 922 190 1007 l 660 1007 b 714 932 704 1007 714 982 b 660 857 714 882 704 857 l 469 857 b 236 749 307 857 236 810 l 236 258 b 469 150 236 199 307 150 l 879 150 b 1111 258 1042 150 1111 199 l 1111 506 b 1203 571 1111 560 1142 571 b 1297 506 1264 571 1297 560 "},"H":{"ha":1394,"x_min":0,"x_max":0,"o":"m 250 571 l 1144 571 l 1144 947 b 1238 1013 1144 1000 1176 1013 b 1329 947 1297 1013 1329 1000 l 1329 60 b 1238 -6 1329 7 1297 -6 b 1144 60 1176 -6 1144 7 l 1144 421 l 250 421 l 250 60 b 157 -6 250 7 218 -6 b 65 60 97 -6 65 7 l 65 947 b 157 1013 65 1000 97 1013 b 250 947 218 1013 250 1000 "},"I":{"ha":315,"x_min":0,"x_max":0,"o":"m 250 60 b 157 -6 250 7 218 -6 b 65 60 97 -6 65 7 l 65 947 b 157 1013 65 1000 97 1013 b 250 947 218 1013 250 1000 "},"J":{"ha":640,"x_min":0,"x_max":0,"o":"m 69 0 b 17 76 25 0 17 26 b 69 150 17 125 25 150 l 164 150 b 396 258 326 150 396 199 l 396 947 b 489 1013 396 1000 428 1013 b 581 947 549 1013 581 1000 l 581 258 b 168 0 581 86 443 0 "},"K":{"ha":1221,"x_min":0,"x_max":0,"o":"m 250 599 l 982 993 b 1094 1013 1008 1007 1032 1013 b 1169 949 1135 1013 1169 992 b 1125 885 1169 922 1156 900 l 383 511 l 1150 122 b 1194 58 1181 107 1194 85 b 1119 -6 1194 15 1160 -6 b 1007 14 1057 -6 1033 0 l 250 415 l 250 60 b 157 -6 250 7 218 -6 b 65 60 97 -6 65 7 l 65 947 b 157 1013 65 1000 97 1013 b 250 947 218 1013 250 1000 "},"L":{"ha":1226,"x_min":0,"x_max":0,"o":"m 471 0 b 60 258 197 0 60 86 l 60 947 b 151 1013 60 1000 92 1013 b 244 947 213 1013 244 1000 l 244 258 b 476 150 244 199 314 150 l 1157 150 b 1210 76 1201 150 1210 125 b 1157 0 1210 26 1201 0 "},"M":{"ha":1838,"x_min":0,"x_max":0,"o":"m 1560 956 b 1669 1004 1589 990 1625 1004 b 1772 910 1738 1004 1772 972 l 1772 60 b 1679 -6 1772 7 1740 -6 b 1586 60 1618 -6 1586 7 l 1586 718 l 1032 47 b 922 -6 1000 10 971 -6 b 806 47 869 -6 835 11 l 250 718 l 250 60 b 157 -6 250 7 218 -6 b 65 60 97 -6 65 7 l 65 910 b 167 1004 65 972 100 1004 b 276 956 214 1004 249 988 l 915 185 "},"N":{"ha":1385,"x_min":0,"x_max":0,"o":"m 1224 -6 b 1114 42 1174 -6 1163 1 l 250 769 l 250 60 b 157 -6 250 7 218 -6 b 65 60 97 -6 65 7 l 65 947 b 153 1013 65 999 96 1013 b 283 961 214 1013 240 997 l 1135 236 l 1135 947 b 1226 1013 1135 1000 1167 1013 b 1319 947 1288 1013 1319 1000 l 1319 60 b 1224 -6 1319 6 1288 -6 "},"O":{"ha":1332,"x_min":0,"x_max":0,"o":"m 464 0 b 53 258 190 0 53 86 l 53 749 b 464 1007 53 922 190 1007 l 868 1007 b 1279 749 1142 1007 1279 922 l 1279 258 b 868 0 1279 86 1142 0 m 863 150 b 1096 258 1025 150 1096 199 l 1096 749 b 863 857 1096 810 1025 857 l 469 857 b 236 749 307 857 236 810 l 236 258 b 469 150 236 199 307 150 l 863 150 "},"P":{"ha":1367,"x_min":0,"x_max":0,"o":"m 65 943 b 131 1007 65 986 86 1007 l 918 1007 b 1326 782 1169 1007 1326 918 l 1326 581 b 918 356 1326 444 1169 356 l 250 356 l 250 60 b 157 -6 250 7 218 -6 b 65 60 97 -6 65 7 l 65 943 m 250 857 l 250 506 l 901 506 b 1143 594 1090 506 1143 544 l 1143 768 b 901 857 1143 818 1090 857 "},"Q":{"ha":1360,"x_min":0,"x_max":0,"o":"m 1307 263 b 1138 42 1307 154 1246 82 l 1226 -6 b 1271 -71 1257 -22 1271 -42 b 1176 -133 1271 -112 1243 -133 b 1083 -114 1142 -133 1110 -128 l 874 4 l 464 4 b 53 263 190 4 53 90 l 53 749 b 464 1007 53 922 190 1007 l 896 1007 b 1307 749 1169 1007 1307 922 l 1307 263 m 890 150 b 1124 258 1071 150 1124 199 l 1124 749 b 890 857 1124 810 1053 857 l 469 857 b 236 749 307 857 236 810 l 236 258 b 469 150 236 199 307 150 l 890 150 "},"R":{"ha":1368,"x_min":0,"x_max":0,"o":"m 65 943 b 131 1007 65 986 86 1007 l 911 1007 b 1319 782 1163 1007 1319 918 l 1319 607 b 911 382 1319 471 1163 382 l 856 382 b 553 388 692 382 625 383 l 553 385 b 888 257 613 363 676 342 l 1222 122 b 1267 60 1254 110 1267 90 b 1172 -6 1267 10 1233 -6 b 1063 14 1146 -6 1092 -3 l 250 365 l 250 60 b 157 -6 250 7 218 -6 b 65 60 97 -6 65 7 l 65 943 m 250 857 l 250 529 l 894 529 b 1136 618 1083 529 1136 568 l 1136 768 b 894 857 1136 818 1083 857 "},"S":{"ha":1232,"x_min":0,"x_max":0,"o":"m 458 436 b 47 694 185 436 47 522 l 47 749 b 458 1007 47 922 185 1007 l 597 1007 b 651 932 642 1007 651 982 b 597 857 651 882 642 857 l 454 857 b 231 749 292 857 231 810 l 231 694 b 454 586 231 635 292 586 l 782 586 b 1193 328 1056 586 1193 500 l 1193 258 b 782 0 1193 85 1056 0 l 101 0 b 47 75 57 0 47 25 b 101 150 47 125 57 150 l 786 150 b 1010 258 949 150 1010 197 l 1010 328 b 786 436 1010 388 949 436 "},"T":{"ha":1164,"x_min":0,"x_max":0,"o":"m 674 857 l 674 60 b 581 -6 674 7 642 -6 b 489 60 521 -6 489 7 l 489 857 l 71 857 b 17 932 26 857 17 882 b 71 1007 17 982 26 1007 l 1093 1007 b 1147 932 1138 1007 1147 982 b 1093 857 1147 882 1138 857 "},"U":{"ha":1369,"x_min":0,"x_max":0,"o":"m 471 0 b 60 258 197 0 60 86 l 60 947 b 151 1013 60 1000 92 1013 b 244 947 213 1013 244 1000 l 244 258 b 476 150 244 199 314 150 l 893 150 b 1125 258 1056 150 1125 199 l 1125 947 b 1218 1013 1125 1000 1157 1013 b 1310 947 1278 1013 1310 1000 l 1310 258 b 899 0 1310 86 1172 0 "},"V":{"ha":1489,"x_min":0,"x_max":0,"o":"m 747 -6 b 639 43 693 -6 661 11 l 28 907 b 17 939 21 918 17 928 b 124 1013 17 979 75 1013 b 190 983 147 1013 176 1004 l 751 176 l 1307 983 b 1368 1013 1319 1003 1342 1013 b 1472 938 1415 1013 1472 981 b 1461 907 1472 926 1468 915 l 857 43 b 747 -6 835 11 801 -6 "},"W":{"ha":1932,"x_min":0,"x_max":0,"o":"m 632 54 b 525 -6 614 14 578 -6 b 411 58 471 -6 431 14 l 25 915 b 17 947 19 926 17 938 b 118 1013 17 988 60 1013 b 197 971 161 1013 185 999 l 522 208 l 860 943 b 965 1013 885 997 910 1013 b 1065 943 1024 1013 1042 996 l 1401 208 l 1735 971 b 1814 1013 1747 999 1771 1013 b 1915 947 1872 1013 1915 988 b 1907 915 1915 938 1913 926 l 1513 58 b 1399 -6 1493 15 1453 -6 b 1289 54 1349 -6 1308 13 l 961 768 "},"X":{"ha":1318,"x_min":0,"x_max":0,"o":"m 665 606 l 1104 982 b 1197 1007 1128 1001 1153 1007 b 1286 950 1240 1007 1286 1001 b 1242 882 1286 925 1276 913 l 793 499 l 1246 119 b 1292 51 1282 89 1292 76 b 1200 -6 1292 1 1253 -6 b 1114 19 1160 -6 1139 -1 l 656 403 l 208 19 b 118 -6 183 -1 158 -6 b 26 51 72 -6 26 0 b 71 119 26 76 36 89 l 528 510 l 86 882 b 40 950 50 913 40 925 b 131 1007 40 999 78 1007 b 218 982 174 1007 196 1001 "},"Y":{"ha":1276,"x_min":0,"x_max":0,"o":"m 44 901 b 15 957 26 918 15 939 b 115 1013 15 986 44 1013 b 193 986 156 1013 174 1004 l 639 553 l 1083 986 b 1161 1013 1101 1004 1121 1013 b 1261 957 1231 1013 1261 988 b 1232 901 1261 939 1250 918 l 731 417 l 731 60 b 638 -6 731 7 699 -6 b 546 60 578 -6 546 7 l 546 417 "},"Z":{"ha":1233,"x_min":0,"x_max":0,"o":"m 178 0 b 25 96 79 0 25 21 b 54 161 25 128 35 144 l 990 982 b 1086 1007 1013 1001 1044 1007 b 1172 950 1126 1007 1172 1001 b 1128 882 1172 922 1160 910 l 278 150 l 1115 150 b 1169 75 1160 150 1169 125 b 1115 0 1169 25 1160 0 "},"[":{"ha":493,"x_min":0,"x_max":0,"o":"m 203 -292 b 135 -219 156 -292 135 -268 l 135 1181 b 203 1253 135 1229 156 1253 l 418 1253 b 464 1189 457 1253 464 1231 b 418 1126 464 1147 457 1126 l 294 1126 l 294 -165 l 418 -165 b 464 -228 457 -165 464 -186 b 418 -292 464 -269 457 -292 "},"\\":{"ha":1157,"x_min":0,"x_max":0,"o":"m 26 1082 b 0 1139 6 1110 0 1126 b 85 1197 0 1179 28 1197 b 171 1163 125 1197 150 1189 l 1131 -112 b 1157 -169 1151 -140 1157 -157 b 1072 -228 1157 -210 1129 -228 b 986 -193 1032 -228 1007 -219 "},"]":{"ha":493,"x_min":0,"x_max":0,"o":"m 75 -292 b 29 -228 36 -292 29 -269 b 75 -165 29 -186 36 -165 l 199 -165 l 199 1126 l 75 1126 b 29 1189 36 1126 29 1147 b 75 1253 29 1231 36 1253 l 290 1253 b 358 1181 338 1253 358 1229 l 358 -219 b 290 -292 358 -268 338 -292 "},"^":{"ha":846,"x_min":0,"x_max":0,"o":"m 225 381 b 150 349 215 358 190 349 b 54 399 93 349 54 368 b 63 425 54 407 57 415 l 318 963 b 422 1013 335 997 372 1013 b 526 963 472 1013 510 997 l 782 425 b 790 399 788 415 790 407 b 694 349 790 368 751 349 b 619 381 654 349 629 358 l 422 836 "},"_":{"ha":1238,"x_min":0,"x_max":0,"o":"m 54 -256 b 0 -181 10 -256 0 -231 b 54 -106 0 -131 10 -106 l 1183 -106 b 1238 -181 1228 -106 1238 -131 b 1183 -256 1238 -231 1228 -256 "},"`":{"ha":603,"x_min":0,"x_max":0,"o":"m 94 1035 b 53 1093 65 1050 53 1069 b 122 1153 53 1133 85 1153 b 226 1135 181 1153 201 1147 l 508 982 b 550 922 538 967 550 947 b 481 864 550 883 518 864 b 376 882 422 864 401 869 "},"a":{"ha":1261,"x_min":0,"x_max":0,"o":"m 438 0 b 44 242 176 0 44 81 l 44 315 b 438 557 44 478 176 557 l 1032 557 l 1032 558 b 810 644 1032 611 965 644 l 679 644 b 628 714 638 644 628 668 b 679 785 628 761 638 785 l 815 785 b 1208 543 1076 785 1208 706 l 1208 242 b 815 0 1208 81 1076 0 m 810 140 b 1032 242 965 140 1032 186 l 1032 422 l 443 422 b 221 321 288 422 221 378 l 221 242 b 443 140 221 186 288 140 l 810 140 "},"b":{"ha":1225,"x_min":0,"x_max":0,"o":"m 236 785 l 779 785 b 1172 543 1040 785 1172 706 l 1172 242 b 779 0 1172 81 1040 0 l 453 0 b 60 242 192 0 60 81 l 60 947 b 147 1013 60 1000 89 1013 b 236 947 207 1013 236 1000 m 236 644 l 236 242 b 458 140 236 186 303 140 l 774 140 b 996 242 929 140 996 186 l 996 543 b 774 644 996 600 929 644 "},"c":{"ha":1240,"x_min":0,"x_max":0,"o":"m 446 0 b 53 242 185 0 53 81 l 53 543 b 446 785 53 706 185 785 l 1140 785 b 1192 714 1182 785 1192 761 b 1140 644 1192 668 1182 644 l 451 644 b 229 543 296 644 229 600 l 229 242 b 451 140 229 186 296 140 l 1144 140 b 1194 71 1186 140 1194 117 b 1144 0 1194 25 1186 0 "},"d":{"ha":1232,"x_min":0,"x_max":0,"o":"m 996 947 b 1085 1013 996 1000 1025 1013 b 1172 947 1143 1013 1172 1000 l 1172 242 b 779 0 1172 81 1040 0 l 446 0 b 53 242 185 0 53 81 l 53 543 b 446 785 53 706 185 785 l 996 785 m 451 644 b 229 543 296 644 229 600 l 229 242 b 451 140 229 186 296 140 l 774 140 b 996 242 929 140 996 186 l 996 644 "},"e":{"ha":1201,"x_min":0,"x_max":0,"o":"m 229 313 l 229 242 b 451 140 229 186 296 140 l 611 140 b 661 71 653 140 661 117 b 611 0 661 25 653 0 l 446 0 b 53 242 185 0 53 81 l 53 543 b 446 785 53 706 185 785 l 767 785 b 1160 543 1044 785 1160 706 l 1160 383 b 1076 313 1160 329 1147 313 m 229 450 l 983 450 l 983 543 b 761 644 983 607 917 644 l 451 644 b 229 543 296 644 229 600 "},"f":{"ha":611,"x_min":0,"x_max":0,"o":"m 519 1007 b 569 936 561 1007 569 982 b 519 867 569 890 561 867 l 419 867 b 238 785 294 867 246 838 l 519 785 b 569 714 561 785 569 760 b 519 644 569 668 561 644 l 236 644 l 236 60 b 147 -6 236 7 207 -6 b 60 60 89 -6 60 7 l 60 767 b 419 1007 60 926 188 1007 "},"g":{"ha":1217,"x_min":0,"x_max":0,"o":"m 606 -228 b 556 -157 564 -228 556 -203 b 606 -87 556 -111 564 -87 l 797 -87 b 981 13 935 -87 981 -51 l 981 19 l 446 19 b 53 261 185 19 53 99 l 53 543 b 446 785 53 704 185 785 l 764 785 b 1157 543 1025 785 1157 704 l 1157 13 b 797 -228 1157 -147 1029 -228 m 981 157 l 981 543 b 758 644 981 599 914 644 l 451 644 b 229 543 296 644 229 599 l 229 258 b 451 157 229 201 296 157 "},"h":{"ha":1228,"x_min":0,"x_max":0,"o":"m 153 -6 b 65 60 94 -6 65 7 l 65 947 b 153 1013 65 1000 94 1013 b 242 947 213 1013 242 1000 l 242 785 l 775 785 b 1168 543 1036 785 1168 706 l 1168 60 b 1079 -6 1168 7 1139 -6 b 992 60 1021 -6 992 7 l 992 543 b 769 644 992 600 925 644 l 242 644 l 242 60 b 153 -6 242 7 213 -6 "},"i":{"ha":307,"x_min":0,"x_max":0,"o":"m 242 60 b 153 -6 242 7 213 -6 b 65 60 94 -6 65 7 l 65 715 b 153 781 65 768 94 781 b 242 715 213 781 242 768 m 43 926 b 153 1013 43 986 75 1013 b 263 926 231 1013 263 986 b 153 840 263 867 231 840 b 43 926 75 840 43 867 "},"j":{"ha":389,"x_min":0,"x_max":0,"o":"m 125 926 b 235 1013 125 986 157 1013 b 344 926 313 1013 344 986 b 235 840 344 867 313 840 b 125 926 157 840 125 867 m -150 -228 b -200 -157 -192 -228 -200 -203 b -150 -87 -200 -111 -192 -87 l -36 -87 b 147 13 101 -87 147 -51 l 147 715 b 236 781 147 768 176 781 b 324 715 294 781 324 768 l 324 13 b -36 -228 324 -147 196 -228 "},"k":{"ha":1024,"x_min":0,"x_max":0,"o":"m 242 475 l 811 775 b 918 790 835 788 861 790 b 986 739 956 790 986 774 b 947 689 986 714 969 700 l 389 396 l 957 108 b 997 50 983 94 997 76 b 900 -6 997 10 965 -6 b 793 15 840 -6 808 7 l 242 307 l 242 60 b 153 -6 242 7 213 -6 b 65 60 94 -6 65 7 l 65 947 b 153 1013 65 1000 94 1013 b 242 947 213 1013 242 1000 "},"l":{"ha":307,"x_min":0,"x_max":0,"o":"m 242 60 b 153 -6 242 7 213 -6 b 65 60 94 -6 65 7 l 65 947 b 153 1013 65 1000 94 1013 b 242 947 213 1013 242 1000 "},"m":{"ha":1629,"x_min":0,"x_max":0,"o":"m 1482 -6 b 1393 60 1422 -6 1393 7 l 1393 543 b 1182 644 1393 600 1338 644 l 1104 644 b 903 543 950 644 903 600 l 903 60 b 814 -6 903 7 874 -6 b 726 60 751 -6 726 10 l 726 543 b 525 644 726 600 679 644 l 447 644 b 236 543 292 644 236 600 l 236 60 b 147 -6 236 7 207 -6 b 60 60 89 -6 60 7 l 60 543 b 417 785 60 706 192 785 l 554 785 b 814 715 669 785 758 761 b 1075 785 871 761 958 785 l 1213 785 b 1569 543 1438 785 1569 706 l 1569 60 b 1482 -6 1569 7 1540 -6 "},"n":{"ha":1208,"x_min":0,"x_max":0,"o":"m 147 -6 b 60 60 89 -6 60 7 l 60 543 b 453 785 60 706 192 785 l 756 785 b 1149 543 1017 785 1149 706 l 1149 60 b 1060 -6 1149 7 1119 -6 b 972 60 1001 -6 972 7 l 972 543 b 750 644 972 600 906 644 l 458 644 b 236 543 303 644 236 600 l 236 60 b 147 -6 236 7 207 -6 "},"o":{"ha":1194,"x_min":0,"x_max":0,"o":"m 53 543 b 446 785 53 706 185 785 l 749 785 b 1142 543 1010 785 1142 706 l 1142 242 b 749 0 1142 81 1010 0 l 446 0 b 53 242 185 0 53 81 l 53 543 m 965 543 b 743 644 965 600 899 644 l 451 644 b 229 543 296 644 229 600 l 229 242 b 451 140 229 186 296 140 l 743 140 b 965 242 899 140 965 186 "},"p":{"ha":1232,"x_min":0,"x_max":0,"o":"m 236 -168 b 147 -233 236 -221 207 -233 b 60 -168 89 -233 60 -221 l 60 543 b 453 785 60 704 192 785 l 786 785 b 1179 543 1047 785 1179 704 l 1179 242 b 786 0 1179 79 1047 0 l 236 0 m 781 140 b 1003 242 936 140 1003 185 l 1003 543 b 781 644 1003 599 936 644 l 458 644 b 236 543 303 644 236 599 l 236 140 "},"q":{"ha":1217,"x_min":0,"x_max":0,"o":"m 981 0 l 446 0 b 53 242 185 0 53 79 l 53 543 b 446 785 53 704 185 785 l 764 785 b 1157 543 1025 785 1157 704 l 1157 -168 b 1069 -233 1157 -221 1128 -233 b 981 -168 1010 -233 981 -221 m 981 140 l 981 543 b 758 644 981 599 914 644 l 451 644 b 229 543 296 644 229 599 l 229 242 b 451 140 229 185 296 140 "},"r":{"ha":608,"x_min":0,"x_max":0,"o":"m 528 785 b 578 714 569 785 578 760 b 528 644 578 668 569 644 l 419 644 b 236 544 282 644 236 608 l 236 60 b 147 -6 236 7 207 -6 b 60 60 89 -6 60 7 l 60 544 b 419 785 60 704 188 785 "},"s":{"ha":1096,"x_min":0,"x_max":0,"o":"m 47 576 b 378 785 47 706 161 785 l 568 785 b 619 714 610 785 619 761 b 568 644 619 668 610 644 l 376 644 b 222 575 272 644 222 618 l 222 539 b 383 468 222 496 272 468 l 690 468 b 1057 257 950 468 1057 390 l 1057 213 b 664 0 1057 79 943 0 l 101 0 b 50 71 60 0 50 24 b 101 140 50 117 60 140 l 690 140 b 879 210 839 140 879 167 l 879 260 b 696 331 879 303 839 331 l 385 331 b 47 536 161 331 47 408 "},"t":{"ha":682,"x_min":0,"x_max":0,"o":"m 146 785 l 146 947 b 233 1013 146 1000 175 1013 b 322 947 293 1013 322 1000 l 322 785 l 615 785 b 665 714 657 785 665 760 b 615 644 665 668 657 644 l 322 644 l 322 60 b 233 -6 322 7 293 -6 b 146 60 175 -6 146 7 l 146 644 l 67 644 b 17 714 25 644 17 668 b 67 785 17 760 25 785 "},"u":{"ha":1238,"x_min":0,"x_max":0,"o":"m 1090 790 b 1178 725 1149 790 1178 778 l 1178 242 b 785 0 1178 79 1046 0 l 453 0 b 60 242 192 0 60 79 l 60 725 b 149 790 60 778 89 790 b 236 725 207 790 236 778 l 236 242 b 458 140 236 185 303 140 l 779 140 b 1001 242 935 140 1001 185 l 1001 725 b 1090 790 1001 778 1031 790 "},"v":{"ha":1339,"x_min":0,"x_max":0,"o":"m 672 -6 b 575 32 624 -6 594 7 l 29 708 b 17 738 21 718 17 728 b 121 790 17 769 64 790 b 208 758 153 790 189 783 l 674 175 l 1140 760 b 1224 790 1158 783 1193 790 b 1322 739 1275 790 1322 769 b 1310 708 1322 729 1318 719 l 769 32 b 672 -6 750 7 721 -6 "},"w":{"ha":1644,"x_min":0,"x_max":0,"o":"m 546 42 b 446 -6 529 10 496 -6 b 342 44 396 -6 358 10 l 22 714 b 14 740 17 724 14 732 b 110 790 14 771 53 790 b 185 758 150 790 175 781 l 444 175 l 736 736 b 826 790 758 778 779 790 b 913 736 882 790 893 774 l 1193 175 l 1458 758 b 1535 790 1468 781 1494 790 b 1631 740 1592 790 1631 771 b 1622 714 1631 732 1628 724 l 1294 44 b 1192 -6 1278 10 1240 -6 b 1090 42 1146 -6 1107 8 l 824 583 "},"x":{"ha":1182,"x_min":0,"x_max":0,"o":"m 596 486 l 956 771 b 1051 790 975 786 993 790 b 1149 744 1108 790 1149 785 b 1108 692 1149 726 1140 717 l 721 390 l 1113 93 b 1153 39 1144 68 1153 58 b 1058 -6 1153 0 1119 -6 b 964 14 1006 -6 985 -1 l 589 304 l 221 14 b 129 -6 199 -3 178 -6 b 29 40 68 -6 29 -1 b 68 93 29 58 36 68 l 464 400 l 81 692 b 42 746 49 717 42 729 b 139 790 42 783 74 790 b 229 771 189 790 210 786 "},"y":{"ha":1222,"x_min":0,"x_max":0,"o":"m 981 160 l 981 725 b 1068 790 981 778 1010 790 b 1157 725 1128 790 1157 778 l 1157 13 b 797 -228 1157 -147 1029 -228 l 606 -228 b 556 -157 564 -228 556 -203 b 606 -87 556 -111 564 -87 l 797 -87 b 981 13 935 -87 981 -51 l 981 19 l 453 19 b 60 261 192 19 60 99 l 60 725 b 147 790 60 778 89 790 b 236 725 207 790 236 778 l 236 260 b 458 160 236 203 303 160 "},"z":{"ha":1201,"x_min":0,"x_max":0,"o":"m 322 140 l 1092 140 b 1142 69 1133 140 1142 115 b 1092 0 1142 24 1133 0 l 171 0 b 36 72 71 0 36 22 b 71 136 36 97 44 117 l 926 771 b 1028 790 947 786 976 790 b 1122 746 1079 790 1122 786 b 1081 693 1122 724 1110 714 "},"{":{"ha":493,"x_min":0,"x_max":0,"o":"m 381 -292 b 176 -75 236 -292 176 -207 l 176 328 b 108 414 176 396 149 404 b 78 481 86 419 78 429 b 108 547 78 532 86 542 b 176 633 149 557 176 565 l 176 1036 b 381 1253 176 1168 236 1253 b 464 1192 439 1253 464 1239 b 403 1126 464 1131 424 1128 b 336 1036 356 1122 336 1088 l 336 631 b 257 481 336 542 310 486 b 336 331 310 475 336 417 l 336 -75 b 403 -165 336 -126 356 -161 b 464 -231 424 -167 464 -169 b 381 -292 464 -278 439 -292 "},"|":{"ha":496,"x_min":0,"x_max":0,"o":"m 328 -233 b 247 -292 328 -281 301 -292 b 168 -233 194 -292 168 -281 l 168 1194 b 247 1253 168 1242 194 1253 b 328 1194 301 1253 328 1242 "},"}":{"ha":493,"x_min":0,"x_max":0,"o":"m 113 -292 b 29 -231 54 -292 29 -278 b 90 -165 29 -169 69 -167 b 157 -75 138 -161 157 -126 l 157 331 b 236 481 157 417 183 475 b 157 631 183 486 157 542 l 157 1036 b 90 1126 157 1088 138 1122 b 29 1192 69 1128 29 1131 b 113 1253 29 1239 54 1253 b 317 1036 257 1253 317 1168 l 317 633 b 385 547 317 565 344 557 b 415 481 407 542 415 532 b 385 414 415 429 407 419 b 317 328 344 404 317 396 l 317 -75 b 113 -292 317 -207 257 -292 "},"~":{"ha":846,"x_min":0,"x_max":0,"o":"m 576 381 b 290 497 439 381 365 497 b 189 419 247 497 214 460 b 115 381 174 394 164 381 b 53 442 75 381 53 390 b 268 632 53 557 161 632 b 554 515 400 632 475 515 b 657 593 596 515 631 549 b 729 632 672 619 682 632 b 793 571 771 632 793 622 b 576 381 793 456 686 381 "}," ":{"ha":485,"x_min":0,"x_max":0,"o":""},"¡":{"ha":350,"x_min":0,"x_max":0,"o":"m 65 732 b 175 818 65 792 97 818 b 285 732 253 818 285 792 b 175 646 285 672 253 646 b 65 732 97 646 65 672 m 268 -135 b 175 -200 268 -187 236 -200 b 83 -135 115 -200 83 -187 l 83 526 b 175 592 83 579 115 592 b 268 526 236 592 268 579 "},"¢":{"ha":1139,"x_min":0,"x_max":0,"o":"m 700 882 l 1029 882 b 1081 811 1071 882 1081 858 b 1029 742 1081 765 1071 742 l 700 742 l 700 238 l 1033 238 b 1083 168 1075 238 1083 214 b 1033 97 1083 122 1075 97 l 700 97 l 700 53 b 619 -6 700 6 674 -6 b 540 53 567 -6 540 6 l 540 97 l 446 97 b 53 339 185 97 53 178 l 53 640 b 446 882 53 803 185 882 l 540 882 l 540 949 b 619 1007 540 996 567 1007 b 700 949 674 1007 700 996 m 229 339 b 451 238 229 283 296 238 l 540 238 l 540 742 l 451 742 b 229 640 296 742 229 697 l 229 339 "},"£":{"ha":1164,"x_min":0,"x_max":0,"o":"m 985 579 b 1035 508 1026 579 1035 554 b 985 439 1035 463 1026 439 l 396 439 l 396 150 l 1051 150 b 1106 75 1096 150 1106 125 b 1051 0 1106 25 1096 0 l 71 0 b 17 75 26 0 17 25 b 71 150 17 125 26 150 l 211 150 l 211 439 l 115 439 b 65 508 74 439 65 463 b 115 579 65 554 74 579 l 211 579 l 211 749 b 624 1007 211 921 349 1007 l 722 1007 b 775 931 767 1007 775 981 b 722 857 775 882 767 857 l 628 857 b 396 749 465 857 396 808 l 396 579 "},"¤":{"ha":846,"x_min":0,"x_max":0,"o":"m 571 243 b 422 199 529 215 476 199 b 275 243 367 199 315 215 l 185 151 b 124 125 167 133 146 125 b 46 200 83 125 46 158 b 71 257 46 218 53 239 l 167 350 b 122 497 139 392 122 443 b 167 644 122 550 139 603 l 71 739 b 46 794 54 756 46 775 b 125 869 46 835 85 869 b 185 843 146 869 165 863 l 275 751 b 422 796 317 779 368 796 b 569 751 476 796 528 778 l 661 843 b 721 871 678 860 699 871 b 799 794 761 871 799 835 b 774 739 799 775 790 756 l 676 643 b 721 497 704 601 721 550 b 678 351 721 443 704 393 l 774 257 b 799 200 792 239 799 219 b 721 124 799 160 761 124 b 661 151 700 124 679 133 m 596 497 b 422 669 596 592 519 669 b 249 497 325 669 249 592 b 422 324 249 400 325 324 b 596 497 519 324 596 400 "},"¥":{"ha":1176,"x_min":0,"x_max":0,"o":"m 681 367 l 681 290 l 1039 290 b 1097 211 1086 290 1097 264 b 1039 131 1097 157 1086 131 l 681 131 l 681 60 b 588 -6 681 7 649 -6 b 496 60 528 -6 496 7 l 496 131 l 138 131 b 79 211 90 131 79 157 b 138 290 79 264 90 290 l 496 290 l 496 367 l 138 367 b 79 447 90 367 79 393 b 138 526 79 500 90 526 l 482 526 l 93 901 b 64 957 75 918 64 939 b 164 1013 64 986 93 1013 b 242 986 204 1013 222 1004 l 589 650 l 935 986 b 1013 1013 953 1004 972 1013 b 1113 957 1082 1013 1113 988 b 1083 901 1113 939 1101 918 l 693 526 l 1039 526 b 1097 447 1086 526 1097 500 b 1039 367 1097 393 1086 367 "},"¦":{"ha":496,"x_min":0,"x_max":0,"o":"m 328 628 b 247 569 328 581 301 569 b 168 628 194 569 168 581 l 168 1139 b 247 1197 168 1186 194 1197 b 328 1139 301 1197 328 1186 m 328 -178 b 247 -236 328 -225 301 -236 b 168 -178 194 -236 168 -225 l 168 333 b 247 392 168 381 194 392 b 328 333 301 392 328 381 "},"§":{"ha":1054,"x_min":0,"x_max":0,"o":"m 392 532 b 236 443 288 532 236 500 l 236 376 b 418 276 236 311 297 276 l 682 276 b 824 368 778 276 824 307 l 824 429 b 665 532 824 497 769 532 m 983 368 b 871 200 983 293 947 236 b 983 31 947 160 983 104 b 654 -229 983 -142 874 -229 l 140 -229 b 71 -160 94 -229 71 -206 b 140 -86 71 -110 94 -86 l 682 -86 b 824 31 778 -86 824 -47 b 668 133 824 99 772 133 l 444 133 b 81 375 201 133 81 213 l 81 443 b 192 607 81 515 118 568 b 81 775 118 644 81 701 b 428 1007 81 931 199 1007 l 463 1007 b 536 935 511 1007 536 982 b 463 865 536 889 511 865 l 392 865 b 236 775 288 865 236 833 b 410 675 236 708 293 675 l 646 675 b 983 429 869 675 983 593 "},"¨":{"ha":644,"x_min":0,"x_max":0,"o":"m 372 968 b 482 1054 372 1028 404 1054 b 592 968 560 1054 592 1028 b 482 882 592 908 560 882 b 372 968 404 882 372 908 m 53 968 b 163 1054 53 1028 85 1054 b 272 968 240 1054 272 1028 b 163 882 272 908 240 882 b 53 968 85 882 53 908 "},"©":{"ha":1201,"x_min":0,"x_max":0,"o":"m 1136 268 b 818 0 1136 100 1042 0 l 383 0 b 65 268 160 0 65 100 l 65 739 b 383 1007 65 907 160 1007 l 818 1007 b 1136 739 1042 1007 1136 907 m 153 278 b 385 90 153 150 231 90 l 817 90 b 1049 278 971 90 1049 150 l 1049 729 b 817 917 1049 857 971 917 l 385 917 b 153 729 231 917 153 857 l 153 278 m 485 246 b 268 382 340 246 268 292 l 268 640 b 485 776 268 732 340 776 l 844 776 b 872 738 868 776 872 764 b 844 697 872 711 868 697 l 488 697 b 365 640 403 697 365 672 l 365 382 b 488 325 365 350 403 325 l 844 325 b 872 285 868 325 872 311 b 844 246 872 260 868 246 "},"ª":{"ha":735,"x_min":0,"x_max":0,"o":"m 261 553 b 35 697 111 553 35 601 l 35 724 b 261 868 35 819 111 868 l 578 868 b 467 907 575 892 547 907 l 394 907 b 356 957 361 907 356 925 b 394 1007 356 989 361 1007 l 469 1007 b 697 863 619 1007 697 958 l 697 697 b 469 553 697 601 619 553 m 467 653 b 578 697 543 653 578 672 l 578 771 l 264 771 b 153 726 188 771 153 751 l 153 697 b 264 653 153 672 188 653 l 467 653 "},"«":{"ha":794,"x_min":0,"x_max":0,"o":"m 39 392 b 63 464 39 428 47 449 l 392 781 b 411 790 399 788 404 790 b 444 713 431 790 444 756 b 424 647 444 689 440 663 l 154 390 l 429 129 b 449 68 444 117 449 90 b 417 -6 449 29 435 -6 b 396 4 410 -6 403 -3 l 63 319 b 39 392 47 333 39 356 m 346 392 b 369 464 346 428 354 449 l 699 781 b 718 790 706 788 711 790 b 751 713 738 790 751 756 b 731 647 751 689 747 663 l 461 390 l 736 129 b 756 68 751 117 756 90 b 724 -6 756 29 742 -6 b 703 4 717 -6 710 -3 l 369 319 b 346 392 354 333 346 356 "},"¬":{"ha":846,"x_min":0,"x_max":0,"o":"m 793 53 b 713 -6 793 6 767 -6 b 633 53 660 -6 633 6 l 633 422 l 111 422 b 53 503 64 422 53 449 b 111 582 53 556 64 582 l 742 582 b 793 528 779 582 793 563 "},"­":{"ha":656,"x_min":0,"x_max":0,"o":"m 589 567 b 639 496 631 567 639 542 b 589 426 639 450 631 426 l 67 426 b 17 496 25 426 17 450 b 67 567 17 542 25 567 "},"®":{"ha":1201,"x_min":0,"x_max":0,"o":"m 1136 268 b 818 0 1136 100 1042 0 l 383 0 b 65 268 160 0 65 100 l 65 739 b 383 1007 65 907 160 1007 l 818 1007 b 1136 739 1042 1007 1136 907 m 153 278 b 385 90 153 150 231 90 l 817 90 b 1049 278 971 90 1049 150 l 1049 729 b 817 917 1049 857 971 917 l 385 917 b 153 729 231 917 153 857 l 153 278 m 278 743 b 313 776 278 765 289 776 l 724 776 b 939 658 857 776 939 729 l 939 565 b 724 447 939 494 857 447 l 547 447 l 888 310 b 911 276 906 304 911 293 b 868 243 911 254 894 243 b 804 253 836 243 818 246 l 376 439 l 376 278 b 326 243 376 250 358 243 b 278 278 296 243 278 250 l 278 743 m 376 697 l 376 525 l 715 525 b 843 572 815 525 843 546 l 843 650 b 715 697 843 676 815 697 "},"¯":{"ha":724,"x_min":0,"x_max":0,"o":"m 625 1039 b 671 975 663 1039 671 1017 b 625 911 671 932 663 911 l 99 911 b 53 975 60 911 53 932 b 99 1039 53 1017 60 1039 "},"°":{"ha":642,"x_min":0,"x_max":0,"o":"m 65 1021 b 261 1154 65 1110 131 1154 l 379 1154 b 576 1021 510 1154 576 1110 l 576 776 b 379 642 576 688 510 642 l 261 642 b 65 776 131 642 65 688 l 65 1021 m 461 1001 b 368 1049 461 1028 433 1049 l 272 1049 b 179 1001 207 1049 179 1028 l 179 796 b 272 747 179 769 207 747 l 368 747 b 461 796 433 747 461 769 "},"±":{"ha":846,"x_min":0,"x_max":0,"o":"m 503 519 l 503 289 b 422 231 503 242 476 231 b 343 289 369 231 343 242 l 343 519 l 111 519 b 53 600 64 519 53 546 b 111 679 53 653 64 679 l 343 679 l 343 913 b 422 971 343 960 369 971 b 503 913 476 971 503 960 l 503 679 l 735 679 b 793 600 782 679 793 653 b 735 519 793 546 782 519 m 111 0 b 53 81 64 0 53 26 b 111 160 53 133 64 160 l 735 160 b 793 81 782 160 793 133 b 735 0 793 26 782 0 "},"²":{"ha":819,"x_min":0,"x_max":0,"o":"m 276 663 b 165 614 196 663 165 642 l 165 535 l 736 535 b 776 483 768 535 776 519 b 736 431 776 449 768 431 l 89 431 b 42 479 56 431 42 447 l 42 614 b 279 768 42 717 122 768 l 542 768 b 654 815 622 768 654 789 l 654 853 b 542 901 654 881 622 901 l 424 901 b 382 954 389 901 382 919 b 424 1007 382 989 389 1007 l 539 1007 b 776 853 697 1007 776 956 l 776 815 b 539 663 776 714 697 663 "},"³":{"ha":804,"x_min":0,"x_max":0,"o":"m 650 597 b 536 667 650 647 633 667 l 82 667 b 42 719 47 667 42 685 b 82 772 42 754 47 772 l 542 772 b 650 838 625 772 650 783 b 544 901 650 882 632 901 l 429 901 b 389 954 397 901 389 919 b 429 1007 389 989 397 1007 l 535 1007 b 769 836 674 1007 769 972 b 714 717 769 786 757 744 b 776 600 753 696 776 664 b 540 431 776 460 658 431 l 81 431 b 40 483 49 431 40 449 b 81 535 40 519 49 535 l 546 535 b 650 597 638 535 650 554 "},"´":{"ha":603,"x_min":0,"x_max":0,"o":"m 226 882 b 122 864 201 869 181 864 b 53 922 85 864 53 883 b 94 982 53 947 65 967 l 376 1135 b 481 1153 401 1147 422 1153 b 550 1093 518 1153 550 1133 b 508 1035 550 1069 538 1050 "},"¶":{"ha":1032,"x_min":0,"x_max":0,"o":"m 178 781 b 314 668 178 707 222 668 l 815 668 l 815 886 l 306 886 b 178 781 219 886 178 851 m 890 -229 b 815 -175 840 -229 815 -218 l 815 547 l 597 547 l 597 -175 b 521 -226 597 -217 572 -226 b 446 -175 471 -226 446 -217 l 446 547 l 333 547 b 32 781 131 547 32 626 b 325 1007 32 932 128 1007 l 917 1007 b 967 957 950 1007 967 990 l 967 -175 b 890 -229 967 -218 942 -229 "},"·":{"ha":350,"x_min":0,"x_max":0,"o":"m 65 497 b 175 583 65 557 97 583 b 285 497 253 583 285 557 b 175 411 285 438 253 411 b 65 497 97 411 65 438 "},"¸":{"ha":317,"x_min":0,"x_max":0,"o":"m 239 -236 b 144 -292 232 -279 207 -292 b 53 -242 81 -292 53 -279 b 58 -197 53 -231 56 -214 l 79 -75 b 175 -19 86 -32 111 -19 b 264 -74 239 -19 264 -32 b 261 -106 264 -83 263 -96 "},"¹":{"ha":215,"x_min":0,"x_max":0,"o":"m 169 475 b 107 428 169 438 147 428 b 46 475 67 428 46 438 l 46 963 b 107 1010 46 1000 67 1010 b 169 963 147 1010 169 1000 "},"º":{"ha":699,"x_min":0,"x_max":0,"o":"m 39 863 b 267 1007 39 958 115 1007 l 432 1007 b 660 863 583 1007 660 958 l 660 697 b 432 553 660 601 583 553 l 267 553 b 39 697 115 553 39 601 l 39 863 m 540 863 b 429 907 540 888 507 907 l 269 907 b 158 863 192 907 158 888 l 158 697 b 269 653 158 672 192 653 l 429 653 b 540 697 507 653 540 672 "},"»":{"ha":794,"x_min":0,"x_max":0,"o":"m 449 392 b 425 319 449 356 440 333 l 92 4 b 71 -6 85 -3 78 -6 b 39 68 53 -6 39 29 b 58 129 39 90 43 117 l 333 390 l 64 647 b 43 713 47 663 43 689 b 76 790 43 756 57 790 b 96 781 83 790 89 788 l 425 464 b 449 392 440 449 449 428 m 756 392 b 732 319 756 356 747 333 l 399 4 b 378 -6 392 -3 385 -6 b 346 68 360 -6 346 29 b 365 129 346 90 350 117 l 640 390 l 371 647 b 350 713 354 663 350 689 b 383 790 350 756 364 790 b 403 781 390 790 396 788 l 732 464 b 756 392 747 449 756 428 "},"¼":{"ha":1482,"x_min":0,"x_max":0,"o":"m 279 475 b 217 428 279 438 257 428 b 156 475 176 428 156 438 l 156 963 b 217 1010 156 1000 176 1010 b 279 963 257 1010 279 1000 m 178 21 b 114 -6 163 1 143 -6 b 53 38 72 -6 53 8 b 72 79 53 43 56 56 l 760 988 b 824 1013 775 1007 794 1013 b 885 969 865 1013 885 1000 b 865 929 885 961 881 949 m 776 251 l 1306 251 l 1306 532 b 1368 579 1306 569 1328 579 b 1429 532 1408 579 1429 569 l 1429 44 b 1368 -3 1429 7 1408 -3 b 1306 44 1328 -3 1306 7 l 1306 147 l 701 147 b 653 189 675 147 653 158 l 653 532 b 715 579 653 569 675 579 b 776 532 756 579 776 569 "},"½":{"ha":1260,"x_min":0,"x_max":0,"o":"m 279 475 b 217 428 279 438 257 428 b 156 475 176 428 156 438 l 156 963 b 217 1010 156 1000 176 1010 b 279 963 257 1010 279 1000 m 178 21 b 114 -6 163 1 143 -6 b 53 38 72 -6 53 8 b 72 79 53 43 56 56 l 760 988 b 824 1013 775 1007 794 1013 b 885 969 865 1013 885 1000 b 865 929 885 961 881 949 m 707 232 b 596 183 626 232 596 211 l 596 104 l 1167 104 b 1207 53 1199 104 1207 89 b 1167 0 1207 18 1199 0 l 519 0 b 472 49 486 0 472 17 l 472 183 b 710 338 472 286 553 338 l 972 338 b 1085 385 1053 338 1085 358 l 1085 422 b 972 471 1085 450 1053 471 l 854 471 b 813 524 819 471 813 489 b 854 576 813 558 819 576 l 969 576 b 1207 422 1128 576 1207 525 l 1207 385 b 969 232 1207 283 1128 232 "},"¾":{"ha":1946,"x_min":0,"x_max":0,"o":"m 663 597 b 549 667 663 647 646 667 l 94 667 b 54 719 60 667 54 685 b 94 772 54 754 60 772 l 554 772 b 663 838 638 772 663 783 b 557 901 663 882 644 901 l 442 901 b 401 954 410 901 401 919 b 442 1007 401 989 410 1007 l 547 1007 b 782 836 686 1007 782 972 b 726 717 782 786 769 744 b 789 600 765 696 789 664 b 553 431 789 460 671 431 l 93 431 b 53 483 61 431 53 449 b 93 535 53 519 61 535 l 558 535 b 663 597 650 535 663 554 m 642 21 b 578 -6 626 1 607 -6 b 517 38 536 -6 517 8 b 536 79 517 43 519 56 l 1224 988 b 1288 1013 1239 1007 1258 1013 b 1349 969 1329 1013 1349 1000 b 1329 929 1349 961 1344 949 m 1240 251 l 1769 251 l 1769 532 b 1832 579 1769 569 1792 579 b 1893 532 1872 579 1893 569 l 1893 44 b 1832 -3 1893 7 1872 -3 b 1769 44 1792 -3 1769 7 l 1769 147 l 1165 147 b 1117 189 1139 147 1117 158 l 1117 532 b 1179 579 1117 569 1139 579 b 1240 532 1219 579 1240 569 "},"¿":{"ha":932,"x_min":0,"x_max":0,"o":"m 642 413 b 692 468 688 413 692 428 l 692 528 b 782 592 692 579 722 592 b 872 528 842 592 872 579 l 872 450 b 640 267 872 313 756 267 l 447 267 b 218 158 285 267 218 218 l 218 64 b 447 -44 218 3 285 -44 l 506 -44 b 560 -119 550 -44 560 -69 b 506 -194 560 -169 550 -194 l 451 -194 b 40 64 178 -194 40 -110 l 40 158 b 451 413 40 331 178 413 m 892 732 b 782 646 892 672 860 646 b 672 732 704 646 672 672 b 782 818 672 792 704 818 b 892 732 860 818 892 792 "},"À":{"ha":1446,"x_min":0,"x_max":0,"o":"m 706 1011 b 814 963 760 1011 792 993 l 1419 99 b 1429 67 1426 88 1429 76 b 1328 -7 1429 25 1375 -7 b 1267 21 1303 -7 1281 1 l 1103 260 l 331 260 l 176 21 b 117 -7 164 1 140 -7 b 17 68 71 -7 17 25 b 26 99 17 79 21 89 l 596 963 b 706 1011 617 993 650 1011 m 426 410 l 1000 410 l 706 842 m 446 1257 b 404 1315 417 1272 404 1292 b 474 1375 404 1356 436 1375 b 578 1357 532 1375 553 1369 l 860 1204 b 901 1144 889 1189 901 1169 b 832 1086 901 1106 869 1086 b 728 1104 774 1086 753 1092 "},"Á":{"ha":1446,"x_min":0,"x_max":0,"o":"m 706 1011 b 814 963 760 1011 792 993 l 1419 99 b 1429 67 1426 88 1429 76 b 1328 -7 1429 25 1375 -7 b 1267 21 1303 -7 1281 1 l 1103 260 l 331 260 l 176 21 b 117 -7 164 1 140 -7 b 17 68 71 -7 17 25 b 26 99 17 79 21 89 l 596 963 b 706 1011 617 993 650 1011 m 426 410 l 1000 410 l 706 842 m 717 1104 b 613 1086 692 1092 671 1086 b 543 1144 575 1086 543 1106 b 585 1204 543 1169 556 1189 l 867 1357 b 971 1375 892 1369 913 1375 b 1040 1315 1008 1375 1040 1356 b 999 1257 1040 1292 1028 1272 "},"Â":{"ha":1446,"x_min":0,"x_max":0,"o":"m 706 1011 b 814 963 760 1011 792 993 l 1419 99 b 1429 67 1426 88 1429 76 b 1328 -7 1429 25 1375 -7 b 1267 21 1303 -7 1281 1 l 1103 260 l 331 260 l 176 21 b 117 -7 164 1 140 -7 b 17 68 71 -7 17 25 b 26 99 17 79 21 89 l 596 963 b 706 1011 617 993 650 1011 m 426 410 l 1000 410 l 706 842 m 635 1114 b 558 1086 618 1093 586 1086 b 469 1135 511 1086 469 1106 b 481 1161 469 1142 472 1151 l 633 1342 b 722 1375 651 1364 678 1375 b 811 1342 767 1375 793 1364 l 964 1161 b 975 1135 972 1151 975 1142 b 886 1086 975 1106 933 1086 b 810 1114 858 1086 826 1093 l 722 1221 "},"Ã":{"ha":1446,"x_min":0,"x_max":0,"o":"m 706 1011 b 814 963 760 1011 792 993 l 1419 99 b 1429 67 1426 88 1429 76 b 1328 -7 1429 25 1375 -7 b 1267 21 1303 -7 1281 1 l 1103 260 l 331 260 l 176 21 b 117 -7 164 1 140 -7 b 17 68 71 -7 17 25 b 26 99 17 79 21 89 l 596 963 b 706 1011 617 993 650 1011 m 426 410 l 1000 410 l 706 842 m 986 1261 b 1032 1197 1024 1261 1032 1239 b 986 1133 1032 1154 1024 1133 l 460 1133 b 414 1197 421 1133 414 1154 b 460 1261 414 1239 421 1261 "},"Ä":{"ha":1446,"x_min":0,"x_max":0,"o":"m 706 1011 b 814 963 760 1011 792 993 l 1419 99 b 1429 67 1426 88 1429 76 b 1328 -7 1429 25 1375 -7 b 1267 21 1303 -7 1281 1 l 1103 260 l 331 260 l 176 21 b 117 -7 164 1 140 -7 b 17 68 71 -7 17 25 b 26 99 17 79 21 89 l 596 963 b 706 1011 617 993 650 1011 m 426 410 l 1000 410 l 706 842 m 772 1190 b 882 1276 772 1250 804 1276 b 992 1190 960 1276 992 1250 b 882 1104 992 1131 960 1104 b 772 1190 804 1104 772 1131 m 453 1190 b 563 1276 453 1250 485 1276 b 672 1190 640 1276 672 1250 b 563 1104 672 1131 640 1104 b 453 1190 485 1104 453 1131 "},"Å":{"ha":1446,"x_min":0,"x_max":0,"o":"m 706 1011 b 814 963 760 1011 792 993 l 1419 99 b 1429 67 1426 88 1429 76 b 1328 -7 1429 25 1375 -7 b 1267 21 1303 -7 1281 1 l 1103 260 l 331 260 l 176 21 b 117 -7 164 1 140 -7 b 17 68 71 -7 17 25 b 26 99 17 79 21 89 l 596 963 b 706 1011 617 993 650 1011 m 426 410 l 1000 410 l 706 842 m 908 1183 b 744 1042 908 1067 863 1042 l 700 1042 b 536 1183 582 1042 536 1067 l 536 1233 b 700 1375 536 1350 582 1375 l 744 1375 b 908 1233 863 1375 908 1350 m 736 1121 b 817 1183 807 1121 817 1129 l 817 1233 b 736 1296 817 1288 807 1296 l 708 1296 b 628 1233 638 1296 628 1288 l 628 1183 b 708 1121 628 1129 638 1121 "},"Æ":{"ha":2007,"x_min":0,"x_max":0,"o":"m 1315 0 b 904 258 1042 0 904 86 l 904 260 l 331 260 l 176 21 b 117 -7 164 1 140 -7 b 17 68 71 -7 17 25 b 26 99 17 79 21 89 l 593 958 b 703 1007 614 989 647 1007 l 1467 1007 b 1519 932 1510 1007 1519 982 b 1467 857 1519 882 1510 857 l 1088 857 l 1088 571 l 1906 571 b 1960 496 1950 571 1960 546 b 1906 421 1960 446 1950 421 l 1088 421 l 1088 258 b 1321 150 1088 199 1158 150 l 1901 150 b 1956 75 1946 150 1956 125 b 1901 0 1956 26 1946 0 m 426 410 l 904 410 l 904 857 l 715 857 "},"Ç":{"ha":1244,"x_min":0,"x_max":0,"o":"m 464 0 b 53 258 190 0 53 86 l 53 749 b 464 1007 53 922 190 1007 l 1144 1007 b 1199 932 1189 1007 1199 982 b 1144 857 1199 882 1189 857 l 469 857 b 236 749 307 857 236 810 l 236 258 b 469 150 236 199 307 150 l 1146 150 b 1199 75 1190 150 1199 125 b 1146 0 1199 26 1190 0 m 703 -236 b 608 -292 696 -279 671 -292 b 517 -242 544 -292 517 -279 b 522 -197 517 -231 519 -214 l 543 -75 b 639 -19 550 -32 575 -19 b 728 -74 703 -19 728 -32 b 725 -106 728 -83 726 -96 "},"È":{"ha":1239,"x_min":0,"x_max":0,"o":"m 236 421 l 236 258 b 469 150 236 199 307 150 l 1133 150 b 1188 75 1178 150 1188 125 b 1133 0 1188 26 1178 0 l 464 0 b 53 258 190 0 53 86 l 53 749 b 464 1007 53 922 190 1007 l 671 1007 b 724 932 714 1007 724 982 b 671 857 724 882 714 857 l 469 857 b 236 749 307 857 236 810 l 236 571 l 1138 571 b 1192 496 1182 571 1192 546 b 1138 421 1192 446 1182 421 m 301 1257 b 260 1315 272 1272 260 1292 b 329 1375 260 1356 292 1375 b 433 1357 388 1375 408 1369 l 715 1204 b 757 1144 744 1189 757 1169 b 688 1086 757 1106 725 1086 b 583 1104 629 1086 608 1092 "},"É":{"ha":1239,"x_min":0,"x_max":0,"o":"m 236 421 l 236 258 b 469 150 236 199 307 150 l 1133 150 b 1188 75 1178 150 1188 125 b 1133 0 1188 26 1178 0 l 464 0 b 53 258 190 0 53 86 l 53 749 b 464 1007 53 922 190 1007 l 671 1007 b 724 932 714 1007 724 982 b 671 857 724 882 714 857 l 469 857 b 236 749 307 857 236 810 l 236 571 l 1138 571 b 1192 496 1182 571 1192 546 b 1138 421 1192 446 1182 421 m 572 1104 b 468 1086 547 1092 526 1086 b 399 1144 431 1086 399 1106 b 440 1204 399 1169 411 1189 l 722 1357 b 826 1375 747 1369 768 1375 b 896 1315 864 1375 896 1356 b 854 1257 896 1292 883 1272 "},"Ê":{"ha":1239,"x_min":0,"x_max":0,"o":"m 236 421 l 236 258 b 469 150 236 199 307 150 l 1133 150 b 1188 75 1178 150 1188 125 b 1133 0 1188 26 1178 0 l 464 0 b 53 258 190 0 53 86 l 53 749 b 464 1007 53 922 190 1007 l 671 1007 b 724 932 714 1007 724 982 b 671 857 724 882 714 857 l 469 857 b 236 749 307 857 236 810 l 236 571 l 1138 571 b 1192 496 1182 571 1192 546 b 1138 421 1192 446 1182 421 m 490 1114 b 414 1086 474 1093 442 1086 b 325 1135 367 1086 325 1106 b 336 1161 325 1142 328 1151 l 489 1342 b 578 1375 507 1364 533 1375 b 667 1342 622 1375 649 1364 l 819 1161 b 831 1135 828 1151 831 1142 b 742 1086 831 1106 789 1086 b 665 1114 714 1086 682 1093 l 578 1221 "},"Ë":{"ha":1239,"x_min":0,"x_max":0,"o":"m 236 421 l 236 258 b 469 150 236 199 307 150 l 1133 150 b 1188 75 1178 150 1188 125 b 1133 0 1188 26 1178 0 l 464 0 b 53 258 190 0 53 86 l 53 749 b 464 1007 53 922 190 1007 l 671 1007 b 724 932 714 1007 724 982 b 671 857 724 882 714 857 l 469 857 b 236 749 307 857 236 810 l 236 571 l 1138 571 b 1192 496 1182 571 1192 546 b 1138 421 1192 446 1182 421 m 628 1190 b 738 1276 628 1250 660 1276 b 847 1190 815 1276 847 1250 b 738 1104 847 1131 815 1104 b 628 1190 660 1104 628 1131 m 308 1190 b 418 1276 308 1250 340 1276 b 528 1190 496 1276 528 1250 b 418 1104 528 1131 496 1104 b 308 1190 340 1104 308 1131 "},"Ì":{"ha":393,"x_min":0,"x_max":0,"o":"m 328 60 b 235 -6 328 7 296 -6 b 143 60 175 -6 143 7 l 143 947 b 235 1013 143 1000 175 1013 b 328 947 296 1013 328 1000 m -40 1257 b -82 1315 -69 1272 -82 1292 b -12 1375 -82 1356 -50 1375 b 92 1357 46 1375 67 1369 l 374 1204 b 415 1144 403 1189 415 1169 b 346 1086 415 1106 383 1086 b 242 1104 288 1086 267 1092 "},"Í":{"ha":396,"x_min":0,"x_max":0,"o":"m 250 60 b 157 -6 250 7 218 -6 b 65 60 97 -6 65 7 l 65 947 b 157 1013 65 1000 97 1013 b 250 947 218 1013 250 1000 m 153 1104 b 49 1086 128 1092 107 1086 b -21 1144 11 1086 -21 1106 b 21 1204 -21 1169 -8 1189 l 303 1357 b 407 1375 328 1369 349 1375 b 476 1315 444 1375 476 1356 b 435 1257 476 1292 464 1272 "},"Î":{"ha":389,"x_min":0,"x_max":0,"o":"m 286 60 b 193 -6 286 7 254 -6 b 101 60 133 -6 101 7 l 101 947 b 193 1013 101 1000 133 1013 b 286 947 254 1013 286 1000 m 107 1114 b 31 1086 90 1093 58 1086 b -58 1135 -17 1086 -58 1106 b -47 1161 -58 1142 -56 1151 l 106 1342 b 194 1375 124 1364 150 1375 b 283 1342 239 1375 265 1364 l 436 1161 b 447 1135 444 1151 447 1142 b 358 1086 447 1106 406 1086 b 282 1114 331 1086 299 1093 l 194 1221 "},"Ï":{"ha":385,"x_min":0,"x_max":0,"o":"m 285 60 b 192 -6 285 7 253 -6 b 100 60 132 -6 100 7 l 100 947 b 192 1013 100 1000 132 1013 b 285 947 253 1013 285 1000 m 243 1190 b 353 1276 243 1250 275 1276 b 463 1190 431 1276 463 1250 b 353 1104 463 1131 431 1104 b 243 1190 275 1104 243 1131 m -76 1190 b 33 1276 -76 1250 -44 1276 b 143 1190 111 1276 143 1250 b 33 1104 143 1131 111 1104 b -76 1190 -44 1104 -76 1131 "},"Ð":{"ha":1438,"x_min":0,"x_max":0,"o":"m 1385 258 b 974 0 1385 86 1249 0 l 186 0 b 122 65 143 0 122 22 l 122 421 l 68 421 b 14 496 24 421 14 446 b 68 571 14 546 24 571 l 122 571 l 122 943 b 186 1007 122 986 143 1007 l 974 1007 b 1385 749 1249 1007 1385 922 m 307 421 l 307 150 l 968 150 b 1203 258 1131 150 1203 199 l 1203 749 b 968 857 1203 810 1131 857 l 307 857 l 307 571 l 875 571 b 929 496 919 571 929 546 b 875 421 929 446 919 421 "},"Ñ":{"ha":1385,"x_min":0,"x_max":0,"o":"m 1224 -6 b 1114 42 1174 -6 1163 1 l 250 769 l 250 60 b 157 -6 250 7 218 -6 b 65 60 97 -6 65 7 l 65 947 b 153 1013 65 999 96 1013 b 283 961 214 1013 240 997 l 1135 236 l 1135 947 b 1226 1013 1135 1000 1167 1013 b 1319 947 1288 1013 1319 1000 l 1319 60 b 1224 -6 1319 6 1288 -6 m 956 1261 b 1001 1197 993 1261 1001 1239 b 956 1133 1001 1154 993 1133 l 429 1133 b 383 1197 390 1133 383 1154 b 429 1261 383 1239 390 1261 "},"Ò":{"ha":1332,"x_min":0,"x_max":0,"o":"m 464 0 b 53 258 190 0 53 86 l 53 749 b 464 1007 53 922 190 1007 l 868 1007 b 1279 749 1142 1007 1279 922 l 1279 258 b 868 0 1279 86 1142 0 m 863 150 b 1096 258 1025 150 1096 199 l 1096 749 b 863 857 1096 810 1025 857 l 469 857 b 236 749 307 857 236 810 l 236 258 b 469 150 236 199 307 150 l 863 150 m 389 1257 b 347 1315 360 1272 347 1292 b 417 1375 347 1356 379 1375 b 521 1357 475 1375 496 1369 l 803 1204 b 844 1144 832 1189 844 1169 b 775 1086 844 1106 813 1086 b 671 1104 717 1086 696 1092 "},"Ó":{"ha":1332,"x_min":0,"x_max":0,"o":"m 464 0 b 53 258 190 0 53 86 l 53 749 b 464 1007 53 922 190 1007 l 868 1007 b 1279 749 1142 1007 1279 922 l 1279 258 b 868 0 1279 86 1142 0 m 863 150 b 1096 258 1025 150 1096 199 l 1096 749 b 863 857 1096 810 1025 857 l 469 857 b 236 749 307 857 236 810 l 236 258 b 469 150 236 199 307 150 l 863 150 m 660 1104 b 556 1086 635 1092 614 1086 b 486 1144 518 1086 486 1106 b 528 1204 486 1169 499 1189 l 810 1357 b 914 1375 835 1369 856 1375 b 983 1315 951 1375 983 1356 b 942 1257 983 1292 971 1272 "},"Ô":{"ha":1332,"x_min":0,"x_max":0,"o":"m 464 0 b 53 258 190 0 53 86 l 53 749 b 464 1007 53 922 190 1007 l 868 1007 b 1279 749 1142 1007 1279 922 l 1279 258 b 868 0 1279 86 1142 0 m 863 150 b 1096 258 1025 150 1096 199 l 1096 749 b 863 857 1096 810 1025 857 l 469 857 b 236 749 307 857 236 810 l 236 258 b 469 150 236 199 307 150 l 863 150 m 578 1114 b 501 1086 561 1093 529 1086 b 413 1135 454 1086 413 1106 b 424 1161 413 1142 415 1151 l 576 1342 b 665 1375 594 1364 621 1375 b 754 1342 710 1375 736 1364 l 907 1161 b 918 1135 915 1151 918 1142 b 829 1086 918 1106 876 1086 b 753 1114 801 1086 769 1093 l 665 1221 "},"Õ":{"ha":1332,"x_min":0,"x_max":0,"o":"m 464 0 b 53 258 190 0 53 86 l 53 749 b 464 1007 53 922 190 1007 l 868 1007 b 1279 749 1142 1007 1279 922 l 1279 258 b 868 0 1279 86 1142 0 m 863 150 b 1096 258 1025 150 1096 199 l 1096 749 b 863 857 1096 810 1025 857 l 469 857 b 236 749 307 857 236 810 l 236 258 b 469 150 236 199 307 150 l 863 150 m 929 1261 b 975 1197 967 1261 975 1239 b 929 1133 975 1154 967 1133 l 403 1133 b 357 1197 364 1133 357 1154 b 403 1261 357 1239 364 1261 "},"Ö":{"ha":1332,"x_min":0,"x_max":0,"o":"m 464 0 b 53 258 190 0 53 86 l 53 749 b 464 1007 53 922 190 1007 l 868 1007 b 1279 749 1142 1007 1279 922 l 1279 258 b 868 0 1279 86 1142 0 m 863 150 b 1096 258 1025 150 1096 199 l 1096 749 b 863 857 1096 810 1025 857 l 469 857 b 236 749 307 857 236 810 l 236 258 b 469 150 236 199 307 150 l 863 150 m 715 1190 b 825 1276 715 1250 747 1276 b 935 1190 903 1276 935 1250 b 825 1104 935 1131 903 1104 b 715 1190 747 1104 715 1131 m 396 1190 b 506 1276 396 1250 428 1276 b 615 1190 583 1276 615 1250 b 506 1104 615 1131 583 1104 b 396 1190 428 1104 396 1131 "},"×":{"ha":846,"x_min":0,"x_max":0,"o":"m 422 389 l 260 226 b 221 206 249 215 235 206 b 126 303 186 206 126 268 b 146 339 126 313 132 325 l 310 501 l 146 665 b 125 703 132 679 125 692 b 221 799 125 736 186 799 b 258 779 231 799 244 793 l 422 615 l 588 779 b 625 800 601 793 614 800 b 719 704 660 800 719 738 b 700 667 719 694 714 681 l 535 501 l 699 338 b 719 299 710 326 719 313 b 624 206 719 264 656 206 b 586 225 614 206 600 211 "},"Ø":{"ha":1332,"x_min":0,"x_max":0,"o":"m 1113 972 b 1279 749 1224 933 1279 858 l 1279 258 b 868 0 1279 86 1142 0 l 464 0 b 385 3 436 0 410 0 l 317 -87 b 244 -117 299 -111 275 -117 b 168 -68 193 -117 168 -101 b 190 -17 168 -54 172 -42 l 226 32 b 53 258 111 71 53 146 l 53 749 b 464 1007 53 922 190 1007 l 868 1007 b 958 1003 900 1007 929 1006 l 1024 1090 b 1099 1121 1040 1113 1064 1121 b 1172 1069 1147 1121 1172 1104 b 1149 1019 1172 1057 1164 1040 m 236 258 b 328 167 236 219 265 186 l 847 857 l 469 857 b 236 749 307 857 236 810 l 236 258 m 863 150 b 1096 258 1025 150 1096 199 l 1096 749 b 1011 838 1096 786 1069 818 l 494 150 l 863 150 "},"Ù":{"ha":1369,"x_min":0,"x_max":0,"o":"m 471 0 b 60 258 197 0 60 86 l 60 947 b 151 1013 60 1000 92 1013 b 244 947 213 1013 244 1000 l 244 258 b 476 150 244 199 314 150 l 893 150 b 1125 258 1056 150 1125 199 l 1125 947 b 1218 1013 1125 1000 1157 1013 b 1310 947 1278 1013 1310 1000 l 1310 258 b 899 0 1310 86 1172 0 m 408 1257 b 367 1315 379 1272 367 1292 b 436 1375 367 1356 399 1375 b 540 1357 494 1375 515 1369 l 822 1204 b 864 1144 851 1189 864 1169 b 794 1086 864 1106 832 1086 b 690 1104 736 1086 715 1092 "},"Ú":{"ha":1369,"x_min":0,"x_max":0,"o":"m 471 0 b 60 258 197 0 60 86 l 60 947 b 151 1013 60 1000 92 1013 b 244 947 213 1013 244 1000 l 244 258 b 476 150 244 199 314 150 l 893 150 b 1125 258 1056 150 1125 199 l 1125 947 b 1218 1013 1125 1000 1157 1013 b 1310 947 1278 1013 1310 1000 l 1310 258 b 899 0 1310 86 1172 0 m 679 1104 b 575 1086 654 1092 633 1086 b 506 1144 538 1086 506 1106 b 547 1204 506 1169 518 1189 l 829 1357 b 933 1375 854 1369 875 1375 b 1003 1315 971 1375 1003 1356 b 961 1257 1003 1292 990 1272 "},"Û":{"ha":1369,"x_min":0,"x_max":0,"o":"m 471 0 b 60 258 197 0 60 86 l 60 947 b 151 1013 60 1000 92 1013 b 244 947 213 1013 244 1000 l 244 258 b 476 150 244 199 314 150 l 893 150 b 1125 258 1056 150 1125 199 l 1125 947 b 1218 1013 1125 1000 1157 1013 b 1310 947 1278 1013 1310 1000 l 1310 258 b 899 0 1310 86 1172 0 m 597 1114 b 521 1086 581 1093 549 1086 b 432 1135 474 1086 432 1106 b 443 1161 432 1142 435 1151 l 596 1342 b 685 1375 614 1364 640 1375 b 774 1342 729 1375 756 1364 l 926 1161 b 938 1135 935 1151 938 1142 b 849 1086 938 1106 896 1086 b 772 1114 821 1086 789 1093 l 685 1221 "},"Ü":{"ha":1369,"x_min":0,"x_max":0,"o":"m 471 0 b 60 258 197 0 60 86 l 60 947 b 151 1013 60 1000 92 1013 b 244 947 213 1013 244 1000 l 244 258 b 476 150 244 199 314 150 l 893 150 b 1125 258 1056 150 1125 199 l 1125 947 b 1218 1013 1125 1000 1157 1013 b 1310 947 1278 1013 1310 1000 l 1310 258 b 899 0 1310 86 1172 0 m 735 1190 b 844 1276 735 1250 767 1276 b 954 1190 922 1276 954 1250 b 844 1104 954 1131 922 1104 b 735 1190 767 1104 735 1131 m 415 1190 b 525 1276 415 1250 447 1276 b 635 1190 603 1276 635 1250 b 525 1104 635 1131 603 1104 b 415 1190 447 1104 415 1131 "},"Ý":{"ha":1276,"x_min":0,"x_max":0,"o":"m 44 901 b 15 957 26 918 15 939 b 115 1013 15 986 44 1013 b 193 986 156 1013 174 1004 l 639 553 l 1083 986 b 1161 1013 1101 1004 1121 1013 b 1261 957 1231 1013 1261 988 b 1232 901 1261 939 1250 918 l 731 417 l 731 60 b 638 -6 731 7 699 -6 b 546 60 578 -6 546 7 l 546 417 m 632 1104 b 528 1086 607 1092 586 1086 b 458 1144 490 1086 458 1106 b 500 1204 458 1169 471 1189 l 782 1357 b 886 1375 807 1369 828 1375 b 956 1315 924 1375 956 1356 b 914 1257 956 1292 943 1272 "},"Þ":{"ha":1367,"x_min":0,"x_max":0,"o":"m 157 1013 b 250 947 218 1013 250 1000 l 250 804 l 918 804 b 1326 579 1169 804 1326 715 l 1326 428 b 918 203 1326 292 1169 203 l 250 203 l 250 60 b 157 -6 250 7 218 -6 b 65 60 97 -6 65 7 l 65 947 b 157 1013 65 1000 97 1013 m 1143 565 b 901 654 1143 615 1090 654 l 250 654 l 250 353 l 901 353 b 1143 442 1090 353 1143 392 "},"ß":{"ha":1282,"x_min":0,"x_max":0,"o":"m 458 772 b 349 872 458 838 431 872 b 236 772 264 872 236 835 l 236 60 b 147 -6 236 7 207 -6 b 60 60 89 -6 60 7 l 60 772 b 349 1013 60 932 189 1013 b 633 772 507 1013 633 932 l 633 632 b 821 561 633 589 683 561 l 865 561 b 1232 350 1118 561 1232 483 l 1232 213 b 839 0 1232 79 1118 0 l 485 0 b 433 71 443 0 433 24 b 485 140 433 117 443 140 l 865 140 b 1054 210 1007 140 1054 167 l 1054 353 b 871 424 1054 396 1007 424 l 826 424 b 458 635 572 424 458 501 "},"à":{"ha":1261,"x_min":0,"x_max":0,"o":"m 438 0 b 44 242 176 0 44 81 l 44 315 b 438 557 44 478 176 557 l 1032 557 l 1032 558 b 810 644 1032 611 965 644 l 679 644 b 628 714 638 644 628 668 b 679 785 628 761 638 785 l 815 785 b 1208 543 1076 785 1208 706 l 1208 242 b 815 0 1208 81 1076 0 m 810 140 b 1032 242 965 140 1032 186 l 1032 422 l 443 422 b 221 321 288 422 221 378 l 221 242 b 443 140 221 186 288 140 l 810 140 m 479 1035 b 438 1093 450 1050 438 1069 b 507 1153 438 1133 469 1153 b 611 1135 565 1153 586 1147 l 893 982 b 935 922 922 967 935 947 b 865 864 935 883 903 864 b 761 882 807 864 786 869 "},"á":{"ha":1261,"x_min":0,"x_max":0,"o":"m 438 0 b 44 242 176 0 44 81 l 44 315 b 438 557 44 478 176 557 l 1032 557 l 1032 558 b 810 644 1032 611 965 644 l 679 644 b 628 714 638 644 628 668 b 679 785 628 761 638 785 l 815 785 b 1208 543 1076 785 1208 706 l 1208 242 b 815 0 1208 81 1076 0 m 810 140 b 1032 242 965 140 1032 186 l 1032 422 l 443 422 b 221 321 288 422 221 378 l 221 242 b 443 140 221 186 288 140 l 810 140 m 750 882 b 646 864 725 869 704 864 b 576 922 608 864 576 883 b 618 982 576 947 589 967 l 900 1135 b 1004 1153 925 1147 946 1153 b 1074 1093 1042 1153 1074 1133 b 1032 1035 1074 1069 1061 1050 "},"â":{"ha":1261,"x_min":0,"x_max":0,"o":"m 438 0 b 44 242 176 0 44 81 l 44 315 b 438 557 44 478 176 557 l 1032 557 l 1032 558 b 810 644 1032 611 965 644 l 679 644 b 628 714 638 644 628 668 b 679 785 628 761 638 785 l 815 785 b 1208 543 1076 785 1208 706 l 1208 242 b 815 0 1208 81 1076 0 m 810 140 b 1032 242 965 140 1032 186 l 1032 422 l 443 422 b 221 321 288 422 221 378 l 221 242 b 443 140 221 186 288 140 l 810 140 m 668 892 b 592 864 651 871 619 864 b 503 913 544 864 503 883 b 514 939 503 919 506 929 l 667 1119 b 756 1153 685 1142 711 1153 b 844 1119 800 1153 826 1142 l 997 939 b 1008 913 1006 929 1008 919 b 919 864 1008 883 967 864 b 843 892 892 864 860 871 l 756 999 "},"ã":{"ha":1261,"x_min":0,"x_max":0,"o":"m 438 0 b 44 242 176 0 44 81 l 44 315 b 438 557 44 478 176 557 l 1032 557 l 1032 558 b 810 644 1032 611 965 644 l 679 644 b 628 714 638 644 628 668 b 679 785 628 761 638 785 l 815 785 b 1208 543 1076 785 1208 706 l 1208 242 b 815 0 1208 81 1076 0 m 810 140 b 1032 242 965 140 1032 186 l 1032 422 l 443 422 b 221 321 288 422 221 378 l 221 242 b 443 140 221 186 288 140 l 810 140 m 1018 1039 b 1064 975 1056 1039 1064 1017 b 1018 911 1064 932 1056 911 l 492 911 b 446 975 453 911 446 932 b 492 1039 446 1017 453 1039 "},"ä":{"ha":1261,"x_min":0,"x_max":0,"o":"m 438 0 b 44 242 176 0 44 81 l 44 315 b 438 557 44 478 176 557 l 1032 557 l 1032 558 b 810 644 1032 611 965 644 l 679 644 b 628 714 638 644 628 668 b 679 785 628 761 638 785 l 815 785 b 1208 543 1076 785 1208 706 l 1208 242 b 815 0 1208 81 1076 0 m 810 140 b 1032 242 965 140 1032 186 l 1032 422 l 443 422 b 221 321 288 422 221 378 l 221 242 b 443 140 221 186 288 140 l 810 140 m 806 968 b 915 1054 806 1028 838 1054 b 1025 968 993 1054 1025 1028 b 915 882 1025 908 993 882 b 806 968 838 882 806 908 m 486 968 b 596 1054 486 1028 518 1054 b 706 968 674 1054 706 1028 b 596 882 706 908 674 882 b 486 968 518 882 486 908 "},"å":{"ha":1261,"x_min":0,"x_max":0,"o":"m 438 0 b 44 242 176 0 44 81 l 44 315 b 438 557 44 478 176 557 l 1032 557 l 1032 558 b 810 644 1032 611 965 644 l 679 644 b 628 714 638 644 628 668 b 679 785 628 761 638 785 l 815 785 b 1208 543 1076 785 1208 706 l 1208 242 b 815 0 1208 81 1076 0 m 810 140 b 1032 242 965 140 1032 186 l 1032 422 l 443 422 b 221 321 288 422 221 378 l 221 242 b 443 140 221 186 288 140 l 810 140 m 942 961 b 778 819 942 844 896 819 l 733 819 b 569 961 615 819 569 844 l 569 1011 b 733 1153 569 1128 615 1153 l 778 1153 b 942 1011 896 1153 942 1128 m 769 899 b 850 961 840 899 850 907 l 850 1011 b 769 1074 850 1065 840 1074 l 742 1074 b 661 1011 671 1074 661 1065 l 661 961 b 742 899 661 907 671 899 "},"æ":{"ha":2181,"x_min":0,"x_max":0,"o":"m 1208 313 l 1208 242 b 1431 140 1208 186 1275 140 l 1590 140 b 1640 71 1632 140 1640 117 b 1590 0 1640 25 1632 0 l 1425 0 b 1119 67 1288 0 1185 22 b 815 0 1054 22 953 0 l 438 0 b 44 242 176 0 44 81 l 44 315 b 438 557 44 478 176 557 l 1032 557 l 1032 558 b 810 644 1032 611 965 644 l 679 644 b 628 714 638 644 628 668 b 679 785 628 761 638 785 l 815 785 b 1119 718 953 785 1054 763 b 1425 785 1185 763 1288 785 l 1746 785 b 2139 543 2024 785 2139 706 l 2139 383 b 2056 313 2139 329 2126 313 m 810 140 b 1032 242 965 140 1032 186 l 1032 422 l 443 422 b 221 321 288 422 221 378 l 221 242 b 443 140 221 186 288 140 l 810 140 m 1208 450 l 1963 450 l 1963 543 b 1740 644 1963 607 1896 644 l 1431 644 b 1208 543 1275 644 1208 600 "},"ç":{"ha":1240,"x_min":0,"x_max":0,"o":"m 446 0 b 53 242 185 0 53 81 l 53 543 b 446 785 53 706 185 785 l 1140 785 b 1192 714 1182 785 1192 761 b 1140 644 1192 668 1182 644 l 451 644 b 229 543 296 644 229 600 l 229 242 b 451 140 229 186 296 140 l 1144 140 b 1194 71 1186 140 1194 117 b 1144 0 1194 25 1186 0 m 700 -236 b 606 -292 693 -279 668 -292 b 514 -242 542 -292 514 -279 b 519 -197 514 -231 517 -214 l 540 -75 b 636 -19 547 -32 572 -19 b 725 -74 700 -19 725 -32 b 722 -106 725 -83 724 -96 "},"è":{"ha":1201,"x_min":0,"x_max":0,"o":"m 229 313 l 229 242 b 451 140 229 186 296 140 l 611 140 b 661 71 653 140 661 117 b 611 0 661 25 653 0 l 446 0 b 53 242 185 0 53 81 l 53 543 b 446 785 53 706 185 785 l 767 785 b 1160 543 1044 785 1160 706 l 1160 383 b 1076 313 1160 329 1147 313 m 229 450 l 983 450 l 983 543 b 761 644 983 607 917 644 l 451 644 b 229 543 296 644 229 600 m 324 1035 b 282 1093 294 1050 282 1069 b 351 1153 282 1133 314 1153 b 456 1135 410 1153 431 1147 l 738 982 b 779 922 767 967 779 947 b 710 864 779 883 747 864 b 606 882 651 864 631 869 "},"é":{"ha":1201,"x_min":0,"x_max":0,"o":"m 229 313 l 229 242 b 451 140 229 186 296 140 l 611 140 b 661 71 653 140 661 117 b 611 0 661 25 653 0 l 446 0 b 53 242 185 0 53 81 l 53 543 b 446 785 53 706 185 785 l 767 785 b 1160 543 1044 785 1160 706 l 1160 383 b 1076 313 1160 329 1147 313 m 229 450 l 983 450 l 983 543 b 761 644 983 607 917 644 l 451 644 b 229 543 296 644 229 600 m 594 882 b 490 864 569 869 549 864 b 421 922 453 864 421 883 b 463 982 421 947 433 967 l 744 1135 b 849 1153 769 1147 790 1153 b 918 1093 886 1153 918 1133 b 876 1035 918 1069 906 1050 "},"ê":{"ha":1201,"x_min":0,"x_max":0,"o":"m 229 313 l 229 242 b 451 140 229 186 296 140 l 611 140 b 661 71 653 140 661 117 b 611 0 661 25 653 0 l 446 0 b 53 242 185 0 53 81 l 53 543 b 446 785 53 706 185 785 l 767 785 b 1160 543 1044 785 1160 706 l 1160 383 b 1076 313 1160 329 1147 313 m 229 450 l 983 450 l 983 543 b 761 644 983 607 917 644 l 451 644 b 229 543 296 644 229 600 m 513 892 b 436 864 496 871 464 864 b 347 913 389 864 347 883 b 358 939 347 919 350 929 l 511 1119 b 600 1153 529 1142 556 1153 b 689 1119 644 1153 671 1142 l 842 939 b 853 913 850 929 853 919 b 764 864 853 883 811 864 b 688 892 736 864 704 871 l 600 999 "},"ë":{"ha":1201,"x_min":0,"x_max":0,"o":"m 229 313 l 229 242 b 451 140 229 186 296 140 l 611 140 b 661 71 653 140 661 117 b 611 0 661 25 653 0 l 446 0 b 53 242 185 0 53 81 l 53 543 b 446 785 53 706 185 785 l 767 785 b 1160 543 1044 785 1160 706 l 1160 383 b 1076 313 1160 329 1147 313 m 229 450 l 983 450 l 983 543 b 761 644 983 607 917 644 l 451 644 b 229 543 296 644 229 600 m 650 968 b 760 1054 650 1028 682 1054 b 869 968 838 1054 869 1028 b 760 882 869 908 838 882 b 650 968 682 882 650 908 m 331 968 b 440 1054 331 1028 363 1054 b 550 968 518 1054 550 1028 b 440 882 550 908 518 882 b 331 968 363 882 331 908 "},"ì":{"ha":471,"x_min":0,"x_max":0,"o":"m 406 60 b 317 -6 406 7 376 -6 b 229 60 258 -6 229 7 l 229 725 b 317 790 229 778 258 790 b 406 725 376 790 406 778 m 42 1035 b 0 1093 13 1050 0 1069 b 69 1153 0 1133 32 1153 b 174 1135 128 1153 149 1147 l 456 982 b 497 922 485 967 497 947 b 428 864 497 883 465 864 b 324 882 369 864 349 869 "},"í":{"ha":472,"x_min":0,"x_max":0,"o":"m 242 60 b 153 -6 242 7 213 -6 b 65 60 94 -6 65 7 l 65 725 b 153 790 65 778 94 790 b 242 725 213 790 242 778 m 149 882 b 44 864 124 869 103 864 b -25 922 7 864 -25 883 b 17 982 -25 947 -12 967 l 299 1135 b 403 1153 324 1147 344 1153 b 472 1093 440 1153 472 1133 b 431 1035 472 1069 460 1050 "},"î":{"ha":506,"x_min":0,"x_max":0,"o":"m 340 60 b 251 -6 340 7 311 -6 b 164 60 193 -6 164 7 l 164 725 b 251 790 164 778 193 790 b 340 725 311 790 340 778 m 165 892 b 89 864 149 871 117 864 b 0 913 42 864 0 883 b 11 939 0 919 3 929 l 164 1119 b 253 1153 182 1142 208 1153 b 342 1119 297 1153 324 1142 l 494 939 b 506 913 503 929 506 919 b 417 864 506 883 464 864 b 340 892 389 864 357 871 l 253 999 "},"ï":{"ha":539,"x_min":0,"x_max":0,"o":"m 357 60 b 268 -6 357 7 328 -6 b 181 60 210 -6 181 7 l 181 725 b 268 790 181 778 210 790 b 357 725 328 790 357 778 m 319 968 b 429 1054 319 1028 351 1054 b 539 968 507 1054 539 1028 b 429 882 539 908 507 882 b 319 968 351 882 319 908 m 0 968 b 110 1054 0 1028 32 1054 b 219 968 188 1054 219 1028 b 110 882 219 908 188 882 b 0 968 32 882 0 908 "},"ð":{"ha":1232,"x_min":0,"x_max":0,"o":"m 958 1007 b 1172 822 1106 1007 1172 938 l 1172 242 b 779 0 1172 81 1040 0 l 446 0 b 53 242 185 0 53 81 l 53 418 b 446 660 53 581 185 660 l 996 660 l 996 822 b 958 867 996 851 983 867 l 704 867 b 654 936 663 867 654 890 b 704 1007 654 982 663 1007 m 451 519 b 229 418 296 519 229 475 l 229 242 b 451 140 229 186 296 140 l 774 140 b 996 242 929 140 996 186 l 996 519 "},"ñ":{"ha":1208,"x_min":0,"x_max":0,"o":"m 147 -6 b 60 60 89 -6 60 7 l 60 543 b 453 785 60 706 192 785 l 756 785 b 1149 543 1017 785 1149 706 l 1149 60 b 1060 -6 1149 7 1119 -6 b 972 60 1001 -6 972 7 l 972 543 b 750 644 972 600 906 644 l 458 644 b 236 543 303 644 236 600 l 236 60 b 147 -6 236 7 207 -6 m 867 1039 b 913 975 904 1039 913 1017 b 867 911 913 932 904 911 l 340 911 b 294 975 301 911 294 932 b 340 1039 294 1017 301 1039 "},"ò":{"ha":1194,"x_min":0,"x_max":0,"o":"m 53 543 b 446 785 53 706 185 785 l 749 785 b 1142 543 1010 785 1142 706 l 1142 242 b 749 0 1142 81 1010 0 l 446 0 b 53 242 185 0 53 81 l 53 543 m 965 543 b 743 644 965 600 899 644 l 451 644 b 229 543 296 644 229 600 l 229 242 b 451 140 229 186 296 140 l 743 140 b 965 242 899 140 965 186 m 321 1035 b 279 1093 292 1050 279 1069 b 349 1153 279 1133 311 1153 b 453 1135 407 1153 428 1147 l 735 982 b 776 922 764 967 776 947 b 707 864 776 883 744 864 b 603 882 649 864 628 869 "},"ó":{"ha":1194,"x_min":0,"x_max":0,"o":"m 53 543 b 446 785 53 706 185 785 l 749 785 b 1142 543 1010 785 1142 706 l 1142 242 b 749 0 1142 81 1010 0 l 446 0 b 53 242 185 0 53 81 l 53 543 m 965 543 b 743 644 965 600 899 644 l 451 644 b 229 543 296 644 229 600 l 229 242 b 451 140 229 186 296 140 l 743 140 b 965 242 899 140 965 186 m 592 882 b 488 864 567 869 546 864 b 418 922 450 864 418 883 b 460 982 418 947 431 967 l 742 1135 b 846 1153 767 1147 788 1153 b 915 1093 883 1153 915 1133 b 874 1035 915 1069 903 1050 "},"ô":{"ha":1194,"x_min":0,"x_max":0,"o":"m 53 543 b 446 785 53 706 185 785 l 749 785 b 1142 543 1010 785 1142 706 l 1142 242 b 749 0 1142 81 1010 0 l 446 0 b 53 242 185 0 53 81 l 53 543 m 965 543 b 743 644 965 600 899 644 l 451 644 b 229 543 296 644 229 600 l 229 242 b 451 140 229 186 296 140 l 743 140 b 965 242 899 140 965 186 m 510 892 b 433 864 493 871 461 864 b 344 913 386 864 344 883 b 356 939 344 919 347 929 l 508 1119 b 597 1153 526 1142 553 1153 b 686 1119 642 1153 668 1142 l 839 939 b 850 913 847 929 850 919 b 761 864 850 883 808 864 b 685 892 733 864 701 871 l 597 999 "},"õ":{"ha":1194,"x_min":0,"x_max":0,"o":"m 53 543 b 446 785 53 706 185 785 l 749 785 b 1142 543 1010 785 1142 706 l 1142 242 b 749 0 1142 81 1010 0 l 446 0 b 53 242 185 0 53 81 l 53 543 m 965 543 b 743 644 965 600 899 644 l 451 644 b 229 543 296 644 229 600 l 229 242 b 451 140 229 186 296 140 l 743 140 b 965 242 899 140 965 186 m 860 1039 b 906 975 897 1039 906 1017 b 860 911 906 932 897 911 l 333 911 b 288 975 294 911 288 932 b 333 1039 288 1017 294 1039 "},"ö":{"ha":1194,"x_min":0,"x_max":0,"o":"m 53 543 b 446 785 53 706 185 785 l 749 785 b 1142 543 1010 785 1142 706 l 1142 242 b 749 0 1142 81 1010 0 l 446 0 b 53 242 185 0 53 81 l 53 543 m 965 543 b 743 644 965 600 899 644 l 451 644 b 229 543 296 644 229 600 l 229 242 b 451 140 229 186 296 140 l 743 140 b 965 242 899 140 965 186 m 647 968 b 757 1054 647 1028 679 1054 b 867 968 835 1054 867 1028 b 757 882 867 908 835 882 b 647 968 679 882 647 908 m 328 968 b 438 1054 328 1028 360 1054 b 547 968 515 1054 547 1028 b 438 882 547 908 515 882 b 328 968 360 882 328 908 "},"÷":{"ha":846,"x_min":0,"x_max":0,"o":"m 111 422 b 53 503 64 422 53 449 b 111 582 53 556 64 582 l 735 582 b 793 503 782 582 793 556 b 735 422 793 449 782 422 m 313 779 b 422 865 313 839 344 865 b 532 779 500 865 532 839 b 422 693 532 719 500 693 b 313 779 344 693 313 719 m 313 225 b 422 311 313 285 344 311 b 532 225 500 311 532 285 b 422 139 532 165 500 139 b 313 225 344 139 313 165 "},"ø":{"ha":1194,"x_min":0,"x_max":0,"o":"m 993 749 b 1142 543 1092 711 1142 642 l 1142 242 b 749 0 1142 81 1010 0 l 446 0 b 329 6 403 0 364 1 l 264 -67 b 196 -90 247 -86 224 -90 b 124 -51 146 -90 124 -78 b 144 -11 124 -40 128 -31 l 190 40 b 53 242 99 79 53 146 l 53 543 b 446 785 53 706 185 785 l 749 785 b 853 779 786 785 821 783 l 935 871 b 1006 896 951 889 972 896 b 1075 857 1051 896 1075 882 b 1053 815 1075 844 1069 835 m 965 543 b 883 626 965 578 940 608 l 449 140 l 743 140 b 965 242 899 140 965 186 m 229 242 b 300 161 229 210 251 181 l 732 644 l 451 644 b 229 543 296 644 229 600 l 229 242 "},"ù":{"ha":1238,"x_min":0,"x_max":0,"o":"m 1090 790 b 1178 725 1149 790 1178 778 l 1178 242 b 785 0 1178 79 1046 0 l 453 0 b 60 242 192 0 60 79 l 60 725 b 149 790 60 778 89 790 b 236 725 207 790 236 778 l 236 242 b 458 140 236 185 303 140 l 779 140 b 1001 242 935 140 1001 185 l 1001 725 b 1090 790 1001 778 1031 790 m 342 1035 b 300 1093 313 1050 300 1069 b 369 1153 300 1133 332 1153 b 474 1135 428 1153 449 1147 l 756 982 b 797 922 785 967 797 947 b 728 864 797 883 765 864 b 624 882 669 864 649 869 "},"ú":{"ha":1238,"x_min":0,"x_max":0,"o":"m 1090 790 b 1178 725 1149 790 1178 778 l 1178 242 b 785 0 1178 79 1046 0 l 453 0 b 60 242 192 0 60 79 l 60 725 b 149 790 60 778 89 790 b 236 725 207 790 236 778 l 236 242 b 458 140 236 185 303 140 l 779 140 b 1001 242 935 140 1001 185 l 1001 725 b 1090 790 1001 778 1031 790 m 613 882 b 508 864 588 869 567 864 b 439 922 471 864 439 883 b 481 982 439 947 451 967 l 763 1135 b 867 1153 788 1147 808 1153 b 936 1093 904 1153 936 1133 b 894 1035 936 1069 924 1050 "},"û":{"ha":1238,"x_min":0,"x_max":0,"o":"m 1090 790 b 1178 725 1149 790 1178 778 l 1178 242 b 785 0 1178 79 1046 0 l 453 0 b 60 242 192 0 60 79 l 60 725 b 149 790 60 778 89 790 b 236 725 207 790 236 778 l 236 242 b 458 140 236 185 303 140 l 779 140 b 1001 242 935 140 1001 185 l 1001 725 b 1090 790 1001 778 1031 790 m 531 892 b 454 864 514 871 482 864 b 365 913 407 864 365 883 b 376 939 365 919 368 929 l 529 1119 b 618 1153 547 1142 574 1153 b 707 1119 663 1153 689 1142 l 860 939 b 871 913 868 929 871 919 b 782 864 871 883 829 864 b 706 892 754 864 722 871 l 618 999 "},"ü":{"ha":1238,"x_min":0,"x_max":0,"o":"m 1090 790 b 1178 725 1149 790 1178 778 l 1178 242 b 785 0 1178 79 1046 0 l 453 0 b 60 242 192 0 60 79 l 60 725 b 149 790 60 778 89 790 b 236 725 207 790 236 778 l 236 242 b 458 140 236 185 303 140 l 779 140 b 1001 242 935 140 1001 185 l 1001 725 b 1090 790 1001 778 1031 790 m 668 968 b 778 1054 668 1028 700 1054 b 888 968 856 1054 888 1028 b 778 882 888 908 856 882 b 668 968 700 882 668 908 m 349 968 b 458 1054 349 1028 381 1054 b 568 968 536 1054 568 1028 b 458 882 568 908 536 882 b 349 968 381 882 349 908 "},"ý":{"ha":1222,"x_min":0,"x_max":0,"o":"m 981 160 l 981 725 b 1068 790 981 778 1010 790 b 1157 725 1128 790 1157 778 l 1157 13 b 797 -228 1157 -147 1029 -228 l 606 -228 b 556 -157 564 -228 556 -203 b 606 -87 556 -111 564 -87 l 797 -87 b 981 13 935 -87 981 -51 l 981 19 l 453 19 b 60 261 192 19 60 99 l 60 725 b 147 790 60 778 89 790 b 236 725 207 790 236 778 l 236 260 b 458 160 236 203 303 160 m 606 882 b 501 864 581 869 560 864 b 432 922 464 864 432 883 b 474 982 432 947 444 967 l 756 1135 b 860 1153 781 1147 801 1153 b 929 1093 897 1153 929 1133 b 888 1035 929 1069 917 1050 "},"þ":{"ha":1225,"x_min":0,"x_max":0,"o":"m 242 0 l 242 -174 b 153 -239 242 -226 213 -239 b 65 -174 94 -239 65 -226 l 65 947 b 153 1013 65 1000 94 1013 b 242 947 213 1013 242 1000 l 242 785 l 779 785 b 1172 543 1040 785 1172 706 l 1172 242 b 779 0 1172 81 1040 0 m 242 644 l 242 140 l 774 140 b 996 242 929 140 996 186 l 996 543 b 774 644 996 600 929 644 "},"ÿ":{"ha":1222,"x_min":0,"x_max":0,"o":"m 981 160 l 981 725 b 1068 790 981 778 1010 790 b 1157 725 1128 790 1157 778 l 1157 13 b 797 -228 1157 -147 1029 -228 l 606 -228 b 556 -157 564 -228 556 -203 b 606 -87 556 -111 564 -87 l 797 -87 b 981 13 935 -87 981 -51 l 981 19 l 453 19 b 60 261 192 19 60 99 l 60 725 b 147 790 60 778 89 790 b 236 725 207 790 236 778 l 236 260 b 458 160 236 203 303 160 m 661 968 b 771 1054 661 1028 693 1054 b 881 968 849 1054 881 1028 b 771 882 881 908 849 882 b 661 968 693 882 661 908 m 342 968 b 451 1054 342 1028 374 1054 b 561 968 529 1054 561 1028 b 451 882 561 908 529 882 b 342 968 374 882 342 908 "},"Ā":{"ha":1446,"x_min":0,"x_max":0,"o":"m 706 1011 b 814 963 760 1011 792 993 l 1419 99 b 1429 67 1426 88 1429 76 b 1328 -7 1429 25 1375 -7 b 1267 21 1303 -7 1281 1 l 1103 260 l 331 260 l 176 21 b 117 -7 164 1 140 -7 b 17 68 71 -7 17 25 b 26 99 17 79 21 89 l 596 963 b 706 1011 617 993 650 1011 m 426 410 l 1000 410 l 706 842 m 986 1261 b 1032 1197 1024 1261 1032 1239 b 986 1133 1032 1154 1024 1133 l 460 1133 b 414 1197 421 1133 414 1154 b 460 1261 414 1239 421 1261 "},"ā":{"ha":1261,"x_min":0,"x_max":0,"o":"m 438 0 b 44 242 176 0 44 81 l 44 315 b 438 557 44 478 176 557 l 1032 557 l 1032 558 b 810 644 1032 611 965 644 l 679 644 b 628 714 638 644 628 668 b 679 785 628 761 638 785 l 815 785 b 1208 543 1076 785 1208 706 l 1208 242 b 815 0 1208 81 1076 0 m 810 140 b 1032 242 965 140 1032 186 l 1032 422 l 443 422 b 221 321 288 422 221 378 l 221 242 b 443 140 221 186 288 140 l 810 140 m 1004 1039 b 1050 975 1042 1039 1050 1017 b 1004 911 1050 932 1042 911 l 478 911 b 432 975 439 911 432 932 b 478 1039 432 1017 439 1039 "},"Ă":{"ha":1446,"x_min":0,"x_max":0,"o":"m 706 1011 b 814 963 760 1011 792 993 l 1419 99 b 1429 67 1426 88 1429 76 b 1328 -7 1429 25 1375 -7 b 1267 21 1303 -7 1281 1 l 1103 260 l 331 260 l 176 21 b 117 -7 164 1 140 -7 b 17 68 71 -7 17 25 b 26 99 17 79 21 89 l 596 963 b 706 1011 617 993 650 1011 m 426 410 l 1000 410 l 706 842 m 722 1086 b 404 1311 564 1086 404 1172 b 492 1375 404 1360 424 1375 b 576 1338 532 1375 561 1369 b 722 1215 603 1282 635 1215 b 868 1338 810 1215 842 1282 b 953 1375 883 1369 913 1375 b 1040 1311 1021 1375 1040 1360 b 722 1086 1040 1172 881 1086 "},"ă":{"ha":1261,"x_min":0,"x_max":0,"o":"m 438 0 b 44 242 176 0 44 81 l 44 315 b 438 557 44 478 176 557 l 1032 557 l 1032 558 b 810 644 1032 611 965 644 l 679 644 b 628 714 638 644 628 668 b 679 785 628 761 638 785 l 815 785 b 1208 543 1076 785 1208 706 l 1208 242 b 815 0 1208 81 1076 0 m 810 140 b 1032 242 965 140 1032 186 l 1032 422 l 443 422 b 221 321 288 422 221 378 l 221 242 b 443 140 221 186 288 140 l 810 140 m 742 864 b 424 1089 583 864 424 950 b 511 1153 424 1138 443 1153 b 596 1115 551 1153 581 1147 b 742 993 622 1060 654 993 b 888 1115 829 993 861 1060 b 972 1153 903 1147 932 1153 b 1060 1089 1040 1153 1060 1138 b 742 864 1060 950 900 864 "},"Ą":{"ha":1446,"x_min":0,"x_max":0,"o":"m 1363 -161 b 1410 -225 1401 -161 1410 -183 b 1363 -292 1410 -268 1401 -292 l 1154 -292 b 997 -186 1028 -292 997 -228 l 997 -153 b 1274 11 997 -76 1049 -36 l 1103 260 l 331 260 l 176 21 b 117 -7 164 1 140 -7 b 17 68 72 -7 17 25 b 26 99 17 79 21 89 l 596 963 b 706 1011 617 993 650 1011 b 814 963 760 1011 792 993 l 1419 99 b 1429 67 1426 88 1429 76 b 1325 -21 1429 18 1365 -8 b 1161 -108 1211 -56 1161 -72 l 1161 -129 b 1199 -161 1161 -154 1169 -161 l 1363 -161 m 426 410 l 1000 410 l 706 842 "},"ą":{"ha":1261,"x_min":0,"x_max":0,"o":"m 925 -161 b 972 -225 964 -161 972 -183 b 925 -292 972 -268 964 -292 l 717 -292 b 560 -186 590 -292 560 -228 l 560 -153 b 796 0 560 -76 611 -36 l 438 0 b 44 242 176 0 44 81 l 44 315 b 438 557 44 478 176 557 l 1032 557 l 1032 558 b 810 644 1032 611 965 644 l 679 644 b 628 714 638 644 628 668 b 679 785 628 761 638 785 l 815 785 b 1208 543 1076 785 1208 706 l 1208 242 b 888 -21 1208 99 1099 47 b 724 -108 772 -57 724 -74 l 724 -129 b 761 -161 724 -154 732 -161 l 925 -161 m 810 140 b 1032 242 965 140 1032 186 l 1032 422 l 443 422 b 221 321 288 422 221 378 l 221 242 b 443 140 221 186 288 140 l 810 140 "},"Ć":{"ha":1244,"x_min":0,"x_max":0,"o":"m 464 0 b 53 258 190 0 53 86 l 53 749 b 464 1007 53 922 190 1007 l 1144 1007 b 1199 932 1189 1007 1199 982 b 1144 857 1199 882 1189 857 l 469 857 b 236 749 307 857 236 810 l 236 258 b 469 150 236 199 307 150 l 1146 150 b 1199 75 1190 150 1199 125 b 1146 0 1199 26 1190 0 m 617 1104 b 513 1086 592 1092 571 1086 b 443 1144 475 1086 443 1106 b 485 1204 443 1169 456 1189 l 767 1357 b 871 1375 792 1369 813 1375 b 940 1315 908 1375 940 1356 b 899 1257 940 1292 928 1272 "},"ć":{"ha":1240,"x_min":0,"x_max":0,"o":"m 446 0 b 53 242 185 0 53 81 l 53 543 b 446 785 53 706 185 785 l 1140 785 b 1192 714 1182 785 1192 761 b 1140 644 1192 668 1182 644 l 451 644 b 229 543 296 644 229 600 l 229 242 b 451 140 229 186 296 140 l 1144 140 b 1194 71 1186 140 1194 117 b 1144 0 1194 25 1186 0 m 614 882 b 510 864 589 869 568 864 b 440 922 472 864 440 883 b 482 982 440 947 453 967 l 764 1135 b 868 1153 789 1147 810 1153 b 938 1093 906 1153 938 1133 b 896 1035 938 1069 925 1050 "},"Ċ":{"ha":1244,"x_min":0,"x_max":0,"o":"m 464 0 b 53 258 190 0 53 86 l 53 749 b 464 1007 53 922 190 1007 l 1144 1007 b 1199 932 1189 1007 1199 982 b 1144 857 1199 882 1189 857 l 469 857 b 236 749 307 857 236 810 l 236 258 b 469 150 236 199 307 150 l 1146 150 b 1199 75 1190 150 1199 125 b 1146 0 1199 26 1190 0 m 513 1190 b 622 1276 513 1250 544 1276 b 732 1190 700 1276 732 1250 b 622 1104 732 1131 700 1104 b 513 1190 544 1104 513 1131 "},"ċ":{"ha":1240,"x_min":0,"x_max":0,"o":"m 446 0 b 53 242 185 0 53 81 l 53 543 b 446 785 53 706 185 785 l 1140 785 b 1192 714 1182 785 1192 761 b 1140 644 1192 668 1182 644 l 451 644 b 229 543 296 644 229 600 l 229 242 b 451 140 229 186 296 140 l 1144 140 b 1194 71 1186 140 1194 117 b 1144 0 1194 25 1186 0 m 510 968 b 619 1054 510 1028 542 1054 b 729 968 697 1054 729 1028 b 619 882 729 908 697 882 b 510 968 542 882 510 908 "},"Č":{"ha":1244,"x_min":0,"x_max":0,"o":"m 464 0 b 53 258 190 0 53 86 l 53 749 b 464 1007 53 922 190 1007 l 1144 1007 b 1199 932 1189 1007 1199 982 b 1144 857 1199 882 1189 857 l 469 857 b 236 749 307 857 236 810 l 236 258 b 469 150 236 199 307 150 l 1146 150 b 1199 75 1190 150 1199 125 b 1146 0 1199 26 1190 0 m 710 1347 b 786 1375 726 1368 758 1375 b 875 1326 833 1375 875 1356 b 864 1300 875 1319 872 1310 l 711 1119 b 622 1086 693 1097 667 1086 b 533 1119 578 1086 551 1097 l 381 1300 b 369 1326 372 1310 369 1319 b 458 1375 369 1356 411 1375 b 535 1347 486 1375 518 1368 l 622 1240 "},"č":{"ha":1240,"x_min":0,"x_max":0,"o":"m 446 0 b 53 242 185 0 53 81 l 53 543 b 446 785 53 706 185 785 l 1140 785 b 1192 714 1182 785 1192 761 b 1140 644 1192 668 1182 644 l 451 644 b 229 543 296 644 229 600 l 229 242 b 451 140 229 186 296 140 l 1144 140 b 1194 71 1186 140 1194 117 b 1144 0 1194 25 1186 0 m 707 1125 b 783 1153 724 1146 756 1153 b 872 1104 831 1153 872 1133 b 861 1078 872 1097 869 1088 l 708 897 b 619 864 690 875 664 864 b 531 897 575 864 549 875 l 378 1078 b 367 1104 369 1088 367 1097 b 456 1153 367 1133 408 1153 b 532 1125 483 1153 515 1146 l 619 1018 "},"Ď":{"ha":1381,"x_min":0,"x_max":0,"o":"m 1328 258 b 917 0 1328 86 1192 0 l 129 0 b 65 65 86 0 65 22 l 65 943 b 129 1007 65 986 86 1007 l 917 1007 b 1328 749 1192 1007 1328 922 m 250 150 l 911 150 b 1146 258 1074 150 1146 199 l 1146 749 b 911 857 1146 810 1074 857 l 250 857 m 778 1347 b 854 1375 794 1368 826 1375 b 943 1326 901 1375 943 1356 b 932 1300 943 1319 940 1310 l 779 1119 b 690 1086 761 1097 735 1086 b 601 1119 646 1086 619 1097 l 449 1300 b 438 1326 440 1310 438 1319 b 526 1375 438 1356 479 1375 b 603 1347 554 1375 586 1368 l 690 1240 "},"ď":{"ha":1443,"x_min":0,"x_max":0,"o":"m 996 947 b 1085 1013 996 1000 1025 1013 b 1172 947 1143 1013 1172 1000 l 1172 242 b 779 0 1172 81 1040 0 l 446 0 b 53 242 185 0 53 81 l 53 543 b 446 785 53 706 185 785 l 996 785 m 451 644 b 229 543 296 644 229 600 l 229 242 b 451 140 229 186 296 140 l 774 140 b 996 242 929 140 996 186 l 996 644 m 1418 879 b 1324 824 1411 836 1386 824 b 1232 874 1260 824 1232 836 b 1238 918 1232 885 1235 901 l 1258 1040 b 1354 1096 1265 1083 1290 1096 b 1443 1042 1418 1096 1443 1083 b 1440 1010 1443 1032 1442 1019 "},"Đ":{"ha":1438,"x_min":0,"x_max":0,"o":"m 1385 258 b 974 0 1385 86 1249 0 l 186 0 b 122 65 143 0 122 22 l 122 421 l 68 421 b 14 496 24 421 14 446 b 68 571 14 546 24 571 l 122 571 l 122 943 b 186 1007 122 986 143 1007 l 974 1007 b 1385 749 1249 1007 1385 922 m 307 421 l 307 150 l 968 150 b 1203 258 1131 150 1203 199 l 1203 749 b 968 857 1203 810 1131 857 l 307 857 l 307 571 l 875 571 b 929 496 919 571 929 546 b 875 421 929 446 919 421 "},"đ":{"ha":1232,"x_min":0,"x_max":0,"o":"m 1126 1039 b 1172 975 1164 1039 1172 1017 l 1172 242 b 779 0 1172 81 1040 0 l 446 0 b 53 242 185 0 53 81 l 53 543 b 446 785 53 706 185 785 l 996 785 l 996 911 l 600 911 b 554 975 561 911 554 932 b 600 1039 554 1017 561 1039 m 451 644 b 229 543 296 644 229 600 l 229 242 b 451 140 229 186 296 140 l 774 140 b 996 242 929 140 996 186 l 996 644 "},"Ē":{"ha":1239,"x_min":0,"x_max":0,"o":"m 236 421 l 236 258 b 469 150 236 199 307 150 l 1133 150 b 1188 75 1178 150 1188 125 b 1133 0 1188 26 1178 0 l 464 0 b 53 258 190 0 53 86 l 53 749 b 464 1007 53 922 190 1007 l 671 1007 b 724 932 714 1007 724 982 b 671 857 724 882 714 857 l 469 857 b 236 749 307 857 236 810 l 236 571 l 1138 571 b 1192 496 1182 571 1192 546 b 1138 421 1192 446 1182 421 m 840 1261 b 886 1197 878 1261 886 1239 b 840 1133 886 1154 878 1133 l 314 1133 b 268 1197 275 1133 268 1154 b 314 1261 268 1239 275 1261 "},"ē":{"ha":1201,"x_min":0,"x_max":0,"o":"m 229 313 l 229 242 b 451 140 229 186 296 140 l 611 140 b 661 71 653 140 661 117 b 611 0 661 25 653 0 l 446 0 b 53 242 185 0 53 81 l 53 543 b 446 785 53 706 185 785 l 767 785 b 1160 543 1044 785 1160 706 l 1160 383 b 1076 313 1160 329 1147 313 m 229 450 l 983 450 l 983 543 b 761 644 983 607 917 644 l 451 644 b 229 543 296 644 229 600 m 864 1039 b 910 975 901 1039 910 1017 b 864 911 910 932 901 911 l 338 911 b 292 975 299 911 292 932 b 338 1039 292 1017 299 1039 "},"Ĕ":{"ha":1239,"x_min":0,"x_max":0,"o":"m 236 421 l 236 258 b 469 150 236 199 307 150 l 1133 150 b 1188 75 1178 150 1188 125 b 1133 0 1188 26 1178 0 l 464 0 b 53 258 190 0 53 86 l 53 749 b 464 1007 53 922 190 1007 l 671 1007 b 724 932 714 1007 724 982 b 671 857 724 882 714 857 l 469 857 b 236 749 307 857 236 810 l 236 571 l 1138 571 b 1192 496 1182 571 1192 546 b 1138 421 1192 446 1182 421 m 578 1086 b 260 1311 419 1086 260 1172 b 347 1375 260 1360 279 1375 b 432 1338 388 1375 417 1369 b 578 1215 458 1282 490 1215 b 724 1338 665 1215 697 1282 b 808 1375 739 1369 768 1375 b 896 1311 876 1375 896 1360 b 578 1086 896 1172 736 1086 "},"ĕ":{"ha":1201,"x_min":0,"x_max":0,"o":"m 229 313 l 229 242 b 451 140 229 186 296 140 l 611 140 b 661 71 653 140 661 117 b 611 0 661 25 653 0 l 446 0 b 53 242 185 0 53 81 l 53 543 b 446 785 53 706 185 785 l 767 785 b 1160 543 1044 785 1160 706 l 1160 383 b 1076 313 1160 329 1147 313 m 229 450 l 983 450 l 983 543 b 761 644 983 607 917 644 l 451 644 b 229 543 296 644 229 600 m 600 864 b 282 1089 442 864 282 950 b 369 1153 282 1138 301 1153 b 454 1115 410 1153 439 1147 b 600 993 481 1060 513 993 b 746 1115 688 993 719 1060 b 831 1153 761 1147 790 1153 b 918 1089 899 1153 918 1138 b 600 864 918 950 758 864 "},"Ė":{"ha":1239,"x_min":0,"x_max":0,"o":"m 236 421 l 236 258 b 469 150 236 199 307 150 l 1133 150 b 1188 75 1178 150 1188 125 b 1133 0 1188 26 1178 0 l 464 0 b 53 258 190 0 53 86 l 53 749 b 464 1007 53 922 190 1007 l 671 1007 b 724 932 714 1007 724 982 b 671 857 724 882 714 857 l 469 857 b 236 749 307 857 236 810 l 236 571 l 1138 571 b 1192 496 1182 571 1192 546 b 1138 421 1192 446 1182 421 m 468 1190 b 578 1276 468 1250 500 1276 b 688 1190 656 1276 688 1250 b 578 1104 688 1131 656 1104 b 468 1190 500 1104 468 1131 "},"ė":{"ha":1201,"x_min":0,"x_max":0,"o":"m 229 313 l 229 242 b 451 140 229 186 296 140 l 611 140 b 661 71 653 140 661 117 b 611 0 661 25 653 0 l 446 0 b 53 242 185 0 53 81 l 53 543 b 446 785 53 706 185 785 l 767 785 b 1160 543 1044 785 1160 706 l 1160 383 b 1076 313 1160 329 1147 313 m 229 450 l 983 450 l 983 543 b 761 644 983 607 917 644 l 451 644 b 229 543 296 644 229 600 m 490 968 b 600 1054 490 1028 522 1054 b 710 968 678 1054 710 1028 b 600 882 710 908 678 882 b 490 968 522 882 490 908 "},"Ę":{"ha":1239,"x_min":0,"x_max":0,"o":"m 1147 -161 b 1194 -225 1186 -161 1194 -183 b 1147 -292 1194 -268 1186 -292 l 939 -292 b 782 -186 813 -292 782 -228 l 782 -153 b 1018 0 782 -76 833 -36 l 464 0 b 53 258 190 0 53 86 l 53 749 b 464 1007 53 922 190 1007 l 671 1007 b 724 932 714 1007 724 982 b 671 857 724 882 714 857 l 469 857 b 236 749 307 857 236 810 l 236 571 l 1138 571 b 1192 496 1182 571 1192 546 b 1138 421 1192 446 1182 421 l 236 421 l 236 258 b 469 150 236 199 307 150 l 1133 150 b 1188 81 1176 150 1188 125 b 1110 -21 1188 21 1167 -3 b 946 -108 990 -58 946 -74 l 946 -129 b 983 -161 946 -154 954 -161 l 1147 -161 "},"ę":{"ha":1201,"x_min":0,"x_max":0,"o":"m 614 -161 b 661 -225 653 -161 661 -183 b 614 -292 661 -268 653 -292 l 406 -292 b 249 -186 279 -292 249 -228 l 249 -153 b 485 0 249 -76 300 -36 l 446 0 b 53 242 185 0 53 81 l 53 543 b 446 785 53 706 185 785 l 767 785 b 1160 543 1044 785 1160 706 l 1160 383 b 1076 313 1160 329 1147 313 l 229 313 l 229 242 b 451 140 229 186 296 140 l 611 140 b 661 75 651 140 661 117 b 576 -21 661 13 639 -1 b 413 -108 456 -60 413 -75 l 413 -129 b 450 -161 413 -154 421 -161 l 614 -161 m 229 450 l 983 450 l 983 543 b 761 644 983 607 917 644 l 451 644 b 229 543 296 644 229 600 "},"Ě":{"ha":1239,"x_min":0,"x_max":0,"o":"m 236 421 l 236 258 b 469 150 236 199 307 150 l 1133 150 b 1188 75 1178 150 1188 125 b 1133 0 1188 26 1178 0 l 464 0 b 53 258 190 0 53 86 l 53 749 b 464 1007 53 922 190 1007 l 671 1007 b 724 932 714 1007 724 982 b 671 857 724 882 714 857 l 469 857 b 236 749 307 857 236 810 l 236 571 l 1138 571 b 1192 496 1182 571 1192 546 b 1138 421 1192 446 1182 421 m 665 1347 b 742 1375 682 1368 714 1375 b 831 1326 789 1375 831 1356 b 819 1300 831 1319 828 1310 l 667 1119 b 578 1086 649 1097 622 1086 b 489 1119 533 1086 507 1097 l 336 1300 b 325 1326 328 1310 325 1319 b 414 1375 325 1356 367 1375 b 490 1347 442 1375 474 1368 l 578 1240 "},"ě":{"ha":1201,"x_min":0,"x_max":0,"o":"m 229 313 l 229 242 b 451 140 229 186 296 140 l 611 140 b 661 71 653 140 661 117 b 611 0 661 25 653 0 l 446 0 b 53 242 185 0 53 81 l 53 543 b 446 785 53 706 185 785 l 767 785 b 1160 543 1044 785 1160 706 l 1160 383 b 1076 313 1160 329 1147 313 m 229 450 l 983 450 l 983 543 b 761 644 983 607 917 644 l 451 644 b 229 543 296 644 229 600 m 688 1125 b 764 1153 704 1146 736 1153 b 853 1104 811 1153 853 1133 b 842 1078 853 1097 850 1088 l 689 897 b 600 864 671 875 644 864 b 511 897 556 864 529 875 l 358 1078 b 347 1104 350 1088 347 1097 b 436 1153 347 1133 389 1153 b 513 1125 464 1153 496 1146 l 600 1018 "},"Ğ":{"ha":1347,"x_min":0,"x_max":0,"o":"m 1297 258 b 885 0 1297 82 1153 0 l 464 0 b 53 258 190 0 53 86 l 53 749 b 464 1007 53 922 190 1007 l 660 1007 b 714 932 704 1007 714 982 b 660 857 714 882 704 857 l 469 857 b 236 749 307 857 236 810 l 236 258 b 469 150 236 199 307 150 l 879 150 b 1111 258 1042 150 1111 199 l 1111 506 b 1203 571 1111 560 1142 571 b 1297 506 1264 571 1297 560 m 632 1086 b 314 1311 474 1086 314 1172 b 401 1375 314 1360 333 1375 b 486 1338 442 1375 471 1369 b 632 1215 513 1282 544 1215 b 778 1338 719 1215 751 1282 b 863 1375 793 1369 822 1375 b 950 1311 931 1375 950 1360 b 632 1086 950 1172 790 1086 "},"ğ":{"ha":1217,"x_min":0,"x_max":0,"o":"m 606 -228 b 556 -157 564 -228 556 -203 b 606 -87 556 -111 564 -87 l 797 -87 b 981 13 935 -87 981 -51 l 981 19 l 446 19 b 53 261 185 19 53 99 l 53 543 b 446 785 53 704 185 785 l 764 785 b 1157 543 1025 785 1157 704 l 1157 13 b 797 -228 1157 -147 1029 -228 m 981 157 l 981 543 b 758 644 981 599 914 644 l 451 644 b 229 543 296 644 229 599 l 229 258 b 451 157 229 201 296 157 m 608 864 b 290 1089 450 864 290 950 b 378 1153 290 1138 310 1153 b 463 1115 418 1153 447 1147 b 608 993 489 1060 521 993 b 754 1115 696 993 728 1060 b 839 1153 769 1147 799 1153 b 926 1089 907 1153 926 1138 b 608 864 926 950 767 864 "},"Ġ":{"ha":1347,"x_min":0,"x_max":0,"o":"m 1297 258 b 885 0 1297 82 1153 0 l 464 0 b 53 258 190 0 53 86 l 53 749 b 464 1007 53 922 190 1007 l 660 1007 b 714 932 704 1007 714 982 b 660 857 714 882 704 857 l 469 857 b 236 749 307 857 236 810 l 236 258 b 469 150 236 199 307 150 l 879 150 b 1111 258 1042 150 1111 199 l 1111 506 b 1203 571 1111 560 1142 571 b 1297 506 1264 571 1297 560 m 522 1190 b 632 1276 522 1250 554 1276 b 742 1190 710 1276 742 1250 b 632 1104 742 1131 710 1104 b 522 1190 554 1104 522 1131 "},"ġ":{"ha":1217,"x_min":0,"x_max":0,"o":"m 606 -228 b 556 -157 564 -228 556 -203 b 606 -87 556 -111 564 -87 l 797 -87 b 981 13 935 -87 981 -51 l 981 19 l 446 19 b 53 261 185 19 53 99 l 53 543 b 446 785 53 704 185 785 l 764 785 b 1157 543 1025 785 1157 704 l 1157 13 b 797 -228 1157 -147 1029 -228 m 981 157 l 981 543 b 758 644 981 599 914 644 l 451 644 b 229 543 296 644 229 599 l 229 258 b 451 157 229 201 296 157 m 499 968 b 608 1054 499 1028 531 1054 b 718 968 686 1054 718 1028 b 608 882 718 908 686 882 b 499 968 531 882 499 908 "},"Ģ":{"ha":1347,"x_min":0,"x_max":0,"o":"m 1297 258 b 885 0 1297 82 1153 0 l 464 0 b 53 258 190 0 53 86 l 53 749 b 464 1007 53 922 190 1007 l 660 1007 b 714 932 704 1007 714 982 b 660 857 714 882 704 857 l 469 857 b 236 749 307 857 236 810 l 236 258 b 469 150 236 199 307 150 l 879 150 b 1111 258 1042 150 1111 199 l 1111 506 b 1203 571 1111 560 1142 571 b 1297 506 1264 571 1297 560 m 754 -236 b 660 -292 747 -279 722 -292 b 568 -242 596 -292 568 -279 b 574 -197 568 -231 571 -214 l 594 -75 b 690 -19 601 -32 626 -19 b 779 -74 754 -19 779 -32 b 776 -106 779 -83 778 -96 "},"ģ":{"ha":1217,"x_min":0,"x_max":0,"o":"m 606 -228 b 556 -157 564 -228 556 -203 b 606 -87 556 -111 564 -87 l 797 -87 b 981 13 935 -87 981 -51 l 981 19 l 446 19 b 53 261 185 19 53 99 l 53 543 b 446 785 53 704 185 785 l 764 785 b 1157 543 1025 785 1157 704 l 1157 13 b 797 -228 1157 -147 1029 -228 m 981 157 l 981 543 b 758 644 981 599 914 644 l 451 644 b 229 543 296 644 229 599 l 229 258 b 451 157 229 201 296 157 m 738 879 b 643 824 731 836 706 824 b 551 874 579 824 551 836 b 557 918 551 885 554 901 l 578 1040 b 674 1096 585 1083 610 1096 b 763 1042 738 1096 763 1083 b 760 1010 763 1032 761 1019 "},"Ħ":{"ha":1394,"x_min":0,"x_max":0,"o":"m 250 857 l 1144 857 l 1144 947 b 1238 1013 1144 1000 1176 1013 b 1329 947 1297 1013 1329 1000 l 1329 60 b 1238 -6 1329 7 1297 -6 b 1144 60 1176 -6 1144 7 l 1144 421 l 250 421 l 250 60 b 157 -6 250 7 218 -6 b 65 60 97 -6 65 7 l 65 947 b 157 1013 65 1000 97 1013 b 250 947 218 1013 250 1000 m 1144 571 l 1144 729 l 250 729 l 250 571 "},"ħ":{"ha":1228,"x_min":0,"x_max":0,"o":"m 638 1039 b 683 975 675 1039 683 1017 b 638 911 683 932 675 911 l 242 911 l 242 785 l 775 785 b 1168 543 1036 785 1168 706 l 1168 60 b 1079 -6 1168 7 1139 -6 b 992 60 1021 -6 992 7 l 992 543 b 769 644 992 600 925 644 l 242 644 l 242 60 b 153 -6 242 7 213 -6 b 65 60 94 -6 65 7 l 65 975 b 111 1039 65 1017 72 1039 "},"Ī":{"ha":463,"x_min":0,"x_max":0,"o":"m 324 60 b 231 -6 324 7 292 -6 b 139 60 171 -6 139 7 l 139 947 b 231 1013 139 1000 171 1013 b 324 947 292 1013 324 1000 m 494 1261 b 540 1197 532 1261 540 1239 b 494 1133 540 1154 532 1133 l -32 1133 b -78 1197 -71 1133 -78 1154 b -32 1261 -78 1239 -71 1261 "},"ī":{"ha":604,"x_min":0,"x_max":0,"o":"m 390 60 b 301 -6 390 7 361 -6 b 214 60 243 -6 214 7 l 214 725 b 301 790 214 778 243 790 b 390 725 361 790 390 778 m 565 1039 b 611 975 603 1039 611 1017 b 565 911 611 932 603 911 l 39 911 b -7 975 0 911 -7 932 b 39 1039 -7 1017 0 1039 "},"Ĭ":{"ha":485,"x_min":0,"x_max":0,"o":"m 335 60 b 242 -6 335 7 303 -6 b 150 60 182 -6 150 7 l 150 947 b 242 1013 150 1000 182 1013 b 335 947 303 1013 335 1000 m 243 1086 b -75 1311 85 1086 -75 1172 b 13 1375 -75 1360 -56 1375 b 97 1338 53 1375 82 1369 b 243 1215 124 1282 156 1215 b 389 1338 331 1215 363 1282 b 474 1375 404 1369 433 1375 b 561 1311 542 1375 561 1360 b 243 1086 561 1172 401 1086 "},"ĭ":{"ha":618,"x_min":0,"x_max":0,"o":"m 397 60 b 308 -6 397 7 368 -6 b 221 60 250 -6 221 7 l 221 725 b 308 790 221 778 250 790 b 397 725 368 790 397 778 m 310 864 b -8 1089 151 864 -8 950 b 79 1153 -8 1138 11 1153 b 164 1115 119 1153 149 1147 b 310 993 190 1060 222 993 b 456 1115 397 993 429 1060 b 540 1153 471 1147 500 1153 b 628 1089 608 1153 628 1138 b 310 864 628 950 468 864 "},"Į":{"ha":400,"x_min":0,"x_max":0,"o":"m 293 -161 b 340 -225 332 -161 340 -183 b 293 -292 340 -268 332 -292 l 85 -292 b -72 -186 -42 -292 -72 -228 l -72 -153 b 178 4 -72 -76 -21 -36 b 150 60 161 14 150 33 l 150 947 b 242 1013 150 1000 182 1013 b 335 947 303 1013 335 1000 l 335 60 b 256 -21 335 11 294 -8 b 92 -108 136 -58 92 -74 l 92 -129 b 129 -161 92 -154 100 -161 l 293 -161 "},"į":{"ha":400,"x_min":0,"x_max":0,"o":"m 294 -161 b 342 -225 333 -161 342 -183 b 294 -292 342 -268 333 -292 l 86 -292 b -71 -186 -40 -292 -71 -228 l -71 -153 b 182 4 -71 -76 -19 -36 b 158 60 165 14 158 31 l 158 715 b 246 781 158 768 188 781 b 335 715 306 781 335 768 l 335 60 b 257 -21 335 11 296 -8 b 93 -108 138 -58 93 -74 l 93 -129 b 131 -161 93 -154 101 -161 l 294 -161 m 136 926 b 246 1013 136 986 168 1013 b 356 926 324 1013 356 986 b 246 840 356 867 324 840 b 136 926 168 840 136 867 "},"İ":{"ha":315,"x_min":0,"x_max":0,"o":"m 250 60 b 157 -6 250 7 218 -6 b 65 60 97 -6 65 7 l 65 947 b 157 1013 65 1000 97 1013 b 250 947 218 1013 250 1000 m 49 1190 b 158 1276 49 1250 81 1276 b 268 1190 236 1276 268 1250 b 158 1104 268 1131 236 1104 b 49 1190 81 1104 49 1131 "},"ı":{"ha":307,"x_min":0,"x_max":0,"o":"m 242 60 b 153 -6 242 7 213 -6 b 65 60 94 -6 65 7 l 65 725 b 153 790 65 778 94 790 b 242 725 213 790 242 778 "},"Ĳ":{"ha":625,"x_min":0,"x_max":0,"o":"m 250 99 b 157 33 250 46 218 33 b 65 99 97 33 65 46 l 65 947 b 157 1013 65 1000 97 1013 b 250 947 218 1013 250 1000 m 118 -228 b 65 -151 74 -228 65 -201 b 118 -78 65 -103 74 -78 l 149 -78 b 381 31 311 -78 381 -29 l 381 947 b 474 1013 381 1000 413 1013 b 565 947 533 1013 565 1000 l 565 31 b 153 -228 565 -142 428 -228 "},"ĳ":{"ha":638,"x_min":0,"x_max":0,"o":"m 242 60 b 153 -6 242 7 213 -6 b 65 60 94 -6 65 7 l 65 715 b 153 781 65 768 94 781 b 242 715 213 781 242 768 m 43 926 b 153 1013 43 986 75 1013 b 263 926 231 1013 263 986 b 153 840 263 867 231 840 b 43 926 75 840 43 867 m 374 926 b 483 1013 374 986 406 1013 b 593 926 561 1013 593 986 b 483 840 593 867 561 840 b 374 926 406 840 374 867 m 99 -228 b 49 -157 57 -228 49 -203 b 99 -87 49 -111 57 -87 l 213 -87 b 396 13 350 -87 396 -51 l 396 715 b 485 781 396 768 425 781 b 572 715 543 781 572 768 l 572 13 b 213 -228 572 -147 444 -228 "},"Ķ":{"ha":1221,"x_min":0,"x_max":0,"o":"m 250 599 l 982 993 b 1094 1013 1008 1007 1032 1013 b 1169 949 1135 1013 1169 992 b 1125 885 1169 922 1156 900 l 383 511 l 1150 122 b 1194 58 1181 107 1194 85 b 1119 -6 1194 15 1160 -6 b 1007 14 1057 -6 1033 0 l 250 415 l 250 60 b 157 -6 250 7 218 -6 b 65 60 97 -6 65 7 l 65 947 b 157 1013 65 1000 97 1013 b 250 947 218 1013 250 1000 m 649 -236 b 554 -292 642 -279 617 -292 b 463 -242 490 -292 463 -279 b 468 -197 463 -231 465 -214 l 489 -75 b 585 -19 496 -32 521 -19 b 674 -74 649 -19 674 -32 b 671 -106 674 -83 672 -96 "},"ķ":{"ha":1024,"x_min":0,"x_max":0,"o":"m 242 475 l 811 775 b 918 790 835 788 861 790 b 986 739 956 790 986 774 b 947 689 986 714 969 700 l 389 396 l 957 108 b 997 50 983 94 997 76 b 900 -6 997 10 965 -6 b 793 15 840 -6 808 7 l 242 307 l 242 60 b 153 -6 242 7 213 -6 b 65 60 94 -6 65 7 l 65 947 b 153 1013 65 1000 94 1013 b 242 947 213 1013 242 1000 m 550 -236 b 456 -292 543 -279 518 -292 b 364 -242 392 -292 364 -279 b 369 -197 364 -231 367 -214 l 390 -75 b 486 -19 397 -32 422 -19 b 575 -74 550 -19 575 -32 b 572 -106 575 -83 574 -96 "},"Ĺ":{"ha":1226,"x_min":0,"x_max":0,"o":"m 471 0 b 60 258 197 0 60 86 l 60 947 b 151 1013 60 1000 92 1013 b 244 947 213 1013 244 1000 l 244 258 b 476 150 244 199 314 150 l 1157 150 b 1210 76 1201 150 1210 125 b 1157 0 1210 26 1201 0 m 329 1104 b 225 1086 304 1092 283 1086 b 156 1144 188 1086 156 1106 b 197 1204 156 1169 168 1189 l 479 1357 b 583 1375 504 1369 525 1375 b 653 1315 621 1375 653 1356 b 611 1257 653 1292 640 1272 "},"ĺ":{"ha":307,"x_min":0,"x_max":0,"o":"m 242 60 b 153 -6 242 7 213 -6 b 65 60 94 -6 65 7 l 65 947 b 153 1013 65 1000 94 1013 b 242 947 213 1013 242 1000 m 149 1104 b 44 1086 124 1092 103 1086 b -25 1144 7 1086 -25 1106 b 17 1204 -25 1169 -12 1189 l 299 1357 b 403 1375 324 1369 344 1375 b 472 1315 440 1375 472 1356 b 431 1257 472 1292 460 1272 "},"Ļ":{"ha":1226,"x_min":0,"x_max":0,"o":"m 471 0 b 60 258 197 0 60 86 l 60 947 b 151 1013 60 1000 92 1013 b 244 947 213 1013 244 1000 l 244 258 b 476 150 244 199 314 150 l 1157 150 b 1210 76 1201 150 1210 125 b 1157 0 1210 26 1201 0 m 693 -236 b 599 -292 686 -279 661 -292 b 507 -242 535 -292 507 -279 b 513 -197 507 -231 510 -214 l 533 -75 b 629 -19 540 -32 565 -19 b 718 -74 693 -19 718 -32 b 715 -106 718 -83 717 -96 "},"ļ":{"ha":307,"x_min":0,"x_max":0,"o":"m 242 60 b 153 -6 242 7 213 -6 b 65 60 94 -6 65 7 l 65 947 b 153 1013 65 1000 94 1013 b 242 947 213 1013 242 1000 m 235 -236 b 140 -292 228 -279 203 -292 b 49 -242 76 -292 49 -279 b 54 -197 49 -231 51 -214 l 75 -75 b 171 -19 82 -32 107 -19 b 260 -74 235 -19 260 -32 b 257 -106 260 -83 258 -96 "},"Ľ":{"ha":1226,"x_min":0,"x_max":0,"o":"m 471 0 b 60 258 197 0 60 86 l 60 947 b 151 1013 60 1000 92 1013 b 244 947 213 1013 244 1000 l 244 258 b 476 150 244 199 314 150 l 1157 150 b 1210 76 1201 150 1210 125 b 1157 0 1210 26 1201 0 m 682 879 b 588 824 675 836 650 824 b 496 874 524 824 496 836 b 501 918 496 885 499 901 l 522 1040 b 618 1096 529 1083 554 1096 b 707 1042 682 1096 707 1083 b 704 1010 707 1032 706 1019 "},"ľ":{"ha":518,"x_min":0,"x_max":0,"o":"m 242 60 b 153 -6 242 7 213 -6 b 65 60 94 -6 65 7 l 65 947 b 153 1013 65 1000 94 1013 b 242 947 213 1013 242 1000 m 493 879 b 399 824 486 836 461 824 b 307 874 335 824 307 836 b 313 918 307 885 310 901 l 333 1040 b 429 1096 340 1083 365 1096 b 518 1042 493 1096 518 1083 b 515 1010 518 1032 517 1019 "},"Ŀ":{"ha":1226,"x_min":0,"x_max":0,"o":"m 471 0 b 60 258 197 0 60 86 l 60 947 b 151 1013 60 1000 92 1013 b 244 947 213 1013 244 1000 l 244 258 b 476 150 244 199 314 150 l 1157 150 b 1210 76 1201 150 1210 125 b 1157 0 1210 26 1201 0 m 399 531 b 508 617 399 590 431 617 b 618 531 586 617 618 590 b 508 444 618 471 586 444 b 399 531 431 444 399 471 "},"ŀ":{"ha":500,"x_min":0,"x_max":0,"o":"m 242 60 b 153 -6 242 7 213 -6 b 65 60 94 -6 65 7 l 65 947 b 153 1013 65 1000 94 1013 b 242 947 213 1013 242 1000 m 288 531 b 397 617 288 590 319 617 b 507 531 475 617 507 590 b 397 444 507 471 475 444 b 288 531 319 444 288 471 "},"Ł":{"ha":1281,"x_min":0,"x_max":0,"o":"m 114 654 l 114 947 b 206 1013 114 1000 146 1013 b 299 947 267 1013 299 1000 l 299 732 l 618 865 b 711 881 639 874 664 881 b 775 832 750 881 775 864 b 740 782 775 807 765 792 l 299 597 l 299 258 b 531 150 299 199 368 150 l 1211 150 b 1264 76 1256 150 1264 125 b 1211 0 1264 26 1256 0 l 525 0 b 114 258 251 0 114 86 l 114 528 b 67 525 100 525 86 525 b 4 574 29 525 4 542 b 39 624 4 599 14 614 "},"ł":{"ha":614,"x_min":0,"x_max":0,"o":"m 218 690 l 218 947 b 306 1013 218 1000 247 1013 b 394 947 365 1013 394 1000 l 394 764 l 447 786 b 540 801 468 794 493 801 b 604 753 579 801 604 785 b 569 703 604 728 594 713 l 394 629 l 394 60 b 306 -6 394 7 365 -6 b 218 60 247 -6 218 7 l 218 556 l 167 535 b 72 519 146 526 121 519 b 10 568 35 519 10 536 b 44 618 10 593 19 608 "},"Ń":{"ha":1385,"x_min":0,"x_max":0,"o":"m 1224 -6 b 1114 42 1174 -6 1163 1 l 250 769 l 250 60 b 157 -6 250 7 218 -6 b 65 60 97 -6 65 7 l 65 947 b 153 1013 65 999 96 1013 b 283 961 214 1013 240 997 l 1135 236 l 1135 947 b 1226 1013 1135 1000 1167 1013 b 1319 947 1288 1013 1319 1000 l 1319 60 b 1224 -6 1319 6 1288 -6 m 686 1104 b 582 1086 661 1092 640 1086 b 513 1144 544 1086 513 1106 b 554 1204 513 1169 525 1189 l 836 1357 b 940 1375 861 1369 882 1375 b 1010 1315 978 1375 1010 1356 b 968 1257 1010 1292 997 1272 "},"ń":{"ha":1208,"x_min":0,"x_max":0,"o":"m 147 -6 b 60 60 89 -6 60 7 l 60 543 b 453 785 60 706 192 785 l 756 785 b 1149 543 1017 785 1149 706 l 1149 60 b 1060 -6 1149 7 1119 -6 b 972 60 1001 -6 972 7 l 972 543 b 750 644 972 600 906 644 l 458 644 b 236 543 303 644 236 600 l 236 60 b 147 -6 236 7 207 -6 m 599 882 b 494 864 574 869 553 864 b 425 922 457 864 425 883 b 467 982 425 947 438 967 l 749 1135 b 853 1153 774 1147 794 1153 b 922 1093 890 1153 922 1133 b 881 1035 922 1069 910 1050 "},"Ņ":{"ha":1385,"x_min":0,"x_max":0,"o":"m 1224 -6 b 1114 42 1174 -6 1163 1 l 250 769 l 250 60 b 157 -6 250 7 218 -6 b 65 60 97 -6 65 7 l 65 947 b 153 1013 65 999 96 1013 b 283 961 214 1013 240 997 l 1135 236 l 1135 947 b 1226 1013 1135 1000 1167 1013 b 1319 947 1288 1013 1319 1000 l 1319 60 b 1224 -6 1319 6 1288 -6 m 772 -236 b 678 -292 765 -279 740 -292 b 586 -242 614 -292 586 -279 b 592 -197 586 -231 589 -214 l 613 -75 b 708 -19 619 -32 644 -19 b 797 -74 772 -19 797 -32 b 794 -106 797 -83 796 -96 "},"ņ":{"ha":1208,"x_min":0,"x_max":0,"o":"m 147 -6 b 60 60 89 -6 60 7 l 60 543 b 453 785 60 706 192 785 l 756 785 b 1149 543 1017 785 1149 706 l 1149 60 b 1060 -6 1149 7 1119 -6 b 972 60 1001 -6 972 7 l 972 543 b 750 644 972 600 906 644 l 458 644 b 236 543 303 644 236 600 l 236 60 b 147 -6 236 7 207 -6 m 685 -236 b 590 -292 678 -279 653 -292 b 499 -242 526 -292 499 -279 b 504 -197 499 -231 501 -214 l 525 -75 b 621 -19 532 -32 557 -19 b 710 -74 685 -19 710 -32 b 707 -106 710 -83 708 -96 "},"Ň":{"ha":1385,"x_min":0,"x_max":0,"o":"m 1224 -6 b 1114 42 1174 -6 1163 1 l 250 769 l 250 60 b 157 -6 250 7 218 -6 b 65 60 97 -6 65 7 l 65 947 b 153 1013 65 999 96 1013 b 283 961 214 1013 240 997 l 1135 236 l 1135 947 b 1226 1013 1135 1000 1167 1013 b 1319 947 1288 1013 1319 1000 l 1319 60 b 1224 -6 1319 6 1288 -6 m 779 1347 b 856 1375 796 1368 828 1375 b 944 1326 903 1375 944 1356 b 933 1300 944 1319 942 1310 l 781 1119 b 692 1086 763 1097 736 1086 b 603 1119 647 1086 621 1097 l 450 1300 b 439 1326 442 1310 439 1319 b 528 1375 439 1356 481 1375 b 604 1347 556 1375 588 1368 l 692 1240 "},"ň":{"ha":1208,"x_min":0,"x_max":0,"o":"m 147 -6 b 60 60 89 -6 60 7 l 60 543 b 453 785 60 706 192 785 l 756 785 b 1149 543 1017 785 1149 706 l 1149 60 b 1060 -6 1149 7 1119 -6 b 972 60 1001 -6 972 7 l 972 543 b 750 644 972 600 906 644 l 458 644 b 236 543 303 644 236 600 l 236 60 b 147 -6 236 7 207 -6 m 692 1125 b 768 1153 708 1146 740 1153 b 857 1104 815 1153 857 1133 b 846 1078 857 1097 854 1088 l 693 897 b 604 864 675 875 649 864 b 515 897 560 864 533 875 l 363 1078 b 351 1104 354 1088 351 1097 b 440 1153 351 1133 393 1153 b 517 1125 468 1153 500 1146 l 604 1018 "},"Ŋ":{"ha":1385,"x_min":0,"x_max":0,"o":"m 838 -228 b 788 -157 796 -228 788 -203 b 838 -87 788 -111 796 -87 l 951 -87 b 1135 13 1089 -87 1135 -51 l 1135 25 l 250 769 l 250 60 b 157 -6 250 7 218 -6 b 65 60 97 -6 65 7 l 65 947 b 153 1013 65 999 96 1013 b 283 961 214 1013 240 997 l 1135 236 l 1135 947 b 1226 1013 1135 1000 1167 1013 b 1319 947 1288 1013 1319 1000 l 1319 13 b 951 -228 1319 -147 1183 -228 "},"ŋ":{"ha":1208,"x_min":0,"x_max":0,"o":"m 675 -228 b 625 -157 633 -228 625 -203 b 675 -87 625 -111 633 -87 l 789 -87 b 972 13 926 -87 972 -51 l 972 543 b 750 644 972 600 906 644 l 458 644 b 236 543 303 644 236 600 l 236 60 b 147 -6 236 7 207 -6 b 60 60 89 -6 60 7 l 60 543 b 453 785 60 706 192 785 l 756 785 b 1149 543 1017 785 1149 706 l 1149 13 b 789 -228 1149 -147 1021 -228 "},"Ō":{"ha":1332,"x_min":0,"x_max":0,"o":"m 464 0 b 53 258 190 0 53 86 l 53 749 b 464 1007 53 922 190 1007 l 868 1007 b 1279 749 1142 1007 1279 922 l 1279 258 b 868 0 1279 86 1142 0 m 863 150 b 1096 258 1025 150 1096 199 l 1096 749 b 863 857 1096 810 1025 857 l 469 857 b 236 749 307 857 236 810 l 236 258 b 469 150 236 199 307 150 l 863 150 m 929 1261 b 975 1197 967 1261 975 1239 b 929 1133 975 1154 967 1133 l 403 1133 b 357 1197 364 1133 357 1154 b 403 1261 357 1239 364 1261 "},"ō":{"ha":1194,"x_min":0,"x_max":0,"o":"m 53 543 b 446 785 53 706 185 785 l 749 785 b 1142 543 1010 785 1142 706 l 1142 242 b 749 0 1142 81 1010 0 l 446 0 b 53 242 185 0 53 81 l 53 543 m 965 543 b 743 644 965 600 899 644 l 451 644 b 229 543 296 644 229 600 l 229 242 b 451 140 229 186 296 140 l 743 140 b 965 242 899 140 965 186 m 860 1039 b 906 975 897 1039 906 1017 b 860 911 906 932 897 911 l 333 911 b 288 975 294 911 288 932 b 333 1039 288 1017 294 1039 "},"Ŏ":{"ha":1332,"x_min":0,"x_max":0,"o":"m 464 0 b 53 258 190 0 53 86 l 53 749 b 464 1007 53 922 190 1007 l 868 1007 b 1279 749 1142 1007 1279 922 l 1279 258 b 868 0 1279 86 1142 0 m 863 150 b 1096 258 1025 150 1096 199 l 1096 749 b 863 857 1096 810 1025 857 l 469 857 b 236 749 307 857 236 810 l 236 258 b 469 150 236 199 307 150 l 863 150 m 665 1086 b 347 1311 507 1086 347 1172 b 435 1375 347 1360 367 1375 b 519 1338 475 1375 504 1369 b 665 1215 546 1282 578 1215 b 811 1338 753 1215 785 1282 b 896 1375 826 1369 856 1375 b 983 1311 964 1375 983 1360 b 665 1086 983 1172 824 1086 "},"ŏ":{"ha":1194,"x_min":0,"x_max":0,"o":"m 53 543 b 446 785 53 706 185 785 l 749 785 b 1142 543 1010 785 1142 706 l 1142 242 b 749 0 1142 81 1010 0 l 446 0 b 53 242 185 0 53 81 l 53 543 m 965 543 b 743 644 965 600 899 644 l 451 644 b 229 543 296 644 229 600 l 229 242 b 451 140 229 186 296 140 l 743 140 b 965 242 899 140 965 186 m 597 864 b 279 1089 439 864 279 950 b 367 1153 279 1138 299 1153 b 451 1115 407 1153 436 1147 b 597 993 478 1060 510 993 b 743 1115 685 993 717 1060 b 828 1153 758 1147 788 1153 b 915 1089 896 1153 915 1138 b 597 864 915 950 756 864 "},"Ő":{"ha":1332,"x_min":0,"x_max":0,"o":"m 464 0 b 53 258 190 0 53 86 l 53 749 b 464 1007 53 922 190 1007 l 868 1007 b 1279 749 1142 1007 1279 922 l 1279 258 b 868 0 1279 86 1142 0 m 863 150 b 1096 258 1025 150 1096 199 l 1096 749 b 863 857 1096 810 1025 857 l 469 857 b 236 749 307 857 236 810 l 236 258 b 469 150 236 199 307 150 l 863 150 m 844 1104 b 775 1086 828 1093 804 1086 b 708 1143 728 1086 708 1106 b 742 1204 708 1169 718 1188 l 961 1357 b 1033 1375 981 1369 1011 1375 b 1097 1317 1076 1375 1097 1356 b 1065 1257 1097 1290 1088 1272 m 508 1104 b 426 1086 489 1090 472 1086 b 372 1144 397 1086 372 1106 b 404 1204 372 1169 382 1189 l 625 1357 b 694 1375 642 1368 665 1375 b 761 1315 735 1375 761 1361 b 728 1257 761 1290 753 1274 "},"ő":{"ha":1194,"x_min":0,"x_max":0,"o":"m 53 543 b 446 785 53 706 185 785 l 749 785 b 1142 543 1010 785 1142 706 l 1142 242 b 749 0 1142 81 1010 0 l 446 0 b 53 242 185 0 53 81 l 53 543 m 965 543 b 743 644 965 600 899 644 l 451 644 b 229 543 296 644 229 600 l 229 242 b 451 140 229 186 296 140 l 743 140 b 965 242 899 140 965 186 m 776 882 b 707 864 760 871 736 864 b 640 921 660 864 640 883 b 674 982 640 947 650 965 l 893 1135 b 965 1153 913 1147 943 1153 b 1029 1094 1008 1153 1029 1133 b 997 1035 1029 1068 1019 1050 m 440 882 b 358 864 421 868 404 864 b 304 922 329 864 304 883 b 336 982 304 947 314 967 l 557 1135 b 626 1153 574 1146 597 1153 b 693 1093 667 1153 693 1139 b 660 1035 693 1068 685 1051 "},"Œ":{"ha":2207,"x_min":0,"x_max":0,"o":"m 1460 0 b 1140 72 1315 0 1208 24 b 821 0 1072 24 965 0 l 464 0 b 53 258 190 0 53 86 l 53 749 b 464 1007 53 922 190 1007 l 821 1007 b 1140 935 965 1007 1072 983 b 1460 1007 1208 983 1315 1007 l 1653 1007 b 1706 932 1696 1007 1706 982 b 1653 857 1706 882 1696 857 l 1465 857 b 1232 753 1307 857 1232 813 l 1232 571 l 2106 571 b 2160 496 2150 571 2160 546 b 2106 421 2160 446 2150 421 l 1232 421 l 1232 258 b 1465 150 1232 199 1303 150 l 2101 150 b 2156 75 2146 150 2156 125 b 2101 0 2156 26 2146 0 m 815 150 b 1049 258 978 150 1049 199 l 1049 749 b 815 857 1049 810 978 857 l 469 857 b 236 749 307 857 236 810 l 236 258 b 469 150 236 199 307 150 l 815 150 "},"œ":{"ha":2114,"x_min":0,"x_max":0,"o":"m 1142 313 l 1142 242 b 1364 140 1142 186 1208 140 l 1524 140 b 1574 71 1565 140 1574 117 b 1524 0 1574 25 1565 0 l 1358 0 b 1053 67 1221 0 1118 22 b 749 0 988 22 886 0 l 446 0 b 53 242 185 0 53 81 l 53 543 b 446 785 53 706 185 785 l 749 785 b 1053 718 886 785 988 763 b 1358 785 1118 763 1221 785 l 1679 785 b 2072 543 1957 785 2072 706 l 2072 383 b 1989 313 2072 329 2060 313 m 965 543 b 743 644 965 600 899 644 l 451 644 b 229 543 296 644 229 600 l 229 242 b 451 140 229 186 296 140 l 743 140 b 965 242 899 140 965 186 m 1142 450 l 1896 450 l 1896 543 b 1674 644 1896 607 1829 644 l 1364 644 b 1142 543 1208 644 1142 600 "},"Ŕ":{"ha":1368,"x_min":0,"x_max":0,"o":"m 65 943 b 131 1007 65 986 86 1007 l 911 1007 b 1319 782 1163 1007 1319 918 l 1319 607 b 911 382 1319 471 1163 382 l 856 382 b 553 388 692 382 625 383 l 553 385 b 888 257 613 363 676 342 l 1222 122 b 1267 60 1254 110 1267 90 b 1172 -6 1267 10 1233 -6 b 1063 14 1146 -6 1092 -3 l 250 365 l 250 60 b 157 -6 250 7 218 -6 b 65 60 97 -6 65 7 l 65 943 m 250 857 l 250 529 l 894 529 b 1136 618 1083 529 1136 568 l 1136 768 b 894 857 1136 818 1083 857 m 678 1104 b 574 1086 653 1092 632 1086 b 504 1144 536 1086 504 1106 b 546 1204 504 1169 517 1189 l 828 1357 b 932 1375 853 1369 874 1375 b 1001 1315 969 1375 1001 1356 b 960 1257 1001 1292 989 1272 "},"ŕ":{"ha":608,"x_min":0,"x_max":0,"o":"m 528 785 b 578 714 569 785 578 760 b 528 644 578 668 569 644 l 419 644 b 236 544 282 644 236 608 l 236 60 b 147 -6 236 7 207 -6 b 60 60 89 -6 60 7 l 60 544 b 419 785 60 704 188 785 m 354 882 b 250 864 329 869 308 864 b 181 922 213 864 181 883 b 222 982 181 947 193 967 l 504 1135 b 608 1153 529 1147 550 1153 b 678 1093 646 1153 678 1133 b 636 1035 678 1069 665 1050 "},"Ŗ":{"ha":1368,"x_min":0,"x_max":0,"o":"m 65 943 b 131 1007 65 986 86 1007 l 911 1007 b 1319 782 1163 1007 1319 918 l 1319 607 b 911 382 1319 471 1163 382 l 856 382 b 553 388 692 382 625 383 l 553 385 b 888 257 613 363 676 342 l 1222 122 b 1267 60 1254 110 1267 90 b 1172 -6 1267 10 1233 -6 b 1063 14 1146 -6 1092 -3 l 250 365 l 250 60 b 157 -6 250 7 218 -6 b 65 60 97 -6 65 7 l 65 943 m 250 857 l 250 529 l 894 529 b 1136 618 1083 529 1136 568 l 1136 768 b 894 857 1136 818 1083 857 m 694 -236 b 600 -292 688 -279 663 -292 b 508 -242 536 -292 508 -279 b 514 -197 508 -231 511 -214 l 535 -75 b 631 -19 542 -32 567 -19 b 719 -74 694 -19 719 -32 b 717 -106 719 -83 718 -96 "},"ŗ":{"ha":608,"x_min":0,"x_max":0,"o":"m 528 785 b 578 714 569 785 578 760 b 528 644 578 668 569 644 l 419 644 b 236 544 282 644 236 608 l 236 60 b 147 -6 236 7 207 -6 b 60 60 89 -6 60 7 l 60 544 b 419 785 60 704 188 785 m 201 -236 b 107 -292 194 -279 169 -292 b 15 -242 43 -292 15 -279 b 21 -197 15 -231 18 -214 l 42 -75 b 138 -19 49 -32 74 -19 b 226 -74 201 -19 226 -32 b 224 -106 226 -83 225 -96 "},"Ř":{"ha":1368,"x_min":0,"x_max":0,"o":"m 65 943 b 131 1007 65 986 86 1007 l 911 1007 b 1319 782 1163 1007 1319 918 l 1319 607 b 911 382 1319 471 1163 382 l 856 382 b 553 388 692 382 625 383 l 553 385 b 888 257 613 363 676 342 l 1222 122 b 1267 60 1254 110 1267 90 b 1172 -6 1267 10 1233 -6 b 1063 14 1146 -6 1092 -3 l 250 365 l 250 60 b 157 -6 250 7 218 -6 b 65 60 97 -6 65 7 l 65 943 m 250 857 l 250 529 l 894 529 b 1136 618 1083 529 1136 568 l 1136 768 b 894 857 1136 818 1083 857 m 771 1347 b 847 1375 788 1368 819 1375 b 936 1326 894 1375 936 1356 b 925 1300 936 1319 933 1310 l 772 1119 b 683 1086 754 1097 728 1086 b 594 1119 639 1086 613 1097 l 442 1300 b 431 1326 433 1310 431 1319 b 519 1375 431 1356 472 1375 b 596 1347 547 1375 579 1368 l 683 1240 "},"ř":{"ha":608,"x_min":0,"x_max":0,"o":"m 528 785 b 578 714 569 785 578 760 b 528 644 578 668 569 644 l 419 644 b 236 544 282 644 236 608 l 236 60 b 147 -6 236 7 207 -6 b 60 60 89 -6 60 7 l 60 544 b 419 785 60 704 188 785 m 447 1125 b 524 1153 464 1146 496 1153 b 613 1104 571 1153 613 1133 b 601 1078 613 1097 610 1088 l 449 897 b 360 864 431 875 404 864 b 271 897 315 864 289 875 l 118 1078 b 107 1104 110 1088 107 1097 b 196 1153 107 1133 149 1153 b 272 1125 224 1153 256 1146 l 360 1018 "},"Ś":{"ha":1232,"x_min":0,"x_max":0,"o":"m 458 436 b 47 694 185 436 47 522 l 47 749 b 458 1007 47 922 185 1007 l 597 1007 b 651 932 642 1007 651 982 b 597 857 651 882 642 857 l 454 857 b 231 749 292 857 231 810 l 231 694 b 454 586 231 635 292 586 l 782 586 b 1193 328 1056 586 1193 500 l 1193 258 b 782 0 1193 85 1056 0 l 101 0 b 47 75 57 0 47 25 b 101 150 47 125 57 150 l 786 150 b 1010 258 949 150 1010 197 l 1010 328 b 786 436 1010 388 949 436 m 540 1104 b 436 1086 515 1092 494 1086 b 367 1144 399 1086 367 1106 b 408 1204 367 1169 379 1189 l 690 1357 b 794 1375 715 1369 736 1375 b 864 1315 832 1375 864 1356 b 822 1257 864 1292 851 1272 "},"ś":{"ha":1096,"x_min":0,"x_max":0,"o":"m 47 576 b 378 785 47 706 161 785 l 568 785 b 619 714 610 785 619 761 b 568 644 619 668 610 644 l 376 644 b 222 575 272 644 222 618 l 222 539 b 383 468 222 496 272 468 l 690 468 b 1057 257 950 468 1057 390 l 1057 213 b 664 0 1057 79 943 0 l 101 0 b 50 71 60 0 50 24 b 101 140 50 117 60 140 l 690 140 b 879 210 839 140 879 167 l 879 260 b 696 331 879 303 839 331 l 385 331 b 47 536 161 331 47 408 m 472 882 b 368 864 447 869 426 864 b 299 922 331 864 299 883 b 340 982 299 947 311 967 l 622 1135 b 726 1153 647 1147 668 1153 b 796 1093 764 1153 796 1133 b 754 1035 796 1069 783 1050 "},"Ş":{"ha":1232,"x_min":0,"x_max":0,"o":"m 458 436 b 47 694 185 436 47 522 l 47 749 b 458 1007 47 922 185 1007 l 597 1007 b 651 932 642 1007 651 982 b 597 857 651 882 642 857 l 454 857 b 231 749 292 857 231 810 l 231 694 b 454 586 231 635 292 586 l 782 586 b 1193 328 1056 586 1193 500 l 1193 258 b 782 0 1193 85 1056 0 l 101 0 b 47 75 57 0 47 25 b 101 150 47 125 57 150 l 786 150 b 1010 258 949 150 1010 197 l 1010 328 b 786 436 1010 388 949 436 m 696 -236 b 601 -292 689 -279 664 -292 b 510 -242 538 -292 510 -279 b 515 -197 510 -231 513 -214 l 536 -75 b 632 -19 543 -32 568 -19 b 721 -74 696 -19 721 -32 b 718 -106 721 -83 719 -96 "},"ş":{"ha":1096,"x_min":0,"x_max":0,"o":"m 47 576 b 378 785 47 706 161 785 l 568 785 b 619 714 610 785 619 761 b 568 644 619 668 610 644 l 376 644 b 222 575 272 644 222 618 l 222 539 b 383 468 222 496 272 468 l 690 468 b 1057 257 950 468 1057 390 l 1057 213 b 664 0 1057 79 943 0 l 101 0 b 50 71 60 0 50 24 b 101 140 50 117 60 140 l 690 140 b 879 210 839 140 879 167 l 879 260 b 696 331 879 303 839 331 l 385 331 b 47 536 161 331 47 408 m 628 -236 b 533 -292 621 -279 596 -292 b 442 -242 469 -292 442 -279 b 447 -197 442 -231 444 -214 l 468 -75 b 564 -19 475 -32 500 -19 b 653 -74 628 -19 653 -32 b 650 -106 653 -83 651 -96 "},"Š":{"ha":1232,"x_min":0,"x_max":0,"o":"m 458 436 b 47 694 185 436 47 522 l 47 749 b 458 1007 47 922 185 1007 l 597 1007 b 651 932 642 1007 651 982 b 597 857 651 882 642 857 l 454 857 b 231 749 292 857 231 810 l 231 694 b 454 586 231 635 292 586 l 782 586 b 1193 328 1056 586 1193 500 l 1193 258 b 782 0 1193 85 1056 0 l 101 0 b 47 75 57 0 47 25 b 101 150 47 125 57 150 l 786 150 b 1010 258 949 150 1010 197 l 1010 328 b 786 436 1010 388 949 436 m 633 1347 b 710 1375 650 1368 682 1375 b 799 1326 757 1375 799 1356 b 788 1300 799 1319 796 1310 l 635 1119 b 546 1086 617 1097 590 1086 b 457 1119 501 1086 475 1097 l 304 1300 b 293 1326 296 1310 293 1319 b 382 1375 293 1356 335 1375 b 458 1347 410 1375 442 1368 l 546 1240 "},"š":{"ha":1096,"x_min":0,"x_max":0,"o":"m 47 576 b 378 785 47 706 161 785 l 568 785 b 619 714 610 785 619 761 b 568 644 619 668 610 644 l 376 644 b 222 575 272 644 222 618 l 222 539 b 383 468 222 496 272 468 l 690 468 b 1057 257 950 468 1057 390 l 1057 213 b 664 0 1057 79 943 0 l 101 0 b 50 71 60 0 50 24 b 101 140 50 117 60 140 l 690 140 b 879 210 839 140 879 167 l 879 260 b 696 331 879 303 839 331 l 385 331 b 47 536 161 331 47 408 m 565 1125 b 642 1153 582 1146 614 1153 b 731 1104 689 1153 731 1133 b 719 1078 731 1097 728 1088 l 567 897 b 478 864 549 875 522 864 b 389 897 433 864 407 875 l 236 1078 b 225 1104 228 1088 225 1097 b 314 1153 225 1133 267 1153 b 390 1125 342 1153 374 1146 l 478 1018 "},"Ţ":{"ha":1164,"x_min":0,"x_max":0,"o":"m 674 857 l 674 60 b 581 -6 674 7 642 -6 b 489 60 521 -6 489 7 l 489 857 l 71 857 b 17 932 26 857 17 882 b 71 1007 17 982 26 1007 l 1093 1007 b 1147 932 1138 1007 1147 982 b 1093 857 1147 882 1138 857 m 635 -236 b 540 -292 628 -279 603 -292 b 449 -242 476 -292 449 -279 b 454 -197 449 -231 451 -214 l 475 -75 b 571 -19 482 -32 507 -19 b 660 -74 635 -19 660 -32 b 657 -106 660 -83 658 -96 "},"ţ":{"ha":682,"x_min":0,"x_max":0,"o":"m 146 785 l 146 947 b 233 1013 146 1000 175 1013 b 322 947 293 1013 322 1000 l 322 785 l 615 785 b 665 714 657 785 665 760 b 615 644 665 668 657 644 l 322 644 l 322 60 b 233 -6 322 7 293 -6 b 146 60 175 -6 146 7 l 146 644 l 67 644 b 17 714 25 644 17 668 b 67 785 17 760 25 785 m 289 -236 b 194 -292 282 -279 257 -292 b 103 -242 131 -292 103 -279 b 108 -197 103 -231 106 -214 l 129 -75 b 225 -19 136 -32 161 -19 b 314 -74 289 -19 314 -32 b 311 -106 314 -83 313 -96 "},"Ť":{"ha":1164,"x_min":0,"x_max":0,"o":"m 674 857 l 674 60 b 581 -6 674 7 642 -6 b 489 60 521 -6 489 7 l 489 857 l 71 857 b 17 932 26 857 17 882 b 71 1007 17 982 26 1007 l 1093 1007 b 1147 932 1138 1007 1147 982 b 1093 857 1147 882 1138 857 m 669 1347 b 746 1375 686 1368 718 1375 b 835 1326 793 1375 835 1356 b 824 1300 835 1319 832 1310 l 671 1119 b 582 1086 653 1097 626 1086 b 493 1119 538 1086 511 1097 l 340 1300 b 329 1326 332 1310 329 1319 b 418 1375 329 1356 371 1375 b 494 1347 446 1375 478 1368 l 582 1240 "},"ť":{"ha":763,"x_min":0,"x_max":0,"o":"m 146 785 l 146 947 b 233 1013 146 1000 175 1013 b 322 947 293 1013 322 1000 l 322 785 l 615 785 b 665 714 657 785 665 760 b 615 644 665 668 657 644 l 322 644 l 322 60 b 233 -6 322 7 293 -6 b 146 60 175 -6 146 7 l 146 644 l 67 644 b 17 714 25 644 17 668 b 67 785 17 760 25 785 m 738 879 b 643 824 731 836 706 824 b 551 874 579 824 551 836 b 557 918 551 885 554 901 l 578 1040 b 674 1096 585 1083 610 1096 b 763 1042 738 1096 763 1083 b 760 1010 763 1032 761 1019 "},"Ŧ":{"ha":1164,"x_min":0,"x_max":0,"o":"m 489 704 l 489 857 l 71 857 b 17 932 26 857 17 882 b 71 1007 17 982 26 1007 l 1093 1007 b 1147 932 1138 1007 1147 982 b 1093 857 1147 882 1138 857 l 674 857 l 674 704 l 843 704 b 893 633 885 704 893 679 b 843 564 893 588 885 564 l 674 564 l 674 60 b 581 -6 674 7 642 -6 b 489 60 521 -6 489 7 l 489 564 l 321 564 b 271 633 279 564 271 588 b 321 704 271 679 279 704 "},"ŧ":{"ha":682,"x_min":0,"x_max":0,"o":"m 146 544 l 146 644 l 67 644 b 17 714 25 644 17 668 b 67 785 17 760 25 785 l 146 785 l 146 947 b 233 1013 146 1000 175 1013 b 322 947 293 1013 322 1000 l 322 785 l 615 785 b 665 714 657 785 665 760 b 615 644 665 668 657 644 l 322 644 l 322 544 l 615 544 b 665 474 657 544 665 519 b 615 404 665 428 657 404 l 322 404 l 322 60 b 233 -6 322 7 293 -6 b 146 60 175 -6 146 7 l 146 404 l 67 404 b 17 474 25 404 17 428 b 67 544 17 519 25 544 "},"Ũ":{"ha":1369,"x_min":0,"x_max":0,"o":"m 471 0 b 60 258 197 0 60 86 l 60 947 b 151 1013 60 1000 92 1013 b 244 947 213 1013 244 1000 l 244 258 b 476 150 244 199 314 150 l 893 150 b 1125 258 1056 150 1125 199 l 1125 947 b 1218 1013 1125 1000 1157 1013 b 1310 947 1278 1013 1310 1000 l 1310 258 b 899 0 1310 86 1172 0 m 947 1261 b 993 1197 985 1261 993 1239 b 947 1133 993 1154 985 1133 l 421 1133 b 375 1197 382 1133 375 1154 b 421 1261 375 1239 382 1261 "},"ũ":{"ha":1238,"x_min":0,"x_max":0,"o":"m 1090 790 b 1178 725 1149 790 1178 778 l 1178 242 b 785 0 1178 79 1046 0 l 453 0 b 60 242 192 0 60 79 l 60 725 b 149 790 60 778 89 790 b 236 725 207 790 236 778 l 236 242 b 458 140 236 185 303 140 l 779 140 b 1001 242 935 140 1001 185 l 1001 725 b 1090 790 1001 778 1031 790 m 882 1039 b 928 975 919 1039 928 1017 b 882 911 928 932 919 911 l 356 911 b 310 975 317 911 310 932 b 356 1039 310 1017 317 1039 "},"Ū":{"ha":1369,"x_min":0,"x_max":0,"o":"m 471 0 b 60 258 197 0 60 86 l 60 947 b 151 1013 60 1000 92 1013 b 244 947 213 1013 244 1000 l 244 258 b 476 150 244 199 314 150 l 893 150 b 1125 258 1056 150 1125 199 l 1125 947 b 1218 1013 1125 1000 1157 1013 b 1310 947 1278 1013 1310 1000 l 1310 258 b 899 0 1310 86 1172 0 m 947 1261 b 993 1197 985 1261 993 1239 b 947 1133 993 1154 985 1133 l 421 1133 b 375 1197 382 1133 375 1154 b 421 1261 375 1239 382 1261 "},"ū":{"ha":1238,"x_min":0,"x_max":0,"o":"m 1090 790 b 1178 725 1149 790 1178 778 l 1178 242 b 785 0 1178 79 1046 0 l 453 0 b 60 242 192 0 60 79 l 60 725 b 149 790 60 778 89 790 b 236 725 207 790 236 778 l 236 242 b 458 140 236 185 303 140 l 779 140 b 1001 242 935 140 1001 185 l 1001 725 b 1090 790 1001 778 1031 790 m 882 1039 b 928 975 919 1039 928 1017 b 882 911 928 932 919 911 l 356 911 b 310 975 317 911 310 932 b 356 1039 310 1017 317 1039 "},"Ŭ":{"ha":1369,"x_min":0,"x_max":0,"o":"m 471 0 b 60 258 197 0 60 86 l 60 947 b 151 1013 60 1000 92 1013 b 244 947 213 1013 244 1000 l 244 258 b 476 150 244 199 314 150 l 893 150 b 1125 258 1056 150 1125 199 l 1125 947 b 1218 1013 1125 1000 1157 1013 b 1310 947 1278 1013 1310 1000 l 1310 258 b 899 0 1310 86 1172 0 m 685 1086 b 367 1311 526 1086 367 1172 b 454 1375 367 1360 386 1375 b 539 1338 494 1375 524 1369 b 685 1215 565 1282 597 1215 b 831 1338 772 1215 804 1282 b 915 1375 846 1369 875 1375 b 1003 1311 983 1375 1003 1360 b 685 1086 1003 1172 843 1086 "},"ŭ":{"ha":1238,"x_min":0,"x_max":0,"o":"m 1090 790 b 1178 725 1149 790 1178 778 l 1178 242 b 785 0 1178 79 1046 0 l 453 0 b 60 242 192 0 60 79 l 60 725 b 149 790 60 778 89 790 b 236 725 207 790 236 778 l 236 242 b 458 140 236 185 303 140 l 779 140 b 1001 242 935 140 1001 185 l 1001 725 b 1090 790 1001 778 1031 790 m 618 864 b 300 1089 460 864 300 950 b 388 1153 300 1138 319 1153 b 472 1115 428 1153 457 1147 b 618 993 499 1060 531 993 b 764 1115 706 993 738 1060 b 849 1153 779 1147 808 1153 b 936 1089 917 1153 936 1138 b 618 864 936 950 776 864 "},"Ů":{"ha":1369,"x_min":0,"x_max":0,"o":"m 471 0 b 60 258 197 0 60 86 l 60 947 b 151 1013 60 1000 92 1013 b 244 947 213 1013 244 1000 l 244 258 b 476 150 244 199 314 150 l 893 150 b 1125 258 1056 150 1125 199 l 1125 947 b 1218 1013 1125 1000 1157 1013 b 1310 947 1278 1013 1310 1000 l 1310 258 b 899 0 1310 86 1172 0 m 871 1183 b 707 1042 871 1067 825 1042 l 663 1042 b 499 1183 544 1042 499 1067 l 499 1233 b 663 1375 499 1350 544 1375 l 707 1375 b 871 1233 825 1375 871 1350 m 699 1121 b 779 1183 769 1121 779 1129 l 779 1233 b 699 1296 779 1288 769 1296 l 671 1296 b 590 1233 600 1296 590 1288 l 590 1183 b 671 1121 590 1129 600 1121 "},"ů":{"ha":1238,"x_min":0,"x_max":0,"o":"m 1090 790 b 1178 725 1149 790 1178 778 l 1178 242 b 785 0 1178 79 1046 0 l 453 0 b 60 242 192 0 60 79 l 60 725 b 149 790 60 778 89 790 b 236 725 207 790 236 778 l 236 242 b 458 140 236 185 303 140 l 779 140 b 1001 242 935 140 1001 185 l 1001 725 b 1090 790 1001 778 1031 790 m 804 961 b 640 819 804 844 758 819 l 596 819 b 432 961 478 819 432 844 l 432 1011 b 596 1153 432 1128 478 1153 l 640 1153 b 804 1011 758 1153 804 1128 m 632 899 b 713 961 703 899 713 907 l 713 1011 b 632 1074 713 1065 703 1074 l 604 1074 b 524 1011 533 1074 524 1065 l 524 961 b 604 899 524 907 533 899 "},"Ű":{"ha":1369,"x_min":0,"x_max":0,"o":"m 471 0 b 60 258 197 0 60 86 l 60 947 b 151 1013 60 1000 92 1013 b 244 947 213 1013 244 1000 l 244 258 b 476 150 244 199 314 150 l 893 150 b 1125 258 1056 150 1125 199 l 1125 947 b 1218 1013 1125 1000 1157 1013 b 1310 947 1278 1013 1310 1000 l 1310 258 b 899 0 1310 86 1172 0 m 864 1104 b 794 1086 847 1093 824 1086 b 728 1143 747 1086 728 1106 b 761 1204 728 1169 738 1188 l 981 1357 b 1053 1375 1000 1369 1031 1375 b 1117 1317 1096 1375 1117 1356 b 1085 1257 1117 1290 1107 1272 m 528 1104 b 446 1086 508 1090 492 1086 b 392 1144 417 1086 392 1106 b 424 1204 392 1169 401 1189 l 644 1357 b 714 1375 661 1368 685 1375 b 781 1315 754 1375 781 1361 b 747 1257 781 1290 772 1274 "},"ű":{"ha":1238,"x_min":0,"x_max":0,"o":"m 1090 790 b 1178 725 1149 790 1178 778 l 1178 242 b 785 0 1178 79 1046 0 l 453 0 b 60 242 192 0 60 79 l 60 725 b 149 790 60 778 89 790 b 236 725 207 790 236 778 l 236 242 b 458 140 236 185 303 140 l 779 140 b 1001 242 935 140 1001 185 l 1001 725 b 1090 790 1001 778 1031 790 m 797 882 b 728 864 781 871 757 864 b 661 921 681 864 661 883 b 694 982 661 947 671 965 l 914 1135 b 986 1153 933 1147 964 1153 b 1050 1094 1029 1153 1050 1133 b 1018 1035 1050 1068 1040 1050 m 461 882 b 379 864 442 868 425 864 b 325 922 350 864 325 883 b 357 982 325 947 335 967 l 578 1135 b 647 1153 594 1146 618 1153 b 714 1093 688 1153 714 1139 b 681 1035 714 1068 706 1051 "},"Ų":{"ha":1369,"x_min":0,"x_max":0,"o":"m 843 -161 b 890 -225 882 -161 890 -183 b 843 -292 890 -268 882 -292 l 635 -292 b 478 -186 508 -292 478 -228 l 478 -153 b 714 0 478 -76 529 -36 l 471 0 b 60 258 197 0 60 86 l 60 947 b 151 1013 60 1000 92 1013 b 244 947 213 1013 244 1000 l 244 258 b 476 150 244 199 314 150 l 893 150 b 1125 258 1056 150 1125 199 l 1125 947 b 1218 1013 1125 1000 1157 1013 b 1310 947 1278 1013 1310 1000 l 1310 258 b 899 0 1310 86 1172 0 l 863 0 b 642 -108 688 -57 642 -75 l 642 -129 b 679 -161 642 -154 650 -161 l 843 -161 "},"ų":{"ha":1238,"x_min":0,"x_max":0,"o":"m 729 -161 b 776 -225 768 -161 776 -183 b 729 -292 776 -268 768 -292 l 521 -292 b 364 -186 394 -292 364 -228 l 364 -153 b 600 0 364 -76 415 -36 l 453 0 b 60 242 192 0 60 79 l 60 725 b 149 790 60 778 89 790 b 236 725 207 790 236 778 l 236 242 b 458 140 236 185 303 140 l 779 140 b 1001 242 935 140 1001 185 l 1001 725 b 1090 790 1001 778 1031 790 b 1178 725 1149 790 1178 778 l 1178 242 b 785 0 1178 79 1046 0 l 750 0 b 528 -108 574 -57 528 -75 l 528 -129 b 565 -161 528 -154 536 -161 l 729 -161 "},"Ŵ":{"ha":1932,"x_min":0,"x_max":0,"o":"m 632 54 b 525 -6 614 14 578 -6 b 411 58 471 -6 431 14 l 25 915 b 17 947 19 926 17 938 b 118 1013 17 988 60 1013 b 197 971 161 1013 185 999 l 522 208 l 860 943 b 965 1013 885 997 910 1013 b 1065 943 1024 1013 1042 996 l 1401 208 l 1735 971 b 1814 1013 1747 999 1771 1013 b 1915 947 1872 1013 1915 988 b 1907 915 1915 938 1913 926 l 1513 58 b 1399 -6 1493 15 1453 -6 b 1289 54 1349 -6 1308 13 l 961 768 m 878 1114 b 801 1086 861 1093 829 1086 b 713 1135 754 1086 713 1106 b 724 1161 713 1142 715 1151 l 876 1342 b 965 1375 894 1364 921 1375 b 1054 1342 1010 1375 1036 1364 l 1207 1161 b 1218 1135 1215 1151 1218 1142 b 1129 1086 1218 1106 1176 1086 b 1053 1114 1101 1086 1069 1093 l 965 1221 "},"ŵ":{"ha":1644,"x_min":0,"x_max":0,"o":"m 546 42 b 446 -6 529 10 496 -6 b 342 44 396 -6 358 10 l 22 714 b 14 740 17 724 14 732 b 110 790 14 771 53 790 b 185 758 150 790 175 781 l 444 175 l 736 736 b 826 790 758 778 779 790 b 913 736 882 790 893 774 l 1193 175 l 1458 758 b 1535 790 1468 781 1494 790 b 1631 740 1592 790 1631 771 b 1622 714 1631 732 1628 724 l 1294 44 b 1192 -6 1278 10 1240 -6 b 1090 42 1146 -6 1107 8 l 824 583 m 735 892 b 658 864 718 871 686 864 b 569 913 611 864 569 883 b 581 939 569 919 572 929 l 733 1119 b 822 1153 751 1142 778 1153 b 911 1119 867 1153 893 1142 l 1064 939 b 1075 913 1072 929 1075 919 b 986 864 1075 883 1033 864 b 910 892 958 864 926 871 l 822 999 "},"Ŷ":{"ha":1276,"x_min":0,"x_max":0,"o":"m 44 901 b 15 957 26 918 15 939 b 115 1013 15 986 44 1013 b 193 986 156 1013 174 1004 l 639 553 l 1083 986 b 1161 1013 1101 1004 1121 1013 b 1261 957 1231 1013 1261 988 b 1232 901 1261 939 1250 918 l 731 417 l 731 60 b 638 -6 731 7 699 -6 b 546 60 578 -6 546 7 l 546 417 m 550 1114 b 474 1086 533 1093 501 1086 b 385 1135 426 1086 385 1106 b 396 1161 385 1142 388 1151 l 549 1342 b 638 1375 567 1364 593 1375 b 726 1342 682 1375 708 1364 l 879 1161 b 890 1135 888 1151 890 1142 b 801 1086 890 1106 849 1086 b 725 1114 774 1086 742 1093 l 638 1221 "},"ŷ":{"ha":1222,"x_min":0,"x_max":0,"o":"m 981 160 l 981 725 b 1068 790 981 778 1010 790 b 1157 725 1128 790 1157 778 l 1157 13 b 797 -228 1157 -147 1029 -228 l 606 -228 b 556 -157 564 -228 556 -203 b 606 -87 556 -111 564 -87 l 797 -87 b 981 13 935 -87 981 -51 l 981 19 l 453 19 b 60 261 192 19 60 99 l 60 725 b 147 790 60 778 89 790 b 236 725 207 790 236 778 l 236 260 b 458 160 236 203 303 160 m 524 892 b 447 864 507 871 475 864 b 358 913 400 864 358 883 b 369 939 358 919 361 929 l 522 1119 b 611 1153 540 1142 567 1153 b 700 1119 656 1153 682 1142 l 853 939 b 864 913 861 929 864 919 b 775 864 864 883 822 864 b 699 892 747 864 715 871 l 611 999 "},"Ÿ":{"ha":1276,"x_min":0,"x_max":0,"o":"m 44 901 b 15 957 26 918 15 939 b 115 1013 15 986 44 1013 b 193 986 156 1013 174 1004 l 639 553 l 1083 986 b 1161 1013 1101 1004 1121 1013 b 1261 957 1231 1013 1261 988 b 1232 901 1261 939 1250 918 l 731 417 l 731 60 b 638 -6 731 7 699 -6 b 546 60 578 -6 546 7 l 546 417 m 688 1190 b 797 1276 688 1250 719 1276 b 907 1190 875 1276 907 1250 b 797 1104 907 1131 875 1104 b 688 1190 719 1104 688 1131 m 368 1190 b 478 1276 368 1250 400 1276 b 588 1190 556 1276 588 1250 b 478 1104 588 1131 556 1104 b 368 1190 400 1104 368 1131 "},"Ź":{"ha":1233,"x_min":0,"x_max":0,"o":"m 178 0 b 25 96 79 0 25 21 b 54 161 25 128 35 144 l 990 982 b 1086 1007 1013 1001 1044 1007 b 1172 950 1126 1007 1172 1001 b 1128 882 1172 922 1160 910 l 278 150 l 1115 150 b 1169 75 1160 150 1169 125 b 1115 0 1169 25 1160 0 m 681 1104 b 576 1086 656 1092 635 1086 b 507 1144 539 1086 507 1106 b 549 1204 507 1169 519 1189 l 831 1357 b 935 1375 856 1369 876 1375 b 1004 1315 972 1375 1004 1356 b 963 1257 1004 1292 992 1272 "},"ź":{"ha":1201,"x_min":0,"x_max":0,"o":"m 322 140 l 1092 140 b 1142 69 1133 140 1142 115 b 1092 0 1142 24 1133 0 l 171 0 b 36 72 71 0 36 22 b 71 136 36 97 44 117 l 926 771 b 1028 790 947 786 976 790 b 1122 746 1079 790 1122 786 b 1081 693 1122 724 1110 714 m 664 882 b 560 864 639 869 618 864 b 490 922 522 864 490 883 b 532 982 490 947 503 967 l 814 1135 b 918 1153 839 1147 860 1153 b 988 1093 956 1153 988 1133 b 946 1035 988 1069 975 1050 "},"Ż":{"ha":1233,"x_min":0,"x_max":0,"o":"m 178 0 b 25 96 79 0 25 21 b 54 161 25 128 35 144 l 990 982 b 1086 1007 1013 1001 1044 1007 b 1172 950 1126 1007 1172 1001 b 1128 882 1172 922 1160 910 l 278 150 l 1115 150 b 1169 75 1160 150 1169 125 b 1115 0 1169 25 1160 0 m 576 1190 b 686 1276 576 1250 608 1276 b 796 1190 764 1276 796 1250 b 686 1104 796 1131 764 1104 b 576 1190 608 1104 576 1131 "},"ż":{"ha":1201,"x_min":0,"x_max":0,"o":"m 322 140 l 1092 140 b 1142 69 1133 140 1142 115 b 1092 0 1142 24 1133 0 l 171 0 b 36 72 71 0 36 22 b 71 136 36 97 44 117 l 926 771 b 1028 790 947 786 976 790 b 1122 746 1079 790 1122 786 b 1081 693 1122 724 1110 714 m 560 968 b 669 1054 560 1028 592 1054 b 779 968 747 1054 779 1028 b 669 882 779 908 747 882 b 560 968 592 882 560 908 "},"Ž":{"ha":1233,"x_min":0,"x_max":0,"o":"m 178 0 b 25 96 79 0 25 21 b 54 161 25 128 35 144 l 990 982 b 1086 1007 1013 1001 1044 1007 b 1172 950 1126 1007 1172 1001 b 1128 882 1172 922 1160 910 l 278 150 l 1115 150 b 1169 75 1160 150 1169 125 b 1115 0 1169 25 1160 0 m 774 1347 b 850 1375 790 1368 822 1375 b 939 1326 897 1375 939 1356 b 928 1300 939 1319 936 1310 l 775 1119 b 686 1086 757 1097 731 1086 b 597 1119 642 1086 615 1097 l 444 1300 b 433 1326 436 1310 433 1319 b 522 1375 433 1356 475 1375 b 599 1347 550 1375 582 1368 l 686 1240 "},"ž":{"ha":1201,"x_min":0,"x_max":0,"o":"m 322 140 l 1092 140 b 1142 69 1133 140 1142 115 b 1092 0 1142 24 1133 0 l 171 0 b 36 72 71 0 36 22 b 71 136 36 97 44 117 l 926 771 b 1028 790 947 786 976 790 b 1122 746 1079 790 1122 786 b 1081 693 1122 724 1110 714 m 757 1125 b 833 1153 774 1146 806 1153 b 922 1104 881 1153 922 1133 b 911 1078 922 1097 919 1088 l 758 897 b 669 864 740 875 714 864 b 581 897 625 864 599 875 l 428 1078 b 417 1104 419 1088 417 1097 b 506 1153 417 1133 458 1153 b 582 1125 533 1153 565 1146 l 669 1018 "},"ƒ":{"ha":658,"x_min":0,"x_max":0,"o":"m 589 1007 b 639 936 631 1007 639 982 b 589 867 639 890 631 867 l 532 867 b 417 767 463 867 417 831 l 417 632 l 575 632 b 625 561 617 632 625 607 b 575 492 625 515 617 492 l 417 492 l 417 13 b 125 -228 417 -147 289 -228 l 68 -228 b 18 -157 26 -228 18 -203 b 68 -87 18 -111 26 -87 l 125 -87 b 240 13 194 -87 240 -51 l 240 492 l 93 492 b 43 561 51 492 43 515 b 93 632 43 607 51 632 l 240 632 l 240 767 b 532 1007 240 926 368 1007 "},"Ș":{"ha":1232,"x_min":0,"x_max":0,"o":"m 458 436 b 47 694 185 436 47 522 l 47 749 b 458 1007 47 922 185 1007 l 597 1007 b 651 932 642 1007 651 982 b 597 857 651 882 642 857 l 454 857 b 231 749 292 857 231 810 l 231 694 b 454 586 231 635 292 586 l 782 586 b 1193 328 1056 586 1193 500 l 1193 258 b 782 0 1193 85 1056 0 l 101 0 b 47 75 57 0 47 25 b 101 150 47 125 57 150 l 786 150 b 1010 258 949 150 1010 197 l 1010 328 b 786 436 1010 388 949 436 m 696 -236 b 601 -292 689 -279 664 -292 b 510 -242 538 -292 510 -279 b 515 -197 510 -231 513 -214 l 536 -75 b 632 -19 543 -32 568 -19 b 721 -74 696 -19 721 -32 b 718 -106 721 -83 719 -96 "},"ș":{"ha":1096,"x_min":0,"x_max":0,"o":"m 47 576 b 378 785 47 706 161 785 l 568 785 b 619 714 610 785 619 761 b 568 644 619 668 610 644 l 376 644 b 222 575 272 644 222 618 l 222 539 b 383 468 222 496 272 468 l 690 468 b 1057 257 950 468 1057 390 l 1057 213 b 664 0 1057 79 943 0 l 101 0 b 50 71 60 0 50 24 b 101 140 50 117 60 140 l 690 140 b 879 210 839 140 879 167 l 879 260 b 696 331 879 303 839 331 l 385 331 b 47 536 161 331 47 408 m 628 -236 b 533 -292 621 -279 596 -292 b 442 -242 469 -292 442 -279 b 447 -197 442 -231 444 -214 l 468 -75 b 564 -19 475 -32 500 -19 b 653 -74 628 -19 653 -32 b 650 -106 653 -83 651 -96 "},"Ț":{"ha":1164,"x_min":0,"x_max":0,"o":"m 674 857 l 674 60 b 581 -6 674 7 642 -6 b 489 60 521 -6 489 7 l 489 857 l 71 857 b 17 932 26 857 17 882 b 71 1007 17 982 26 1007 l 1093 1007 b 1147 932 1138 1007 1147 982 b 1093 857 1147 882 1138 857 m 635 -236 b 540 -292 628 -279 603 -292 b 449 -242 476 -292 449 -279 b 454 -197 449 -231 451 -214 l 475 -75 b 571 -19 482 -32 507 -19 b 660 -74 635 -19 660 -32 b 657 -106 660 -83 658 -96 "},"ț":{"ha":682,"x_min":0,"x_max":0,"o":"m 146 785 l 146 947 b 233 1013 146 1000 175 1013 b 322 947 293 1013 322 1000 l 322 785 l 615 785 b 665 714 657 785 665 760 b 615 644 665 668 657 644 l 322 644 l 322 60 b 233 -6 322 7 293 -6 b 146 60 175 -6 146 7 l 146 644 l 67 644 b 17 714 25 644 17 668 b 67 785 17 760 25 785 m 289 -236 b 194 -292 282 -279 257 -292 b 103 -242 131 -292 103 -279 b 108 -197 103 -231 106 -214 l 129 -75 b 225 -19 136 -32 161 -19 b 314 -74 289 -19 314 -32 b 311 -106 314 -83 313 -96 "},"ˆ":{"ha":611,"x_min":0,"x_max":0,"o":"m 218 892 b 142 864 201 871 169 864 b 53 913 94 864 53 883 b 64 939 53 919 56 929 l 217 1119 b 306 1153 235 1142 261 1153 b 394 1119 350 1153 376 1142 l 547 939 b 558 913 556 929 558 919 b 469 864 558 883 517 864 b 393 892 442 864 410 871 l 306 999 "},"ˇ":{"ha":611,"x_min":0,"x_max":0,"o":"m 393 1125 b 469 1153 410 1146 442 1153 b 558 1104 517 1153 558 1133 b 547 1078 558 1097 556 1088 l 394 897 b 306 864 376 875 350 864 b 217 897 261 864 235 875 l 64 1078 b 53 1104 56 1088 53 1097 b 142 1153 53 1133 94 1153 b 218 1125 169 1153 201 1146 l 306 1018 "},"˘":{"ha":742,"x_min":0,"x_max":0,"o":"m 371 864 b 53 1089 213 864 53 950 b 140 1153 53 1138 72 1153 b 225 1115 181 1153 210 1147 b 371 993 251 1060 283 993 b 517 1115 458 993 490 1060 b 601 1153 532 1147 561 1153 b 689 1089 669 1153 689 1138 b 371 864 689 950 529 864 "},"˙":{"ha":325,"x_min":0,"x_max":0,"o":"m 53 968 b 163 1054 53 1028 85 1054 b 272 968 240 1054 272 1028 b 163 882 272 908 240 882 b 53 968 85 882 53 908 "},"˚":{"ha":478,"x_min":0,"x_max":0,"o":"m 425 961 b 261 819 425 844 379 819 l 217 819 b 53 961 99 819 53 844 l 53 1011 b 217 1153 53 1128 99 1153 l 261 1153 b 425 1011 379 1153 425 1128 m 253 899 b 333 961 324 899 333 907 l 333 1011 b 253 1074 333 1065 324 1074 l 225 1074 b 144 1011 154 1074 144 1065 l 144 961 b 225 899 144 907 154 899 "},"˛":{"ha":518,"x_min":0,"x_max":0,"o":"m 418 -161 b 465 -225 457 -161 465 -183 b 418 -292 465 -268 457 -292 l 210 -292 b 53 -186 83 -292 53 -228 l 53 -153 b 289 0 53 -76 104 -36 l 429 0 b 381 -21 418 -8 414 -11 b 217 -108 263 -57 217 -75 l 217 -129 b 254 -161 217 -154 225 -161 l 418 -161 "},"˜":{"ha":724,"x_min":0,"x_max":0,"o":"m 625 1039 b 671 975 663 1039 671 1017 b 625 911 671 932 663 911 l 99 911 b 53 975 60 911 53 932 b 99 1039 53 1017 60 1039 "},"˝":{"ha":831,"x_min":0,"x_max":0,"o":"m 525 882 b 456 864 508 871 485 864 b 389 921 408 864 389 883 b 422 982 389 947 399 965 l 642 1135 b 714 1153 661 1147 692 1153 b 778 1094 757 1153 778 1133 b 746 1035 778 1068 768 1050 m 189 882 b 107 864 169 868 153 864 b 53 922 78 864 53 883 b 85 982 53 947 63 967 l 306 1135 b 375 1153 322 1146 346 1153 b 442 1093 415 1153 442 1139 b 408 1035 442 1068 433 1051 "},"Δ":{"ha":1489,"x_min":0,"x_max":0,"o":"m 121 0 b 17 75 75 0 17 32 b 28 106 17 86 21 97 l 632 964 b 742 1013 654 996 688 1013 b 850 964 796 1013 828 996 l 1461 106 b 1472 74 1468 94 1472 85 b 1365 0 1472 33 1414 0 l 121 0 m 263 150 l 1217 150 l 738 835 "},"Ω":{"ha":1229,"x_min":0,"x_max":0,"o":"m 482 875 b 217 617 283 875 217 814 b 419 125 217 354 335 258 b 436 76 432 104 436 94 b 379 0 436 25 417 0 l 110 0 b 44 72 67 0 44 13 b 110 150 44 131 67 150 l 253 150 b 46 618 129 285 46 381 b 482 1013 46 913 175 1013 l 751 1013 b 1182 618 1054 1011 1182 911 b 975 150 1182 381 1099 285 l 1118 150 b 1183 72 1161 150 1183 131 b 1118 0 1183 13 1161 0 l 849 0 b 792 76 811 0 792 25 b 808 125 792 94 796 104 b 1011 617 890 256 1011 351 b 750 875 1011 813 946 874 "},"μ":{"ha":1228,"x_min":0,"x_max":0,"o":"m 153 790 b 242 725 213 790 242 778 l 242 140 l 769 140 b 992 242 925 140 992 185 l 992 725 b 1079 790 992 778 1021 790 b 1168 725 1139 790 1168 778 l 1168 242 b 775 0 1168 79 1036 0 l 242 0 l 242 -174 b 153 -239 242 -226 213 -239 b 65 -174 94 -239 65 -226 l 65 725 b 153 790 65 778 94 790 "},"π":{"ha":1115,"x_min":0,"x_max":0,"o":"m 981 785 b 1039 724 1024 785 1039 765 l 1039 60 b 951 -6 1039 7 1010 -6 b 863 60 892 -6 863 7 l 863 644 l 251 644 l 251 60 b 163 -6 251 7 222 -6 b 75 60 104 -6 75 7 l 75 724 b 133 785 75 765 90 785 l 981 785 "},"Ẁ":{"ha":1932,"x_min":0,"x_max":0,"o":"m 632 54 b 525 -6 614 14 578 -6 b 411 58 471 -6 431 14 l 25 915 b 17 947 19 926 17 938 b 118 1013 17 988 60 1013 b 197 971 161 1013 185 999 l 522 208 l 860 943 b 965 1013 885 997 910 1013 b 1065 943 1024 1013 1042 996 l 1401 208 l 1735 971 b 1814 1013 1747 999 1771 1013 b 1915 947 1872 1013 1915 988 b 1907 915 1915 938 1913 926 l 1513 58 b 1399 -6 1493 15 1453 -6 b 1289 54 1349 -6 1308 13 l 961 768 m 689 1257 b 647 1315 660 1272 647 1292 b 717 1375 647 1356 679 1375 b 821 1357 775 1375 796 1369 l 1103 1204 b 1144 1144 1132 1189 1144 1169 b 1075 1086 1144 1106 1113 1086 b 971 1104 1017 1086 996 1092 "},"ẁ":{"ha":1644,"x_min":0,"x_max":0,"o":"m 546 42 b 446 -6 529 10 496 -6 b 342 44 396 -6 358 10 l 22 714 b 14 740 17 724 14 732 b 110 790 14 771 53 790 b 185 758 150 790 175 781 l 444 175 l 736 736 b 826 790 758 778 779 790 b 913 736 882 790 893 774 l 1193 175 l 1458 758 b 1535 790 1468 781 1494 790 b 1631 740 1592 790 1631 771 b 1622 714 1631 732 1628 724 l 1294 44 b 1192 -6 1278 10 1240 -6 b 1090 42 1146 -6 1107 8 l 824 583 m 546 1035 b 504 1093 517 1050 504 1069 b 574 1153 504 1133 536 1153 b 678 1135 632 1153 653 1147 l 960 982 b 1001 922 989 967 1001 947 b 932 864 1001 883 969 864 b 828 882 874 864 853 869 "},"Ẃ":{"ha":1932,"x_min":0,"x_max":0,"o":"m 632 54 b 525 -6 614 14 578 -6 b 411 58 471 -6 431 14 l 25 915 b 17 947 19 926 17 938 b 118 1013 17 988 60 1013 b 197 971 161 1013 185 999 l 522 208 l 860 943 b 965 1013 885 997 910 1013 b 1065 943 1024 1013 1042 996 l 1401 208 l 1735 971 b 1814 1013 1747 999 1771 1013 b 1915 947 1872 1013 1915 988 b 1907 915 1915 938 1913 926 l 1513 58 b 1399 -6 1493 15 1453 -6 b 1289 54 1349 -6 1308 13 l 961 768 m 960 1104 b 856 1086 935 1092 914 1086 b 786 1144 818 1086 786 1106 b 828 1204 786 1169 799 1189 l 1110 1357 b 1214 1375 1135 1369 1156 1375 b 1283 1315 1251 1375 1283 1356 b 1242 1257 1283 1292 1271 1272 "},"ẃ":{"ha":1644,"x_min":0,"x_max":0,"o":"m 546 42 b 446 -6 529 10 496 -6 b 342 44 396 -6 358 10 l 22 714 b 14 740 17 724 14 732 b 110 790 14 771 53 790 b 185 758 150 790 175 781 l 444 175 l 736 736 b 826 790 758 778 779 790 b 913 736 882 790 893 774 l 1193 175 l 1458 758 b 1535 790 1468 781 1494 790 b 1631 740 1592 790 1631 771 b 1622 714 1631 732 1628 724 l 1294 44 b 1192 -6 1278 10 1240 -6 b 1090 42 1146 -6 1107 8 l 824 583 m 817 882 b 713 864 792 869 771 864 b 643 922 675 864 643 883 b 685 982 643 947 656 967 l 967 1135 b 1071 1153 992 1147 1013 1153 b 1140 1093 1108 1153 1140 1133 b 1099 1035 1140 1069 1128 1050 "},"Ẅ":{"ha":1932,"x_min":0,"x_max":0,"o":"m 632 54 b 525 -6 614 14 578 -6 b 411 58 471 -6 431 14 l 25 915 b 17 947 19 926 17 938 b 118 1013 17 988 60 1013 b 197 971 161 1013 185 999 l 522 208 l 860 943 b 965 1013 885 997 910 1013 b 1065 943 1024 1013 1042 996 l 1401 208 l 1735 971 b 1814 1013 1747 999 1771 1013 b 1915 947 1872 1013 1915 988 b 1907 915 1915 938 1913 926 l 1513 58 b 1399 -6 1493 15 1453 -6 b 1289 54 1349 -6 1308 13 l 961 768 m 1015 1190 b 1125 1276 1015 1250 1047 1276 b 1235 1190 1203 1276 1235 1250 b 1125 1104 1235 1131 1203 1104 b 1015 1190 1047 1104 1015 1131 m 696 1190 b 806 1276 696 1250 728 1276 b 915 1190 883 1276 915 1250 b 806 1104 915 1131 883 1104 b 696 1190 728 1104 696 1131 "},"ẅ":{"ha":1644,"x_min":0,"x_max":0,"o":"m 546 42 b 446 -6 529 10 496 -6 b 342 44 396 -6 358 10 l 22 714 b 14 740 17 724 14 732 b 110 790 14 771 53 790 b 185 758 150 790 175 781 l 444 175 l 736 736 b 826 790 758 778 779 790 b 913 736 882 790 893 774 l 1193 175 l 1458 758 b 1535 790 1468 781 1494 790 b 1631 740 1592 790 1631 771 b 1622 714 1631 732 1628 724 l 1294 44 b 1192 -6 1278 10 1240 -6 b 1090 42 1146 -6 1107 8 l 824 583 m 872 968 b 982 1054 872 1028 904 1054 b 1092 968 1060 1054 1092 1028 b 982 882 1092 908 1060 882 b 872 968 904 882 872 908 m 553 968 b 663 1054 553 1028 585 1054 b 772 968 740 1054 772 1028 b 663 882 772 908 740 882 b 553 968 585 882 553 908 "},"Ỳ":{"ha":1276,"x_min":0,"x_max":0,"o":"m 44 901 b 15 957 26 918 15 939 b 115 1013 15 986 44 1013 b 193 986 156 1013 174 1004 l 639 553 l 1083 986 b 1161 1013 1101 1004 1121 1013 b 1261 957 1231 1013 1261 988 b 1232 901 1261 939 1250 918 l 731 417 l 731 60 b 638 -6 731 7 699 -6 b 546 60 578 -6 546 7 l 546 417 m 361 1257 b 319 1315 332 1272 319 1292 b 389 1375 319 1356 351 1375 b 493 1357 447 1375 468 1369 l 775 1204 b 817 1144 804 1189 817 1169 b 747 1086 817 1106 785 1086 b 643 1104 689 1086 668 1092 "},"ỳ":{"ha":1222,"x_min":0,"x_max":0,"o":"m 981 160 l 981 725 b 1068 790 981 778 1010 790 b 1157 725 1128 790 1157 778 l 1157 13 b 797 -228 1157 -147 1029 -228 l 606 -228 b 556 -157 564 -228 556 -203 b 606 -87 556 -111 564 -87 l 797 -87 b 981 13 935 -87 981 -51 l 981 19 l 453 19 b 60 261 192 19 60 99 l 60 725 b 147 790 60 778 89 790 b 236 725 207 790 236 778 l 236 260 b 458 160 236 203 303 160 m 335 1035 b 293 1093 306 1050 293 1069 b 363 1153 293 1133 325 1153 b 467 1135 421 1153 442 1147 l 749 982 b 790 922 778 967 790 947 b 721 864 790 883 758 864 b 617 882 663 864 642 869 "},"–":{"ha":815,"x_min":0,"x_max":0,"o":"m 749 567 b 799 496 790 567 799 542 b 749 426 799 450 790 426 l 67 426 b 17 496 25 426 17 450 b 67 567 17 542 25 567 "},"—":{"ha":1053,"x_min":0,"x_max":0,"o":"m 999 567 b 1049 496 1040 567 1049 542 b 999 426 1049 450 1040 426 l 54 426 b 4 496 13 426 4 450 b 54 567 4 542 13 567 "},"‘":{"ha":271,"x_min":0,"x_max":0,"o":"m 25 942 b 22 974 24 951 22 964 b 111 1028 22 1015 47 1028 b 207 972 175 1028 200 1015 l 243 749 b 249 704 246 732 249 715 b 158 654 249 667 221 654 b 63 710 94 654 69 667 "},"’":{"ha":271,"x_min":0,"x_max":0,"o":"m 208 710 b 113 654 201 667 176 654 b 22 704 50 654 22 667 b 28 749 22 715 25 732 l 64 972 b 160 1028 71 1015 96 1028 b 249 974 224 1028 249 1015 b 246 942 249 964 247 951 "},"‚":{"ha":271,"x_min":0,"x_max":0,"o":"m 208 -75 b 113 -131 201 -118 176 -131 b 22 -81 50 -131 22 -118 b 28 -36 22 -69 25 -53 l 64 188 b 160 243 71 231 96 243 b 249 189 224 243 249 231 b 246 157 249 179 247 167 m 208 -75 b 113 -131 201 -118 176 -131 b 22 -81 50 -131 22 -118 b 28 -36 22 -69 25 -53 l 64 188 b 160 243 71 231 96 243 b 249 189 224 243 249 231 b 246 157 249 179 247 167 "},"“":{"ha":521,"x_min":0,"x_max":0,"o":"m 25 942 b 22 974 24 951 22 964 b 111 1028 22 1015 47 1028 b 207 972 175 1028 200 1015 l 243 749 b 249 704 246 732 249 715 b 158 654 249 667 221 654 b 63 710 94 654 69 667 m 275 942 b 272 974 274 951 272 964 b 361 1028 272 1015 297 1028 b 457 972 425 1028 450 1015 l 493 749 b 499 704 496 732 499 715 b 408 654 499 667 471 654 b 313 710 344 654 319 667 "},"”":{"ha":521,"x_min":0,"x_max":0,"o":"m 458 710 b 363 654 451 667 426 654 b 272 704 300 654 272 667 b 278 749 272 715 275 732 l 314 972 b 410 1028 321 1015 346 1028 b 499 974 474 1028 499 1015 b 496 942 499 964 497 951 m 208 710 b 113 654 201 667 176 654 b 22 704 50 654 22 667 b 28 749 22 715 25 732 l 64 972 b 160 1028 71 1015 96 1028 b 249 974 224 1028 249 1015 b 246 942 249 964 247 951 "},"„":{"ha":521,"x_min":0,"x_max":0,"o":"m 458 -75 b 363 -131 451 -118 426 -131 b 272 -81 300 -131 272 -118 b 278 -36 272 -69 275 -53 l 314 188 b 410 243 321 231 346 243 b 499 189 474 243 499 231 b 496 157 499 179 497 167 m 208 -75 b 113 -131 201 -118 176 -131 b 22 -81 50 -131 22 -118 b 28 -36 22 -69 25 -53 l 64 188 b 160 243 71 231 96 243 b 249 189 224 243 249 231 b 246 157 249 179 247 167 "},"†":{"ha":631,"x_min":0,"x_max":0,"o":"m 371 36 b 315 -6 369 3 343 -6 b 260 36 288 -6 261 3 l 238 657 l 118 657 b 65 713 82 657 65 675 b 118 769 65 750 82 769 l 225 769 l 225 931 b 315 1013 225 986 256 1013 b 404 931 374 1013 404 986 l 404 769 l 515 769 b 565 713 549 769 565 750 b 515 657 565 675 549 657 l 393 657 "},"‡":{"ha":631,"x_min":0,"x_max":0,"o":"m 238 315 l 257 488 l 238 657 l 118 657 b 65 714 82 657 65 675 b 118 769 65 750 82 769 l 225 769 l 225 931 b 315 1013 225 986 256 1013 b 404 931 374 1013 404 986 l 404 769 l 515 769 b 565 714 549 769 565 750 b 515 657 565 675 549 657 l 393 657 l 374 488 l 393 315 l 511 315 b 565 257 549 315 565 296 b 511 201 565 219 549 201 l 404 201 l 404 42 b 314 -42 404 -14 374 -42 b 226 42 257 -42 226 -14 l 226 201 l 115 201 b 65 258 82 201 65 219 b 115 315 65 296 82 315 "},"•":{"ha":683,"x_min":0,"x_max":0,"o":"m 618 333 b 433 238 618 281 563 238 l 250 238 b 65 333 121 238 65 281 l 65 618 b 250 714 65 672 121 714 l 433 714 b 618 618 563 714 618 672 "},"…":{"ha":1363,"x_min":0,"x_max":0,"o":"m 93 81 b 203 167 93 140 125 167 b 313 81 281 167 313 140 b 203 -6 313 21 281 -6 b 93 81 125 -6 93 21 m 571 81 b 681 167 571 140 603 167 b 790 81 758 167 790 140 b 681 -6 790 21 758 -6 b 571 81 603 -6 571 21 m 1049 81 b 1158 167 1049 140 1081 167 b 1268 81 1236 167 1268 140 b 1158 -6 1268 21 1236 -6 b 1049 81 1081 -6 1049 21 "},"‰":{"ha":2108,"x_min":0,"x_max":0,"o":"m 290 431 b 53 583 132 431 53 482 l 53 853 b 290 1007 53 956 132 1007 l 374 1007 b 611 853 531 1007 611 956 l 611 583 b 374 431 611 482 531 431 m 371 535 b 488 583 451 535 488 557 l 488 853 b 371 901 488 881 451 901 l 293 901 b 176 853 213 901 176 881 l 176 583 b 293 535 176 557 213 535 l 371 535 m 447 21 b 383 -6 432 1 413 -6 b 322 38 342 -6 322 8 b 342 79 322 43 325 56 l 1029 988 b 1093 1013 1044 1007 1064 1013 b 1154 969 1135 1013 1154 1000 b 1135 929 1154 961 1150 949 m 1100 0 b 863 153 942 0 863 51 l 863 422 b 1100 576 863 525 942 576 l 1183 576 b 1421 422 1340 576 1421 525 l 1421 153 b 1183 0 1421 51 1340 0 m 1181 104 b 1297 153 1261 104 1297 126 l 1297 422 b 1181 471 1297 450 1261 471 l 1103 471 b 986 422 1022 471 986 450 l 986 153 b 1103 104 986 126 1022 104 l 1181 104 m 1735 0 b 1497 153 1576 0 1497 51 l 1497 422 b 1735 576 1497 525 1576 576 l 1818 576 b 2056 422 1975 576 2056 525 l 2056 153 b 1818 0 2056 51 1975 0 m 1815 104 b 1932 153 1896 104 1932 126 l 1932 422 b 1815 471 1932 450 1896 471 l 1738 471 b 1621 422 1657 471 1621 450 l 1621 153 b 1738 104 1621 126 1657 104 l 1815 104 "},"‹":{"ha":488,"x_min":0,"x_max":0,"o":"m 39 392 b 63 464 39 428 47 449 l 392 781 b 411 790 399 788 404 790 b 444 713 431 790 444 756 b 424 647 444 689 440 663 l 154 390 l 429 129 b 449 68 444 117 449 90 b 417 -6 449 29 435 -6 b 396 4 410 -6 403 -3 l 63 319 b 39 392 47 333 39 356 "},"›":{"ha":488,"x_min":0,"x_max":0,"o":"m 449 392 b 425 319 449 356 440 333 l 92 4 b 71 -6 85 -3 78 -6 b 39 68 53 -6 39 29 b 58 129 39 90 43 117 l 333 390 l 64 647 b 43 713 47 663 43 689 b 76 790 43 756 57 790 b 96 781 83 790 89 788 l 425 464 b 449 392 440 449 449 428 "},"⁄":{"ha":286,"x_min":0,"x_max":0,"o":"m -147 21 b -211 -6 -162 1 -182 -6 b -272 38 -253 -6 -272 8 b -253 79 -272 43 -269 56 l 435 988 b 499 1013 450 1007 469 1013 b 560 969 540 1013 560 1000 b 540 929 560 961 556 949 "},"⁰":{"ha":774,"x_min":0,"x_max":0,"o":"m 275 431 b 38 583 117 431 38 482 l 38 853 b 275 1007 38 956 117 1007 l 497 1007 b 735 853 654 1007 735 956 l 735 583 b 497 431 735 482 654 431 m 494 535 b 611 583 575 535 611 557 l 611 853 b 494 901 611 881 575 901 l 278 901 b 161 853 197 901 161 881 l 161 583 b 278 535 161 557 197 535 l 494 535 "},"⁴":{"ha":864,"x_min":0,"x_max":0,"o":"m 165 682 l 694 682 l 694 963 b 757 1010 694 1000 717 1010 b 818 963 797 1010 818 1000 l 818 475 b 757 428 818 438 797 428 b 694 475 717 428 694 438 l 694 578 l 90 578 b 42 619 64 578 42 589 l 42 963 b 104 1010 42 1000 64 1010 b 165 963 144 1010 165 1000 "},"⁵":{"ha":822,"x_min":0,"x_max":0,"o":"m 554 818 b 792 665 711 818 792 767 l 792 583 b 554 431 792 482 711 431 l 83 431 b 43 483 51 431 43 449 b 83 535 43 519 51 535 l 557 535 b 668 583 638 535 668 556 l 668 665 b 557 714 668 692 638 714 l 92 714 b 44 757 63 714 44 729 l 44 958 b 92 1007 44 990 58 1007 l 429 1007 b 469 954 461 1007 469 989 b 429 901 469 919 461 901 l 168 901 l 168 818 "},"⁶":{"ha":832,"x_min":0,"x_max":0,"o":"m 276 431 b 39 583 118 431 39 482 l 39 853 b 276 1007 39 956 118 1007 l 414 1007 b 454 954 446 1007 454 989 b 414 901 454 919 446 901 l 279 901 b 163 853 199 901 163 881 l 163 819 l 564 819 b 800 667 721 819 800 768 l 800 583 b 564 431 800 482 721 431 m 560 535 b 678 583 642 535 678 557 l 678 667 b 560 715 678 694 642 715 l 163 715 l 163 583 b 279 535 163 557 199 535 l 560 535 "},"⁷":{"ha":781,"x_min":0,"x_max":0,"o":"m 661 1007 b 757 946 721 1007 757 993 b 739 899 757 926 751 914 l 354 453 b 293 428 339 435 319 428 b 235 469 256 428 235 442 b 256 514 235 479 238 493 l 592 901 l 64 901 b 24 954 32 901 24 919 b 64 1007 24 989 32 1007 "},"⁸":{"ha":769,"x_min":0,"x_max":0,"o":"m 264 431 b 28 600 146 431 28 460 b 92 718 28 664 51 697 b 35 832 44 747 35 786 b 271 1007 35 972 128 1007 l 499 1007 b 735 832 642 1007 735 972 b 678 718 735 786 725 747 b 742 601 714 700 742 671 b 506 431 742 460 625 431 m 154 597 b 258 535 154 554 167 535 l 511 535 b 615 597 603 535 615 554 b 500 667 615 647 597 667 l 269 667 b 154 597 172 667 154 647 m 260 901 b 156 838 174 901 156 882 b 264 772 156 783 181 772 l 506 772 b 615 838 589 772 615 783 b 510 901 615 882 596 901 "},"⁹":{"ha":788,"x_min":0,"x_max":0,"o":"m 511 1007 b 749 853 668 1007 749 956 l 749 583 b 511 431 749 482 668 431 l 403 431 b 363 483 368 431 363 449 b 403 535 363 519 368 535 l 508 535 b 625 583 589 535 625 556 l 625 618 l 269 618 b 32 771 111 618 32 668 l 32 853 b 269 1007 32 956 111 1007 m 272 901 b 156 853 192 901 156 881 l 156 771 b 272 722 156 743 192 722 l 625 722 l 625 853 b 508 901 625 881 589 901 "},"₀":{"ha":774,"x_min":0,"x_max":0,"o":"m 275 0 b 38 153 117 0 38 51 l 38 422 b 275 576 38 525 117 576 l 497 576 b 735 422 654 576 735 525 l 735 153 b 497 0 735 51 654 0 m 494 104 b 611 153 575 104 611 126 l 611 422 b 494 471 611 450 575 471 l 278 471 b 161 422 197 471 161 450 l 161 153 b 278 104 161 126 197 104 l 494 104 "},"₁":{"ha":215,"x_min":0,"x_max":0,"o":"m 169 44 b 107 -3 169 7 147 -3 b 46 44 67 -3 46 7 l 46 532 b 107 579 46 569 67 579 b 169 532 147 579 169 569 "},"₂":{"ha":819,"x_min":0,"x_max":0,"o":"m 276 232 b 165 183 196 232 165 211 l 165 104 l 736 104 b 776 53 768 104 776 89 b 736 0 776 18 768 0 l 89 0 b 42 49 56 0 42 17 l 42 183 b 279 338 42 286 122 338 l 542 338 b 654 385 622 338 654 358 l 654 422 b 542 471 654 450 622 471 l 424 471 b 382 524 389 471 382 489 b 424 576 382 558 389 576 l 539 576 b 776 422 697 576 776 525 l 776 385 b 539 232 776 283 697 232 "},"₃":{"ha":804,"x_min":0,"x_max":0,"o":"m 650 167 b 536 236 650 217 633 236 l 82 236 b 42 289 47 236 42 254 b 82 342 42 324 47 342 l 542 342 b 650 407 625 342 650 353 b 544 471 650 451 632 471 l 429 471 b 389 524 397 471 389 489 b 429 576 389 558 397 576 l 535 576 b 769 406 674 576 769 542 b 714 286 769 356 757 314 b 776 169 753 265 776 233 b 540 0 776 29 658 0 l 81 0 b 40 53 49 0 40 18 b 81 104 40 89 49 104 l 546 104 b 650 167 638 104 650 124 "},"₄":{"ha":864,"x_min":0,"x_max":0,"o":"m 165 251 l 694 251 l 694 532 b 757 579 694 569 717 579 b 818 532 797 579 818 569 l 818 44 b 757 -3 818 7 797 -3 b 694 44 717 -3 694 7 l 694 147 l 90 147 b 42 189 64 147 42 158 l 42 532 b 104 579 42 569 64 579 b 165 532 144 579 165 569 "},"₅":{"ha":822,"x_min":0,"x_max":0,"o":"m 554 388 b 792 235 711 388 792 336 l 792 153 b 554 0 792 51 711 0 l 83 0 b 43 53 51 0 43 18 b 83 104 43 89 51 104 l 557 104 b 668 153 638 104 668 125 l 668 235 b 557 283 668 261 638 283 l 92 283 b 44 326 63 283 44 299 l 44 528 b 92 576 44 560 58 576 l 429 576 b 469 524 461 576 469 558 b 429 471 469 489 461 471 l 168 471 l 168 388 "},"₆":{"ha":832,"x_min":0,"x_max":0,"o":"m 276 0 b 39 153 118 0 39 51 l 39 422 b 276 576 39 525 118 576 l 414 576 b 454 524 446 576 454 558 b 414 471 454 489 446 471 l 279 471 b 163 422 199 471 163 450 l 163 389 l 564 389 b 800 236 721 389 800 338 l 800 153 b 564 0 800 51 721 0 m 560 104 b 678 153 642 104 678 126 l 678 236 b 560 285 678 264 642 285 l 163 285 l 163 153 b 279 104 163 126 199 104 l 560 104 "},"₇":{"ha":781,"x_min":0,"x_max":0,"o":"m 661 576 b 757 515 721 576 757 563 b 739 468 757 496 751 483 l 354 22 b 293 -3 339 4 319 -3 b 235 39 256 -3 235 11 b 256 83 235 49 238 63 l 592 471 l 64 471 b 24 524 32 471 24 489 b 64 576 24 558 32 576 "},"₈":{"ha":769,"x_min":0,"x_max":0,"o":"m 264 0 b 28 169 146 0 28 29 b 92 288 28 233 51 267 b 35 401 44 317 35 356 b 271 576 35 542 128 576 l 499 576 b 735 401 642 576 735 542 b 678 288 735 356 725 317 b 742 171 714 269 742 240 b 506 0 742 29 625 0 m 154 167 b 258 104 154 124 167 104 l 511 104 b 615 167 603 104 615 124 b 500 236 615 217 597 236 l 269 236 b 154 167 172 236 154 217 m 260 471 b 156 407 174 471 156 451 b 264 342 156 353 181 342 l 506 342 b 615 407 589 342 615 353 b 510 471 615 451 596 471 "},"₉":{"ha":788,"x_min":0,"x_max":0,"o":"m 511 576 b 749 422 668 576 749 525 l 749 153 b 511 0 749 51 668 0 l 403 0 b 363 53 368 0 363 18 b 403 104 363 89 368 104 l 508 104 b 625 153 589 104 625 125 l 625 188 l 269 188 b 32 340 111 188 32 238 l 32 422 b 269 576 32 525 111 576 m 272 471 b 156 422 192 471 156 450 l 156 340 b 272 292 156 313 192 292 l 625 292 l 625 422 b 508 471 625 450 589 471 "},"₤":{"ha":1164,"x_min":0,"x_max":0,"o":"m 211 401 l 211 522 l 115 522 b 65 592 74 522 65 546 b 115 663 65 638 74 663 l 211 663 l 211 749 b 624 1007 211 921 349 1007 l 722 1007 b 775 931 767 1007 775 981 b 722 857 775 882 767 857 l 628 857 b 396 749 465 857 396 808 l 396 663 l 985 663 b 1035 592 1026 663 1035 638 b 985 522 1035 546 1026 522 l 396 522 l 396 401 l 985 401 b 1035 331 1026 401 1035 376 b 985 261 1035 285 1026 261 l 396 261 l 396 150 l 1051 150 b 1106 75 1096 150 1106 125 b 1051 0 1106 25 1096 0 l 71 0 b 17 75 26 0 17 25 b 71 150 17 125 26 150 l 211 150 l 211 261 l 114 261 b 64 331 72 261 64 285 b 114 401 64 376 72 401 "},"€":{"ha":1285,"x_min":0,"x_max":0,"o":"m 560 0 b 149 258 286 0 149 86 l 149 297 l 89 297 b 35 372 44 297 35 322 b 89 447 35 422 44 447 l 149 447 l 149 575 l 89 575 b 35 650 44 575 35 600 b 89 725 35 700 44 725 l 149 725 l 149 749 b 560 1007 149 922 286 1007 l 1171 1007 b 1225 932 1215 1007 1225 982 b 1171 857 1225 882 1215 857 l 565 857 b 332 749 403 857 332 810 l 332 725 l 921 725 b 975 650 965 725 975 700 b 921 575 975 600 965 575 l 332 575 l 332 447 l 688 447 b 742 372 732 447 742 422 b 688 297 742 322 732 297 l 332 297 l 332 258 b 565 150 332 199 403 150 l 1172 150 b 1225 75 1217 150 1225 125 b 1172 0 1225 26 1217 0 "},"₹":{"ha":1218,"x_min":0,"x_max":0,"o":"m 1011 585 l 1011 551 b 603 326 1011 415 854 326 l 526 326 l 844 122 b 889 60 874 103 889 90 b 807 -6 889 15 857 -6 b 685 14 744 -6 710 -3 l 224 326 b 181 399 194 346 181 372 b 268 474 181 438 213 474 l 586 474 b 828 563 775 474 828 513 l 828 585 l 94 585 b 40 660 50 585 40 610 b 94 735 40 710 50 735 l 828 735 l 828 768 b 586 857 828 818 775 857 l 94 857 b 40 932 50 857 40 882 b 94 1007 40 982 50 1007 l 1124 1007 b 1178 932 1168 1007 1178 982 b 1124 857 1178 882 1168 857 l 993 857 b 1011 782 1004 833 1011 808 l 1011 735 l 1124 735 b 1178 660 1168 735 1178 710 b 1124 585 1178 610 1168 585 "},"₺":{"ha":1267,"x_min":0,"x_max":0,"o":"m 156 751 l 156 947 b 247 1013 156 1000 188 1013 b 340 947 308 1013 340 1000 l 340 829 l 660 963 b 753 978 681 971 706 978 b 817 929 792 978 817 961 b 782 879 817 904 807 889 l 340 694 l 340 565 l 660 699 b 753 714 681 707 706 714 b 817 665 792 714 817 697 b 782 615 817 640 807 625 l 340 431 l 340 258 b 572 150 340 199 410 150 l 1169 150 b 1222 76 1214 150 1222 125 b 1169 0 1222 26 1214 0 l 567 0 b 156 258 293 0 156 86 l 156 361 b 108 358 142 358 128 358 b 46 407 71 358 46 375 b 81 457 46 432 56 447 l 156 488 l 156 625 b 108 622 142 622 128 622 b 46 671 71 622 46 639 b 81 721 46 696 56 711 "},"₽":{"ha":1392,"x_min":0,"x_max":0,"o":"m 401 157 l 401 60 b 308 -6 401 7 369 -6 b 217 60 249 -6 217 7 l 217 157 l 107 157 b 53 232 64 157 53 182 b 107 307 53 282 64 307 l 217 307 l 217 425 l 107 425 b 53 500 64 425 53 450 b 107 575 53 550 64 575 l 217 575 l 217 943 b 282 1007 217 986 238 1007 l 931 1007 b 1339 782 1182 1007 1339 918 l 1339 650 b 931 425 1339 514 1182 425 l 401 425 l 401 307 l 1179 307 b 1235 232 1224 307 1235 282 b 1179 157 1235 182 1224 157 m 401 857 l 401 575 l 914 575 b 1156 664 1103 575 1156 614 l 1156 768 b 914 857 1156 818 1103 857 "},"℗":{"ha":1201,"x_min":0,"x_max":0,"o":"m 1136 268 b 818 0 1136 100 1042 0 l 383 0 b 65 268 160 0 65 100 l 65 739 b 383 1007 65 907 160 1007 l 818 1007 b 1136 739 1042 1007 1136 907 m 153 278 b 385 90 153 150 231 90 l 817 90 b 1049 278 971 90 1049 150 l 1049 729 b 817 917 1049 857 971 917 l 385 917 b 153 729 231 917 153 857 l 153 278 m 276 743 b 310 776 276 765 288 776 l 725 776 b 940 658 858 776 940 729 l 940 551 b 725 433 940 481 858 433 l 374 433 l 374 278 b 324 243 374 250 357 243 b 276 278 293 243 276 250 l 276 743 m 374 697 l 374 513 l 717 513 b 844 560 817 513 844 533 l 844 650 b 717 697 844 676 817 697 "},"™":{"ha":1550,"x_min":0,"x_max":0,"o":"m 353 918 l 353 443 b 297 404 353 411 333 404 b 242 443 261 404 242 411 l 242 918 l 63 918 b 31 963 36 918 31 932 b 63 1007 31 992 36 1007 l 532 1007 b 565 963 558 1007 565 992 b 532 918 565 932 558 918 m 1349 976 b 1414 1006 1364 999 1388 1006 b 1475 949 1454 1006 1475 986 l 1475 443 b 1419 404 1475 411 1456 404 b 1364 443 1383 404 1364 411 l 1364 811 l 1118 436 b 1053 404 1101 411 1082 404 b 983 436 1019 404 999 413 l 736 811 l 736 443 b 681 404 736 411 717 404 b 625 443 644 404 625 411 l 625 949 b 686 1006 625 986 646 1006 b 751 976 714 1006 738 997 l 1049 529 "},"⅓":{"ha":1301,"x_min":0,"x_max":0,"o":"m 279 475 b 217 428 279 438 257 428 b 156 475 176 428 156 438 l 156 963 b 217 1010 156 1000 176 1010 b 279 963 257 1010 279 1000 m 178 21 b 114 -6 163 1 143 -6 b 53 38 72 -6 53 8 b 72 79 53 43 56 56 l 760 988 b 824 1013 775 1007 794 1013 b 885 969 865 1013 885 1000 b 865 929 885 961 881 949 m 1122 167 b 1008 236 1122 217 1106 236 l 554 236 b 514 289 519 236 514 254 b 554 342 514 324 519 342 l 1014 342 b 1122 407 1097 342 1122 353 b 1017 471 1122 451 1104 471 l 901 471 b 861 524 869 471 861 489 b 901 576 861 558 869 576 l 1007 576 b 1242 406 1146 576 1242 542 b 1186 286 1242 356 1229 314 b 1249 169 1225 265 1249 233 b 1013 0 1249 29 1131 0 l 553 0 b 513 53 521 0 513 18 b 553 104 513 89 521 104 l 1018 104 b 1122 167 1110 104 1122 124 "},"⅔":{"ha":1807,"x_min":0,"x_max":0,"o":"m 288 663 b 176 614 207 663 176 642 l 176 535 l 747 535 b 788 483 779 535 788 519 b 747 431 788 449 779 431 l 100 431 b 53 479 67 431 53 447 l 53 614 b 290 768 53 717 133 768 l 553 768 b 665 815 633 768 665 789 l 665 853 b 553 901 665 881 633 901 l 435 901 b 393 954 400 901 393 919 b 435 1007 393 989 400 1007 l 550 1007 b 788 853 708 1007 788 956 l 788 815 b 550 663 788 714 708 663 m 683 21 b 619 -6 668 1 649 -6 b 558 38 578 -6 558 8 b 578 79 558 43 561 56 l 1265 988 b 1329 1013 1281 1007 1300 1013 b 1390 969 1371 1013 1390 1000 b 1371 929 1390 961 1386 949 m 1628 167 b 1514 236 1628 217 1611 236 l 1060 236 b 1019 289 1025 236 1019 254 b 1060 342 1019 324 1025 342 l 1519 342 b 1628 407 1603 342 1628 353 b 1522 471 1628 451 1610 471 l 1407 471 b 1367 524 1375 471 1367 489 b 1407 576 1367 558 1375 576 l 1513 576 b 1747 406 1651 576 1747 542 b 1692 286 1747 356 1735 314 b 1754 169 1731 265 1754 233 b 1518 0 1754 29 1636 0 l 1058 0 b 1018 53 1026 0 1018 18 b 1058 104 1018 89 1026 104 l 1524 104 b 1628 167 1615 104 1628 124 "},"⅕":{"ha":1456,"x_min":0,"x_max":0,"o":"m 279 475 b 217 428 279 438 257 428 b 156 475 176 428 156 438 l 156 963 b 217 1010 156 1000 176 1010 b 279 963 257 1010 279 1000 m 178 21 b 114 -6 163 1 143 -6 b 53 38 72 -6 53 8 b 72 79 53 43 56 56 l 760 988 b 824 1013 775 1007 794 1013 b 885 969 865 1013 885 1000 b 865 929 885 961 881 949 m 1165 388 b 1403 235 1322 388 1403 336 l 1403 153 b 1165 0 1403 51 1322 0 l 694 0 b 654 53 663 0 654 18 b 694 104 654 89 663 104 l 1168 104 b 1279 153 1249 104 1279 125 l 1279 235 b 1168 283 1279 261 1249 283 l 703 283 b 656 326 674 283 656 299 l 656 528 b 703 576 656 560 669 576 l 1040 576 b 1081 524 1072 576 1081 558 b 1040 471 1081 489 1072 471 l 779 471 l 779 388 "},"⅖":{"ha":1961,"x_min":0,"x_max":0,"o":"m 288 663 b 176 614 207 663 176 642 l 176 535 l 747 535 b 788 483 779 535 788 519 b 747 431 788 449 779 431 l 100 431 b 53 479 67 431 53 447 l 53 614 b 290 768 53 717 133 768 l 553 768 b 665 815 633 768 665 789 l 665 853 b 553 901 665 881 633 901 l 435 901 b 393 954 400 901 393 919 b 435 1007 393 989 400 1007 l 550 1007 b 788 853 708 1007 788 956 l 788 815 b 550 663 788 714 708 663 m 683 21 b 619 -6 668 1 649 -6 b 558 38 578 -6 558 8 b 578 79 558 43 561 56 l 1265 988 b 1329 1013 1281 1007 1300 1013 b 1390 969 1371 1013 1390 1000 b 1371 929 1390 961 1386 949 m 1671 388 b 1908 235 1828 388 1908 336 l 1908 153 b 1671 0 1908 51 1828 0 l 1200 0 b 1160 53 1168 0 1160 18 b 1200 104 1160 89 1168 104 l 1674 104 b 1785 153 1754 104 1785 125 l 1785 235 b 1674 283 1785 261 1754 283 l 1208 283 b 1161 326 1179 283 1161 299 l 1161 528 b 1208 576 1161 560 1175 576 l 1546 576 b 1586 524 1578 576 1586 558 b 1546 471 1586 489 1578 471 l 1285 471 l 1285 388 "},"⅗":{"ha":1919,"x_min":0,"x_max":0,"o":"m 663 597 b 549 667 663 647 646 667 l 94 667 b 54 719 60 667 54 685 b 94 772 54 754 60 772 l 554 772 b 663 838 638 772 663 783 b 557 901 663 882 644 901 l 442 901 b 401 954 410 901 401 919 b 442 1007 401 989 410 1007 l 547 1007 b 782 836 686 1007 782 972 b 726 717 782 786 769 744 b 789 600 765 696 789 664 b 553 431 789 460 671 431 l 93 431 b 53 483 61 431 53 449 b 93 535 53 519 61 535 l 558 535 b 663 597 650 535 663 554 m 642 21 b 578 -6 626 1 607 -6 b 517 38 536 -6 517 8 b 536 79 517 43 519 56 l 1224 988 b 1288 1013 1239 1007 1258 1013 b 1349 969 1329 1013 1349 1000 b 1329 929 1349 961 1344 949 m 1629 388 b 1867 235 1786 388 1867 336 l 1867 153 b 1629 0 1867 51 1786 0 l 1158 0 b 1118 53 1126 0 1118 18 b 1158 104 1118 89 1126 104 l 1632 104 b 1743 153 1713 104 1743 125 l 1743 235 b 1632 283 1743 261 1713 283 l 1167 283 b 1119 326 1138 283 1119 299 l 1119 528 b 1167 576 1119 560 1133 576 l 1504 576 b 1544 524 1536 576 1544 558 b 1504 471 1544 489 1536 471 l 1243 471 l 1243 388 "},"⅘":{"ha":2006,"x_min":0,"x_max":0,"o":"m 176 682 l 706 682 l 706 963 b 768 1010 706 1000 728 1010 b 829 963 808 1010 829 1000 l 829 475 b 768 428 829 438 808 428 b 706 475 728 428 706 438 l 706 578 l 101 578 b 53 619 75 578 53 589 l 53 963 b 115 1010 53 1000 75 1010 b 176 963 156 1010 176 1000 m 728 21 b 664 -6 713 1 693 -6 b 603 38 622 -6 603 8 b 622 79 603 43 606 56 l 1310 988 b 1374 1013 1325 1007 1344 1013 b 1435 969 1415 1013 1435 1000 b 1415 929 1435 961 1431 949 m 1715 388 b 1953 235 1872 388 1953 336 l 1953 153 b 1715 0 1953 51 1872 0 l 1244 0 b 1204 53 1213 0 1204 18 b 1244 104 1204 89 1213 104 l 1718 104 b 1829 153 1799 104 1829 125 l 1829 235 b 1718 283 1829 261 1799 283 l 1253 283 b 1206 326 1224 283 1206 299 l 1206 528 b 1253 576 1206 560 1219 576 l 1590 576 b 1631 524 1622 576 1631 558 b 1590 471 1631 489 1622 471 l 1329 471 l 1329 388 "},"⅙":{"ha":1436,"x_min":0,"x_max":0,"o":"m 279 475 b 217 428 279 438 257 428 b 156 475 176 428 156 438 l 156 963 b 217 1010 156 1000 176 1010 b 279 963 257 1010 279 1000 m 178 21 b 114 -6 163 1 143 -6 b 53 38 72 -6 53 8 b 72 79 53 43 56 56 l 760 988 b 824 1013 775 1007 794 1013 b 885 969 865 1013 885 1000 b 865 929 885 961 881 949 m 860 0 b 622 153 701 0 622 51 l 622 422 b 860 576 622 525 701 576 l 997 576 b 1038 524 1029 576 1038 558 b 997 471 1038 489 1029 471 l 863 471 b 746 422 782 471 746 450 l 746 389 l 1147 389 b 1383 236 1304 389 1383 338 l 1383 153 b 1147 0 1383 51 1304 0 m 1143 104 b 1261 153 1225 104 1261 126 l 1261 236 b 1143 285 1261 264 1225 285 l 746 285 l 746 153 b 863 104 746 126 782 104 l 1143 104 "},"⅚":{"ha":1901,"x_min":0,"x_max":0,"o":"m 564 818 b 801 665 721 818 801 767 l 801 583 b 564 431 801 482 721 431 l 93 431 b 53 483 61 431 53 449 b 93 535 53 519 61 535 l 567 535 b 678 583 647 535 678 556 l 678 665 b 567 714 678 692 647 714 l 101 714 b 54 757 72 714 54 729 l 54 958 b 101 1007 54 990 68 1007 l 439 1007 b 479 954 471 1007 479 989 b 439 901 479 919 471 901 l 178 901 l 178 818 m 643 21 b 579 -6 628 1 608 -6 b 518 38 538 -6 518 8 b 538 79 518 43 521 56 l 1225 988 b 1289 1013 1240 1007 1260 1013 b 1350 969 1331 1013 1350 1000 b 1331 929 1350 961 1346 949 m 1325 0 b 1088 153 1167 0 1088 51 l 1088 422 b 1325 576 1088 525 1167 576 l 1463 576 b 1503 524 1494 576 1503 558 b 1463 471 1503 489 1494 471 l 1328 471 b 1211 422 1247 471 1211 450 l 1211 389 l 1613 389 b 1849 236 1769 389 1849 338 l 1849 153 b 1613 0 1849 51 1769 0 m 1608 104 b 1726 153 1690 104 1726 126 l 1726 236 b 1608 285 1726 264 1690 285 l 1211 285 l 1211 153 b 1328 104 1211 126 1247 104 l 1608 104 "},"⅛":{"ha":1378,"x_min":0,"x_max":0,"o":"m 279 475 b 217 428 279 438 257 428 b 156 475 176 428 156 438 l 156 963 b 217 1010 156 1000 176 1010 b 279 963 257 1010 279 1000 m 178 21 b 114 -6 163 1 143 -6 b 53 38 72 -6 53 8 b 72 79 53 43 56 56 l 760 988 b 824 1013 775 1007 794 1013 b 885 969 865 1013 885 1000 b 865 929 885 961 881 949 m 847 0 b 611 169 729 0 611 29 b 675 288 611 233 635 267 b 618 401 628 317 618 356 b 854 576 618 542 711 576 l 1082 576 b 1318 401 1225 576 1318 542 b 1261 288 1318 356 1308 317 b 1325 171 1297 269 1325 240 b 1089 0 1325 29 1208 0 m 738 167 b 842 104 738 124 750 104 l 1094 104 b 1199 167 1186 104 1199 124 b 1083 236 1199 217 1181 236 l 853 236 b 738 167 756 236 738 217 m 843 471 b 739 407 757 471 739 451 b 847 342 739 353 764 342 l 1089 342 b 1199 407 1172 342 1199 353 b 1093 471 1199 451 1179 471 "},"⅜":{"ha":1842,"x_min":0,"x_max":0,"o":"m 663 597 b 549 667 663 647 646 667 l 94 667 b 54 719 60 667 54 685 b 94 772 54 754 60 772 l 554 772 b 663 838 638 772 663 783 b 557 901 663 882 644 901 l 442 901 b 401 954 410 901 401 919 b 442 1007 401 989 410 1007 l 547 1007 b 782 836 686 1007 782 972 b 726 717 782 786 769 744 b 789 600 765 696 789 664 b 553 431 789 460 671 431 l 93 431 b 53 483 61 431 53 449 b 93 535 53 519 61 535 l 558 535 b 663 597 650 535 663 554 m 642 21 b 578 -6 626 1 607 -6 b 517 38 536 -6 517 8 b 536 79 517 43 519 56 l 1224 988 b 1288 1013 1239 1007 1258 1013 b 1349 969 1329 1013 1349 1000 b 1329 929 1349 961 1344 949 m 1311 0 b 1075 169 1193 0 1075 29 b 1139 288 1075 233 1099 267 b 1082 401 1092 317 1082 356 b 1318 576 1082 542 1175 576 l 1546 576 b 1782 401 1689 576 1782 542 b 1725 288 1782 356 1772 317 b 1789 171 1761 269 1789 240 b 1553 0 1789 29 1672 0 m 1201 167 b 1306 104 1201 124 1214 104 l 1558 104 b 1663 167 1650 104 1663 124 b 1547 236 1663 217 1644 236 l 1317 236 b 1201 167 1219 236 1201 217 m 1307 471 b 1203 407 1221 471 1203 451 b 1311 342 1203 353 1228 342 l 1553 342 b 1663 407 1636 342 1663 353 b 1557 471 1663 451 1643 471 "},"⅝":{"ha":1843,"x_min":0,"x_max":0,"o":"m 564 818 b 801 665 721 818 801 767 l 801 583 b 564 431 801 482 721 431 l 93 431 b 53 483 61 431 53 449 b 93 535 53 519 61 535 l 567 535 b 678 583 647 535 678 556 l 678 665 b 567 714 678 692 647 714 l 101 714 b 54 757 72 714 54 729 l 54 958 b 101 1007 54 990 68 1007 l 439 1007 b 479 954 471 1007 479 989 b 439 901 479 919 471 901 l 178 901 l 178 818 m 643 21 b 579 -6 628 1 608 -6 b 518 38 538 -6 518 8 b 538 79 518 43 521 56 l 1225 988 b 1289 1013 1240 1007 1260 1013 b 1350 969 1331 1013 1350 1000 b 1331 929 1350 961 1346 949 m 1313 0 b 1076 169 1194 0 1076 29 b 1140 288 1076 233 1100 267 b 1083 401 1093 317 1083 356 b 1319 576 1083 542 1176 576 l 1547 576 b 1783 401 1690 576 1783 542 b 1726 288 1783 356 1774 317 b 1790 171 1763 269 1790 240 b 1554 0 1790 29 1674 0 m 1203 167 b 1307 104 1203 124 1215 104 l 1560 104 b 1664 167 1651 104 1664 124 b 1549 236 1664 217 1646 236 l 1318 236 b 1203 167 1221 236 1203 217 m 1308 471 b 1204 407 1222 471 1204 451 b 1313 342 1204 353 1229 342 l 1554 342 b 1664 407 1638 342 1664 353 b 1558 471 1664 451 1644 471 "},"⅞":{"ha":1671,"x_min":0,"x_max":0,"o":"m 690 1007 b 786 946 750 1007 786 993 b 768 899 786 926 781 914 l 383 453 b 322 428 368 435 349 428 b 264 469 285 428 264 442 b 285 514 264 479 267 493 l 621 901 l 93 901 b 53 954 61 901 53 919 b 93 1007 53 989 61 1007 m 471 21 b 407 -6 456 1 436 -6 b 346 38 365 -6 346 8 b 365 79 346 43 349 56 l 1053 988 b 1117 1013 1068 1007 1088 1013 b 1178 969 1158 1013 1178 1000 b 1158 929 1178 961 1174 949 m 1140 0 b 904 169 1022 0 904 29 b 968 288 904 233 928 267 b 911 401 921 317 911 356 b 1147 576 911 542 1004 576 l 1375 576 b 1611 401 1518 576 1611 542 b 1554 288 1611 356 1601 317 b 1618 171 1590 269 1618 240 b 1382 0 1618 29 1501 0 m 1031 167 b 1135 104 1031 124 1043 104 l 1388 104 b 1492 167 1479 104 1492 124 b 1376 236 1492 217 1474 236 l 1146 236 b 1031 167 1049 236 1031 217 m 1136 471 b 1032 407 1050 471 1032 451 b 1140 342 1032 353 1057 342 l 1382 342 b 1492 407 1465 342 1492 353 b 1386 471 1492 451 1472 471 "},"∂":{"ha":800,"x_min":0,"x_max":0,"o":"m 625 414 b 640 556 635 460 640 507 b 332 889 640 857 525 867 b 286 947 308 892 286 904 b 383 1013 286 1001 322 1013 b 757 571 626 1013 757 840 b 331 -6 757 288 613 -6 b 44 294 138 -6 44 131 b 360 629 44 482 165 629 b 625 414 535 629 608 511 m 592 326 b 371 519 576 444 489 519 b 158 304 242 519 158 429 b 342 119 158 196 221 119 b 592 326 465 119 546 200 "},"∏":{"ha":1031,"x_min":0,"x_max":0,"o":"m 797 1013 l 232 1013 l 232 -219 b 154 -292 232 -268 201 -292 b 72 -219 107 -292 72 -268 l 72 1067 b 140 1139 72 1115 93 1139 l 889 1139 b 957 1067 936 1139 957 1115 l 957 -219 b 875 -292 957 -268 922 -292 b 797 -219 828 -292 797 -268 "},"∑":{"ha":821,"x_min":0,"x_max":0,"o":"m 100 -228 b 33 -178 54 -228 33 -206 b 49 -131 33 -165 39 -149 l 356 444 l 89 889 b 68 956 74 914 68 935 b 128 1007 68 983 86 1007 l 725 1007 b 768 953 754 1007 768 988 b 725 897 768 915 754 897 l 229 897 l 461 490 b 475 438 472 469 475 457 b 458 378 471 421 469 404 l 199 -122 l 731 -122 b 771 -172 757 -122 771 -137 b 731 -228 771 -210 757 -228 "},"−":{"ha":846,"x_min":0,"x_max":0,"o":"m 111 422 b 53 503 64 422 53 449 b 111 582 53 556 64 582 l 735 582 b 793 503 782 582 793 556 b 735 422 793 449 782 422 "},"√":{"ha":1006,"x_min":0,"x_max":0,"o":"m 817 981 b 892 1013 826 1003 851 1013 b 988 963 949 1013 988 993 b 979 936 988 954 983 946 l 572 44 b 468 -6 556 10 517 -6 b 364 44 418 -6 381 10 l 181 422 l 88 422 b 29 503 40 422 29 449 b 88 582 29 556 40 582 l 244 582 b 313 536 282 582 299 569 l 468 171 "},"∞":{"ha":1206,"x_min":0,"x_max":0,"o":"m 601 403 b 338 225 554 301 464 225 b 50 501 182 225 50 294 b 336 779 50 710 163 779 b 599 603 468 779 544 715 b 865 779 650 710 738 779 b 1154 506 1022 779 1154 707 b 865 225 1154 300 1043 225 b 601 403 735 225 657 290 m 642 501 b 819 360 663 421 729 360 b 978 501 931 360 978 404 b 819 646 978 600 926 646 b 642 501 740 646 671 586 m 563 504 b 386 646 542 585 475 646 b 231 503 275 646 231 600 b 388 360 231 408 282 360 b 563 504 463 360 536 418 "},"∫":{"ha":600,"x_min":0,"x_max":0,"o":"m 379 1 b 99 -292 379 -164 254 -292 b 17 -229 42 -292 17 -275 b 63 -172 17 -189 36 -181 b 219 1 149 -144 219 -121 l 219 960 b 500 1253 219 1125 344 1253 b 582 1190 557 1253 582 1236 b 536 1133 582 1150 563 1142 b 379 960 450 1106 379 1082 "},"≈":{"ha":846,"x_min":0,"x_max":0,"o":"m 576 547 b 290 664 439 547 365 664 b 189 586 247 664 214 626 b 115 547 174 561 164 547 b 53 608 75 547 53 557 b 268 799 53 724 161 799 b 554 682 400 799 475 682 b 657 760 596 682 631 715 b 729 799 672 786 682 799 b 793 738 771 799 793 789 b 576 547 793 622 686 547 m 576 214 b 290 331 439 214 365 331 b 189 253 247 331 214 293 b 115 214 174 228 164 214 b 53 275 75 214 53 224 b 268 465 53 390 161 465 b 554 349 400 465 475 349 b 657 426 596 349 631 382 b 729 465 672 453 682 465 b 793 404 771 465 793 456 b 576 214 793 289 686 214 "},"≠":{"ha":846,"x_min":0,"x_max":0,"o":"m 596 617 l 424 388 l 735 388 b 793 308 782 388 793 361 b 735 228 793 254 782 228 l 303 228 l 151 25 b 76 -6 133 1 111 -6 b 3 46 26 -6 3 10 b 26 94 3 51 6 67 l 126 228 l 111 228 b 53 308 64 228 53 254 b 111 388 53 361 64 388 l 246 388 l 418 617 l 111 617 b 53 697 64 617 53 643 b 111 776 53 750 64 776 l 539 776 l 693 982 b 768 1013 711 1006 733 1013 b 842 961 818 1013 842 997 b 818 913 842 950 836 936 l 715 776 l 735 776 b 793 697 782 776 793 750 b 735 617 793 643 782 617 "},"≤":{"ha":846,"x_min":0,"x_max":0,"o":"m 51 563 b 90 638 51 611 67 628 l 600 858 b 703 876 625 869 663 876 b 790 817 761 876 790 861 b 749 757 790 788 779 769 l 265 563 l 749 368 b 790 308 779 356 790 338 b 703 249 790 264 761 249 b 600 267 663 249 625 256 l 90 488 b 51 563 67 497 51 513 m 111 0 b 53 81 64 0 53 26 b 111 160 53 133 64 160 l 735 160 b 793 81 782 160 793 133 b 735 0 793 26 782 0 "},"≥":{"ha":846,"x_min":0,"x_max":0,"o":"m 790 563 b 751 488 790 513 775 497 l 242 267 b 139 249 217 256 179 249 b 51 308 81 249 51 264 b 93 368 51 338 63 356 l 576 563 l 93 757 b 51 817 63 769 51 788 b 139 876 51 861 81 876 b 242 858 179 876 217 869 l 751 638 b 790 563 775 628 790 611 m 111 0 b 53 81 64 0 53 26 b 111 160 53 133 64 160 l 735 160 b 793 81 782 160 793 133 b 735 0 793 26 782 0 "},"◊":{"ha":846,"x_min":0,"x_max":0,"o":"m 782 525 b 789 503 786 517 789 510 b 782 482 789 496 786 489 l 526 36 b 422 -6 510 7 472 -6 b 318 36 372 -6 335 7 l 63 482 b 56 503 58 489 56 496 b 63 525 56 510 58 517 l 318 971 b 422 1013 335 1000 372 1013 b 526 971 472 1013 510 1000 l 782 525 m 232 503 l 422 140 l 611 503 l 422 867 "},"":{"ha":1233,"x_min":0,"x_max":0,"o":"m 1033 1007 b 1186 911 1132 1007 1186 986 b 1157 846 1186 879 1176 861 l 299 150 l 1132 150 b 1186 75 1176 150 1186 125 b 1132 0 1186 25 1176 0 l 190 0 b 38 96 92 0 38 21 b 67 161 38 128 47 144 l 926 857 l 107 857 b 53 932 63 857 53 882 b 107 1007 53 982 63 1007 "},"":{"ha":1201,"x_min":0,"x_max":0,"o":"m 990 785 b 1133 694 1082 785 1133 765 b 1106 633 1133 667 1125 646 l 350 140 l 1099 140 b 1150 71 1140 140 1150 117 b 1099 0 1150 24 1140 0 l 188 0 b 44 90 96 0 44 19 b 72 151 44 118 53 139 l 846 644 l 119 644 b 69 714 78 644 69 668 b 119 785 69 761 78 785 "},"":{"ha":1233,"x_min":0,"x_max":0,"o":"m 732 1347 b 808 1375 749 1368 781 1375 b 897 1326 856 1375 897 1356 b 886 1300 897 1319 894 1310 l 733 1119 b 644 1086 715 1097 689 1086 b 556 1119 600 1086 574 1097 l 403 1300 b 392 1326 394 1310 392 1319 b 481 1375 392 1356 433 1375 b 557 1347 508 1375 540 1368 l 644 1240 m 1033 1007 b 1186 911 1132 1007 1186 986 b 1157 846 1186 879 1176 861 l 299 150 l 1132 150 b 1186 75 1176 150 1186 125 b 1132 0 1186 25 1176 0 l 190 0 b 38 96 92 0 38 21 b 67 161 38 128 47 144 l 926 857 l 107 857 b 53 932 63 857 53 882 b 107 1007 53 982 63 1007 "},"":{"ha":1201,"x_min":0,"x_max":0,"o":"m 715 1125 b 792 1153 732 1146 764 1153 b 881 1104 839 1153 881 1133 b 869 1078 881 1097 878 1088 l 717 897 b 628 864 699 875 672 864 b 539 897 583 864 557 875 l 386 1078 b 375 1104 378 1088 375 1097 b 464 1153 375 1133 417 1153 b 540 1125 492 1153 524 1146 l 628 1018 m 990 785 b 1133 694 1082 785 1133 765 b 1106 633 1133 667 1125 646 l 350 140 l 1099 140 b 1150 71 1140 140 1150 117 b 1099 0 1150 24 1140 0 l 188 0 b 44 90 96 0 44 19 b 72 151 44 118 53 139 l 846 644 l 119 644 b 69 714 78 644 69 668 b 119 785 69 761 78 785 "},"":{"ha":1233,"x_min":0,"x_max":0,"o":"m 639 1104 b 535 1086 614 1092 593 1086 b 465 1144 497 1086 465 1106 b 507 1204 465 1169 478 1189 l 789 1357 b 893 1375 814 1369 835 1375 b 963 1315 931 1375 963 1356 b 921 1257 963 1292 950 1272 m 1033 1007 b 1186 911 1132 1007 1186 986 b 1157 846 1186 879 1176 861 l 299 150 l 1132 150 b 1186 75 1176 150 1186 125 b 1132 0 1186 25 1176 0 l 190 0 b 38 96 92 0 38 21 b 67 161 38 128 47 144 l 926 857 l 107 857 b 53 932 63 857 53 882 b 107 1007 53 982 63 1007 "},"":{"ha":1201,"x_min":0,"x_max":0,"o":"m 622 882 b 518 864 597 869 576 864 b 449 922 481 864 449 883 b 490 982 449 947 461 967 l 772 1135 b 876 1153 797 1147 818 1153 b 946 1093 914 1153 946 1133 b 904 1035 946 1069 933 1050 m 990 785 b 1133 694 1082 785 1133 765 b 1106 633 1133 667 1125 646 l 350 140 l 1099 140 b 1150 71 1140 140 1150 117 b 1099 0 1150 24 1140 0 l 188 0 b 44 90 96 0 44 19 b 72 151 44 118 53 139 l 846 644 l 119 644 b 69 714 78 644 69 668 b 119 785 69 761 78 785 "},"":{"ha":1233,"x_min":0,"x_max":0,"o":"m 535 1190 b 644 1276 535 1250 567 1276 b 754 1190 722 1276 754 1250 b 644 1104 754 1131 722 1104 b 535 1190 567 1104 535 1131 m 1033 1007 b 1186 911 1132 1007 1186 986 b 1157 846 1186 879 1176 861 l 299 150 l 1132 150 b 1186 75 1176 150 1186 125 b 1132 0 1186 25 1176 0 l 190 0 b 38 96 92 0 38 21 b 67 161 38 128 47 144 l 926 857 l 107 857 b 53 932 63 857 53 882 b 107 1007 53 982 63 1007 "},"":{"ha":1201,"x_min":0,"x_max":0,"o":"m 532 968 b 642 1054 532 1028 564 1054 b 751 968 719 1054 751 1028 b 642 882 751 908 719 882 b 532 968 564 882 532 908 m 990 785 b 1133 694 1082 785 1133 765 b 1106 633 1133 667 1125 646 l 350 140 l 1099 140 b 1150 71 1140 140 1150 117 b 1099 0 1150 24 1140 0 l 188 0 b 44 90 96 0 44 19 b 72 151 44 118 53 139 l 846 644 l 119 644 b 69 714 78 644 69 668 b 119 785 69 761 78 785 "}}}
